<svg width="58" height="53" viewBox="0 0 58 53" fill="none" xmlns="http://www.w3.org/2000/svg">
<path d="M23.7366 33.5545C24.0609 33.829 24.5218 34.0215 24.9789 33.9633C25.6905 33.8726 26.097 33.2563 26.4058 32.7144C29.788 26.778 34.3335 21.3031 39.8075 16.5722C40.1299 16.2936 39.9787 15.7448 39.6279 15.4911C39.2772 15.2375 38.7525 15.2097 38.3092 15.3253C35.1836 16.1407 27.2444 24.9146 25.5988 26.5198C23.8315 25.5851 20.4492 25.2927 18.6641 24.3819C18.3368 24.2149 18.0033 24.0457 17.6317 23.9657C17.2602 23.8858 16.838 23.907 16.5297 24.0974C16.2214 24.2878 16.0121 24.8083 16.2835 25.0343C21.4156 29.3084 22.8873 32.8356 23.7366 33.5545Z" fill="#FF7510"/>
<path d="M27.252 47.43C27.3975 47.4712 27.5521 47.4738 27.6953 47.4392C33.1857 46.1235 38.3449 42.8029 41.8506 38.3288C48.3501 30.0348 48.753 19.2394 47.5031 9.39031C47.4666 9.10886 47.2046 8.88378 46.8678 8.8462C25.6325 6.49537 26.9848 6.61428 26.7875 6.64018C22.765 7.14961 8.1726 9.01326 7.81176 9.0417C7.42309 9.0417 7.10159 9.29276 7.07664 9.61539C6.68509 14.5548 6.28011 19.6624 6.93653 24.7029C8.36146 35.6296 14.627 43.8124 27.252 47.43ZM8.50656 10.2059L26.9055 7.86752L46.0962 9.99959C47.2406 19.4444 46.7846 29.7858 40.6164 37.6572C37.3497 41.8274 32.583 44.9329 27.5111 46.2042C15.6232 42.7146 9.76193 35.0116 8.40292 24.5702C7.78201 19.8079 8.13325 14.9337 8.50656 10.2059Z" fill="#FF7510"/>
<path d="M52.1221 23.5306C52.9023 18.0096 52.8582 12.2287 51.983 5.33715C51.9465 5.0553 51.6845 4.83062 51.3476 4.79304C25.2978 1.90704 26.8856 2.05224 26.6887 2.07809C1.49096 5.27508 3.09424 5.04999 2.92605 5.1396C2.92821 5.10043 2.92941 5.0615 2.93157 5.02232C2.85474 5.08913 2.31852 5.27998 2.25176 5.35549C2.05347 5.57988 1.71419 5.74595 1.47064 5.94777C0.912278 6.4107 0.952809 6.89617 0.769294 8.32425C0.344047 11.6425 0.0189816 14.9655 0.000651706 18.3158C-0.0810044 34.0654 7.50547 48.224 25.7234 52.7891C29.2955 53.6841 32.5661 51.547 35.6589 49.8024C39.3324 47.7302 42.5413 45.0887 45.0753 42.0551C49.6008 36.6369 51.1703 30.2637 52.1221 23.5306ZM4.01055 6.20229L26.8067 3.30544L50.577 5.94682C52.0045 17.6243 51.4631 30.4268 43.8209 40.1789C39.7682 45.3518 33.8479 49.2009 27.5495 50.7665C12.8278 46.4657 5.55875 36.9363 3.87427 24.0144C3.10365 18.1055 3.54702 12.062 4.01055 6.20229Z" fill="#FF7510"/>
<path d="M55.5029 6.55044C55.9041 6.49327 56.1737 6.17624 56.1056 5.84201C55.6632 3.67917 53.9291 1.71862 51.5807 0.725149C51.216 0.572031 50.7746 0.692367 50.5894 0.995005C50.4051 1.29724 50.55 1.66705 50.9128 1.82056C52.8542 2.64133 54.287 4.26126 54.6527 6.0483C54.7212 6.38245 55.1018 6.6074 55.5029 6.55044Z" fill="#FF7510"/>
<path d="M57.9893 3.75384C57.6717 2.19548 56.4222 0.783032 54.7293 0.0670146C54.3627 -0.0877029 53.9222 0.0350314 53.7379 0.33687C53.5537 0.639109 53.6986 1.00891 54.0614 1.16243C55.3464 1.70534 56.2945 2.77757 56.5364 3.96013C56.6054 4.29681 56.9877 4.51892 57.3866 4.46227C57.7878 4.4055 58.0575 4.08847 57.9893 3.75384Z" fill="#FF7510"/>
</svg>
