<svg width="41" height="35" viewBox="0 0 41 35" fill="none" xmlns="http://www.w3.org/2000/svg">
<path d="M33.8406 15.1136C33.2772 15.1136 32.8052 14.9227 32.4247 14.5409C32.0442 14.1591 31.8532 13.6871 31.8519 13.125V6.76136L30.0124 8.55114C29.6478 8.91572 29.2003 9.10663 28.67 9.12386C28.1397 9.1411 27.6756 8.95019 27.2779 8.55114C26.9133 8.18655 26.731 7.72254 26.731 7.15909C26.731 6.59564 26.9133 6.13163 27.2779 5.76705L32.4485 0.59659C32.8463 0.198863 33.3103 0 33.8406 0C34.371 0 34.835 0.198863 35.2327 0.59659L40.4034 5.76705C40.8011 6.16477 41 6.62879 41 7.15909C41 7.68939 40.8011 8.15341 40.4034 8.55114C40.0056 8.94886 39.5337 9.14773 38.9874 9.14773C38.4412 9.14773 37.9685 8.94886 37.5695 8.55114L35.8293 6.81108V13.125C35.8293 13.6884 35.6391 14.1611 35.2586 14.5429C34.8781 14.9247 34.4054 15.115 33.8406 15.1136ZM2.02122 35C1.19259 35 0.595976 34.6354 0.231379 33.9063C-0.133218 33.1771 -0.0669277 32.4811 0.430251 31.8182L8.3851 21.2287C8.58397 20.9635 8.82461 20.7647 9.10701 20.6321C9.3894 20.4995 9.67909 20.4332 9.97607 20.4332C10.2731 20.4332 10.5634 20.4995 10.8471 20.6321C11.1309 20.7647 11.3708 20.9635 11.567 21.2287L18.9253 31.0227H33.8406L23.8971 17.7983L20.5163 22.2727C20.1185 22.803 19.6545 23.0768 19.1242 23.094C18.5938 23.1113 18.1298 22.9701 17.7321 22.6705C17.3343 22.3708 17.0692 21.9652 16.9366 21.4534C16.804 20.9417 16.9366 20.4193 17.3343 19.8864L22.3061 13.2741C22.505 13.009 22.7456 12.8101 23.028 12.6776C23.3104 12.545 23.6001 12.4787 23.8971 12.4787C24.194 12.4787 24.4844 12.545 24.7681 12.6776C25.0518 12.8101 25.2918 13.009 25.488 13.2741L39.409 31.8182C39.9062 32.4811 39.9725 33.1771 39.6079 33.9063C39.2433 34.6354 38.6467 35 37.8181 35H2.02122Z" fill="#FF7510"/>
</svg>
