<svg width="105" height="124" viewBox="0 0 105 124" fill="none" xmlns="http://www.w3.org/2000/svg">
<path d="M98.9137 76.5572C99.5388 74.6444 99.0731 72.0976 97.9341 70.5784C96.4878 68.6449 93.5597 67.7032 90.8653 68.9885C87.7852 39.9206 88.2134 5.08071 88.0947 2.69564C88.4698 1.71936 87.7326 0.767212 86.7755 0.767212C60.9624 0.767212 31.3819 0.499373 5.52635 0.498912C5.20599 0.137246 4.72631 -0.0692724 4.21921 0.0212021C3.44636 0.16374 2.93637 0.905122 3.07798 1.67705C3.09916 1.79205 3.11663 1.90913 3.13757 2.02425C2.08971 3.43216 0.990592 4.60497 0 6.2754C3.3051 33.7755 1.40976 69.4789 3.32349 91.3276C4.76227 107.751 14.7698 114.21 30.7794 114.356C44.718 114.483 58.1451 114.679 71.9955 113.536L71.5517 120.16C71.4683 121.423 72.9615 122.161 73.9109 121.321C75.9759 119.5 77.9418 117.443 79.7763 115.185L83.4786 122.366C84.0972 123.566 85.8697 123.302 86.135 121.998C86.6628 119.415 87.0093 116.779 87.212 114.122L88.3943 116.542C88.9375 117.645 90.536 117.585 90.9905 116.439C91.9762 113.96 92.7528 111.423 93.3072 108.872L99.6159 112.362C100.737 112.984 102.045 111.914 101.66 110.692C100.402 106.686 98.615 102.883 96.3915 99.3245C100.449 99.43 103.307 94.4869 100.43 89.9009C107.16 88.3247 106.291 77.1907 98.9137 76.5572ZM86.5584 100.251C88.4858 99.69 90.2543 98.7742 91.7935 97.5831C92.0307 97.8921 92.2603 98.2059 92.4768 98.5295C92.6864 101.953 88.2369 103.221 86.5584 100.251ZM81.5497 103.816C77.931 104.874 76.2139 101.868 77.579 100.606C77.6788 100.513 77.7408 100.4 77.8081 100.289C79.8841 100.87 81.5539 100.947 83.19 100.836C83.059 101.775 84.0284 103.089 81.5497 103.816ZM69.4639 75.9302C69.5607 76.0286 69.6448 76.1376 69.7514 76.2271C69.7573 76.2321 69.7647 76.2332 69.7706 76.2381C68.142 78.2826 67.0389 80.7369 66.6435 83.4174C65.289 83.0456 64.1637 81.7618 64.0027 80.3107C63.7165 77.7511 66.093 75.1427 69.4639 75.9302ZM71.3425 70.9828C72.6008 68.9842 75.7113 68.7189 77.5642 70.9787C75.5294 71.5835 73.6706 72.5826 72.0789 73.8859C71.7737 73.7182 71.4606 73.5722 71.1385 73.4482C70.8151 72.7309 70.8691 71.7347 71.3425 70.9828ZM82.2874 67.1223C84.7253 65.8045 88.1014 67.7693 87.6885 71.34C85.3378 70.4582 83.0276 70.1808 80.6932 70.3864C80.5136 69.1523 81.1524 67.7375 82.2874 67.1223ZM66.5301 86.8649C66.7019 88.9057 67.2849 90.8308 68.199 92.567C62.7127 93.5262 61.5956 87.1063 66.5301 86.8649ZM70.2066 95.4992C71.4082 96.8772 72.8527 98.0442 74.4784 98.9361C73.8366 99.3027 73.1744 99.6301 72.4902 99.8347C69.8485 100.617 68.2093 99.2097 68.3168 97.8966C68.3876 97.0156 69.2722 96.2107 70.2066 95.4992ZM82.1069 98.0465C75.0494 98.0465 69.3081 92.4644 69.3081 85.6031C69.3081 78.7419 75.0494 73.1598 82.1069 73.1598C89.1643 73.1598 94.9057 78.7419 94.9057 85.6031C94.9057 92.4644 89.1643 98.0465 82.1069 98.0465ZM95.6581 72.2823C96.3025 73.1434 96.603 74.973 96.0978 75.9791C95.8285 76.5121 95.4526 76.6907 94.8612 76.7842C93.7276 75.223 92.3074 73.8771 90.6681 72.8246C91.8972 70.8737 94.5135 70.7542 95.6581 72.2823ZM85.2676 3.60883C85.3104 20.2862 85.6327 43.7899 87.6127 65.0142C84.3594 62.8517 79.7643 63.8163 78.2118 67.7585C73.5711 64.5879 67.6785 68.04 68.1136 72.9273C61.7784 73.1059 58.7078 80.7293 63.45 84.8273C58.4523 87.5999 60.1782 94.7733 66.2799 95.4599C63.895 99.106 67.1692 103.935 72.7319 102.687C72.629 104.235 72.5217 105.783 72.4159 107.329C43.229 108.792 39.1334 107.695 30.4462 107.378C19.9686 106.994 14.9012 102.495 13.237 97.7744C6.79739 79.508 13.9826 48.1269 6.24968 3.34307C31.5443 3.34857 59.8201 3.59923 85.2676 3.60883ZM81.285 111.907C80.7955 110.956 79.4963 110.887 78.8831 111.707C77.5447 113.496 76.1212 115.169 74.631 116.705C74.6444 116.509 75.3865 105.571 75.4402 104.772C77.7949 107.621 82.1322 107.31 84.4686 105.459C84.6952 109.292 84.5715 113.287 84.0478 117.265L81.285 111.907ZM92.9749 105.439C92.1162 104.965 91.0519 105.479 90.885 106.441C90.549 108.387 90.0742 110.333 89.4652 112.257L89.1384 111.589C88.5616 110.404 87.9844 109.218 87.4032 108.037C87.3855 106.819 87.3218 105.594 87.2307 104.369C90.0011 105.425 93.1112 104.248 94.5498 101.733C95.7535 103.761 96.8129 105.867 97.6953 108.05L92.9749 105.439ZM96.6698 96.4823C95.9553 96.561 95.1917 96.1037 94.9991 95.4966C94.9132 95.2249 94.7383 95.0179 94.5342 94.8492C95.6192 93.4597 96.4779 91.8937 97.0274 90.1899C99.822 92.8983 98.8421 96.2603 96.6698 96.4823ZM100.725 86.7259C99.8067 87.3844 98.4558 87.3861 97.6901 86.7395C97.8695 84.3756 97.5376 82.1481 96.6087 79.9005C97.5804 79.2831 98.9579 79.1961 100.035 79.7813C102.586 81.1667 102.919 85.1512 100.725 86.7259Z" fill="#FF7510"/>
<path d="M24.3615 47.7245H69.6857C70.4706 47.7245 71.1074 47.0877 71.1074 46.3029V11.2589C71.1074 10.4768 70.4752 9.84095 69.6931 9.83725L22.5001 9.60308C21.6112 9.59589 21.0338 10.3485 21.0729 11.0997L22.9416 46.3778C22.9814 47.1331 23.6053 47.7245 24.3615 47.7245ZM68.2641 12.6732V44.8812H25.71L23.9922 12.4538L68.2641 12.6732Z" fill="#FF7510"/>
<path d="M59.3821 59.3555H23.3719C22.587 59.3555 21.9502 59.9923 21.9502 60.7771C21.9502 61.562 22.587 62.1988 23.3719 62.1988H59.3821C60.167 62.1988 60.8038 61.562 60.8038 60.7771C60.8038 59.9923 60.167 59.3555 59.3821 59.3555Z" fill="#FF7510"/>
<path d="M51.4678 71.623H29.7039C28.919 71.623 28.2822 72.2598 28.2822 73.0447C28.2822 73.8296 28.919 74.4664 29.7039 74.4664H51.4678C52.2526 74.4664 52.8894 73.8296 52.8894 73.0447C52.8894 72.2598 52.2526 71.623 51.4678 71.623Z" fill="#FF7510"/>
<path d="M45.7303 83.4951H34.2542C33.4693 83.4951 32.8325 84.1319 32.8325 84.9168C32.8325 85.7017 33.4693 86.3385 34.2542 86.3385H45.7303C46.5152 86.3385 47.152 85.7017 47.152 84.9168C47.152 84.1319 46.5152 83.4951 45.7303 83.4951Z" fill="#FF7510"/>
<path d="M45.8847 28.8445C51.2944 28.8445 54.2548 23.6449 52.2961 19.586C51.0881 17.0799 48.3343 15.7026 45.6237 15.707C42.8275 15.7116 40.0773 17.1864 39.1169 20.4088C37.9339 24.3809 40.9661 28.8445 45.8847 28.8445Z" fill="#FF7510"/>
<path d="M36.2385 43.3441C37.0141 43.4681 37.7407 42.9303 37.8582 42.1538C38.3034 39.2475 40.0139 36.6661 42.4352 35.2472C45.1332 33.6654 48.8105 33.5913 51.1855 35.0685C53.7484 36.6633 54.6629 39.7464 55.2192 42.5518C55.3724 43.3246 56.124 43.8217 56.8907 43.6699C57.6608 43.5171 58.1615 42.7684 58.0088 41.9983C57.3332 38.595 56.1725 34.8223 52.6868 32.6546C49.4186 30.6202 44.6112 30.6804 40.9987 32.7944C37.7981 34.6687 35.6295 37.9239 35.0482 41.7243C34.9288 42.4999 35.4619 43.2256 36.2385 43.3441Z" fill="#FF7510"/>
<path d="M87.4141 81.7963C84.9382 83.9372 82.6067 86.2705 80.464 88.7492L77.2541 84.3907C76.7885 83.7576 75.8981 83.6225 75.266 84.0889C74.6338 84.5545 74.4987 85.4449 74.9642 86.0771L79.245 91.8887C79.7967 92.636 80.9037 92.6635 81.4904 91.9461C83.8423 89.0704 86.4617 86.3788 89.2745 83.9473C89.8678 83.4336 89.9335 82.5358 89.4198 81.9416C88.9052 81.3483 88.0083 81.2817 87.4141 81.7963Z" fill="#FF7510"/>
</svg>
