<svg width="108" height="104" viewBox="0 0 108 104" fill="none" xmlns="http://www.w3.org/2000/svg">
<path fill-rule="evenodd" clip-rule="evenodd" d="M6.83661 2.65418C7.17832 3.58057 8.22567 5.13766 8.51636 5.85205C8.94519 6.90575 12.1739 11.2299 12.2092 11.3473C12.2289 11.4089 12.3532 11.5339 12.112 11.8101L11.3899 12.652C10.7098 13.4151 9.70109 14.3808 9.33514 15.3564C8.56561 17.4085 9.29751 19.4474 11.1538 20.5995L12.8474 21.5602L22.3018 26.7962L24.0371 27.7553C24.3743 27.9671 24.939 28.1063 25.356 28.122C27.5901 28.2055 29.3246 25.5214 27.4941 23.2958C27.2165 22.9753 26.9387 22.6643 26.6751 22.3367L24.9675 20.2232C24.6124 19.7665 21.7631 16.1519 21.58 15.8152C21.2595 15.2255 21.75 14.8233 22.052 14.4462L23.8429 12.1781C24.622 10.9369 24.6569 9.19118 23.7735 8.09208C23.4229 7.65615 23.5426 7.58286 22.8433 7.13855C21.9253 6.55528 20.2076 5.67783 19.2338 5.13817C16.5054 3.62622 13.6844 2.68258 10.8207 1.51349C8.7972 0.687523 9.72129 1.25355 9.7516 1.38238C9.29523 1.54291 9.58492 1.44426 9.58492 1.58881C9.42808 1.52567 9.02424 1.34384 8.86286 1.36159C9.20002 1.937 9.99481 2.54183 10.5982 2.78072C10.6701 2.80938 11.4306 3.26636 11.4728 3.4137C11.5526 3.69215 12.6542 3.99673 13.2081 4.43976C13.7735 4.89193 15.0113 5.64588 15.6654 6.07649C15.992 6.29585 16.9482 6.79467 17.0815 7.00491C17.2889 7.33205 17.722 7.44896 18.0256 7.64474L20.9688 9.40547C21.5277 9.73641 21.5853 10.1607 21.1772 10.6392C20.4892 11.4452 19.3851 12.6 18.8448 13.4524C17.9667 14.8375 18.1281 16.5993 19.0393 17.919C20.0897 19.4401 21.4186 21.1772 22.5241 22.6882C19.3558 20.881 16.0874 19.0579 12.9585 17.2039C12.9585 17.0928 12.6088 16.9416 13.1389 16.3508L15.1937 13.9028C16.2115 12.3908 16.1476 10.6813 15.1103 9.21882L13.8887 7.7411C13.5695 7.4345 13.2222 7.16239 12.9724 6.78352C12.6378 6.35646 11.9741 5.78459 11.5841 5.29464C11.1313 4.72557 10.3211 3.72436 9.83494 3.24126C9.27225 2.68233 8.8472 1.99863 8.61334 1.78738C8.61334 1.70648 8.47393 1.86878 8.3772 1.71206C8.29638 1.58095 8.45877 1.53429 8.47443 1.33014C8.48782 1.15516 8.66764 1.21019 8.69668 1.15998C8.77901 1.01745 8.93307 1.06716 9.0298 1.06513L8.71057 0.62742C8.71007 0.627167 8.18046 0.347956 8.05797 0.369511C6.94547 0.565543 6.48228 1.61062 6.83661 2.65418ZM82.9721 25.3814C82.889 25.32 82.9165 25.3383 82.9721 25.3814V25.3814ZM79.8207 26.1607C80.3902 28.0934 82.6834 28.9995 84.444 27.8601L85.1243 27.4738C85.7214 27.1518 86.2629 26.7252 86.8874 26.4381L92.0519 23.4535L96.9111 20.5803C98.9805 19.4165 99.7329 16.8506 98.4661 14.7391C98.16 14.2289 96.1059 11.8623 96.1059 11.8522C96.092 11.8398 96.0781 11.8258 96.0781 11.8116C96.0036 11.7406 95.8877 11.3795 96.0504 11.1479L97.0083 9.8026C97.2306 9.4179 97.397 9.00656 97.7026 8.66927C97.7165 8.65406 97.7304 8.63174 97.7304 8.61221C97.7688 8.41568 98.2721 7.91304 98.383 7.57221C98.461 7.33205 99.4025 6.08815 99.5351 5.91748C100.029 5.28247 100.518 4.31246 100.896 3.87094C101.227 3.4837 101.756 2.85046 101.77 2.31512C101.812 1.53023 101.493 0.811026 100.979 0.346688C100.575 -0.0334561 100.322 0.0575854 99.7157 0.00382255C99.4035 -0.0238196 99.3977 0.102979 99.1464 0.238147C99.0492 0.295207 98.952 0.373315 98.855 0.445844C99.3891 0.356324 99.3657 0.513555 99.5354 0.572643C99.9071 0.701978 99.8506 0.922863 99.9102 1.00478C100.086 1.24645 100.216 1.68518 99.8963 1.8873C99.179 2.33997 98.209 3.52833 97.4806 4.10527C96.6782 4.74053 94.0117 7.95615 93.1768 9.02482C92.0524 10.4642 92.0183 12.7213 93.1907 14.1716L95.1482 16.5861C95.4983 17.0106 95.0896 17.2171 94.8568 17.3527L84.6942 23.4797L85.2635 22.6836L88.9564 17.8587C90.0944 16.4243 90.0057 14.3473 88.7897 12.9809L86.6793 10.5624C86.3871 10.1031 86.6677 9.52491 86.7071 9.50716C86.849 9.443 86.7776 9.37352 87.1652 9.14046C90.3969 7.19993 91.6678 6.48173 94.6621 4.09106L97.5776 1.77698C97.666 1.70876 98.731 0.906125 98.5633 0.840189C98.4522 0.830553 98.3413 0.946194 98.2302 0.90435C98.2302 0.631225 98.4246 0.636804 98.1329 0.665967L98.6883 0.15167C97.6084 0.0426231 96.0127 1.47368 95.6061 1.38669C95.3207 1.32583 94.4921 2.13379 93.8569 2.38612C93.2137 2.6415 91.8691 3.34777 91.2192 3.69368C90.9493 3.83747 89.8883 4.44636 89.7059 4.46183C89.2907 4.49708 89.0319 4.77527 88.6785 4.96243L85.5688 6.70211C83.7146 7.66604 83.0302 10.1313 83.9722 11.9645L84.5414 12.794L86.4851 15.1654C86.522 15.328 86.6437 15.5651 86.3879 15.8121L83.9722 18.8038C83.0463 19.9432 80.9011 22.4551 80.1265 23.6508C79.6775 24.3437 79.5363 25.3941 79.8207 26.1607ZM72.4069 98.3129C72.4724 98.3459 72.3097 98.3086 72.3097 98.5138C72.4867 98.527 72.1723 98.8843 71.9905 98.8888C71.6932 98.8927 71.743 99.1785 71.2826 99.1539C70.9131 99.1341 70.2408 99.2208 69.9498 98.9893L69.7001 98.7301C69.6723 98.723 69.6306 98.7161 69.6723 98.6758C69.6723 98.6647 69.6723 98.6632 69.6584 98.6632L69.2558 98.2589C68.977 97.9599 68.8835 97.6168 68.5476 97.3987C68.4747 97.3657 68.58 97.3619 68.4643 97.2914C68.3603 97.2012 68.2847 97.0039 67.895 96.6752L67.3397 95.921L67.0899 95.0162C67.0389 94.6702 67.2397 94.6223 67.326 94.3652L67.937 93.611C68.1031 93.4568 68.7358 93.0642 68.9227 93.0911C69.0106 93.138 69.2558 93.0267 69.2558 93.0492C69.3775 93.1651 69.3048 93.1629 69.4225 93.1733C69.6303 93.1915 69.6341 93.3716 69.7417 93.3406C69.8778 93.3013 69.769 93.3865 69.9084 93.3685C69.9084 93.3685 69.9223 93.3685 69.9084 93.3713C69.9084 93.4215 70.0195 93.4007 70.089 93.4007C70.1501 93.4015 70.1433 93.4738 70.1584 93.4773C70.414 93.5384 70.4961 93.7687 70.561 93.9178C70.6385 94.0958 71.3609 95.0418 71.3384 95.1181C71.3045 95.2302 71.6988 95.4146 71.7826 95.8444C71.964 96.6643 71.947 96.5167 72.1991 97.1786L72.3377 97.5856C72.4751 97.6954 72.2961 97.6612 72.2961 97.7487C72.2961 97.912 72.3754 98.0122 72.2822 98.2115L72.4069 98.3129ZM42.808 95.7561C42.808 96.1857 42.4378 96.6851 42.2526 97.0386L41.9473 97.6533C41.864 97.6756 41.9195 97.7773 41.864 97.8207C41.7738 97.8942 41.8933 98.0768 41.5308 98.4131C41.0068 98.8993 41.0098 98.917 40.5868 99.4627L40.2953 99.8C40.2953 99.9618 40.1425 99.7972 40.1425 99.8447C40.1148 99.8629 40.1009 99.8865 40.0453 99.8933C40.0314 99.8961 40.0453 99.924 40.0175 99.9352C39.6081 100.213 39.6983 99.9377 39.6983 100.233C39.6983 100.318 39.6837 100.147 39.4902 100.238C39.417 100.272 39.6402 100.401 39.1293 100.267C38.9684 100.225 39.0846 100.158 38.7406 99.9715L38.56 99.889C38.4436 99.779 37.8797 98.7968 37.8797 98.4839L37.9908 98.0642C37.9506 97.9982 38.0383 98.0213 38.0324 98L38.1575 97.4996C38.1885 97.2968 38.5489 96.676 38.5461 96.6618C38.5398 96.4457 38.6661 96.095 38.7542 95.902C38.9922 95.3824 38.8197 95.0405 39.5177 94.268C39.5455 94.2346 39.5594 94.1927 39.6288 94.1831C39.7789 93.9645 40.0428 93.6936 40.3509 93.7522C40.5704 93.7941 40.7669 93.6718 41.5308 93.8762L42.1834 94.1453L42.4332 94.4017C42.6045 94.5308 42.4206 94.4826 42.6694 94.7167C42.7833 94.8239 42.6295 94.8171 42.6832 94.9718C42.7625 95.1998 42.6289 95.2523 42.6971 95.3385C42.7959 95.4635 42.6825 95.4531 42.7527 95.4988C42.7666 95.5028 42.7666 95.5084 42.7666 95.5084C42.711 95.5251 42.7944 95.6172 42.8222 95.6841C42.8497 95.7242 42.808 95.7298 42.808 95.7561ZM57.066 100.985C57.066 101.247 56.7607 101.884 56.7607 102.336L56.6495 103.059C56.719 103.118 56.5313 103.116 56.5245 103.145C56.5106 103.173 56.5106 103.199 56.469 103.226C56.4412 103.243 56.469 103.261 56.469 103.279C56.3861 103.553 56.154 103.476 56.3301 103.69C56.3556 103.721 56.1495 103.699 56.1495 103.813C56.2864 103.914 55.835 104.055 55.6913 103.978C55.5188 103.896 55.3044 103.994 55.1776 103.961L54.0113 103.26C53.8096 103.11 53.8229 102.726 53.7752 102.688C53.6984 102.627 53.8199 102.632 53.7752 102.613C53.6171 102.041 53.5807 101.898 53.5532 101.252C53.5532 101.244 53.5671 101.237 53.5532 101.227C53.4976 101.177 53.5254 101.125 53.5115 101.076L53.4282 100.93C53.4936 100.878 53.4004 100.854 53.4004 100.706L53.2476 100.014C53.2145 100.004 53.0453 99.2109 53.2059 98.7121C53.4418 97.9794 53.3262 98.0456 53.9002 97.7335L54.8026 97.385L55.4552 97.2985L55.9133 97.4324C55.9929 97.525 56.3141 97.5154 56.2465 97.6612C56.2179 97.7223 56.3998 97.7682 56.4409 97.9901L56.6354 98.1699C56.5937 98.209 56.7187 98.248 56.7743 98.2871C56.816 98.3094 56.7882 98.3345 56.7882 98.3568C56.9155 98.4585 56.9819 98.8227 56.9271 98.966L56.9549 99.7158C56.9599 99.7513 57.0511 100.071 57.0104 100.283C56.9965 100.318 57.0382 100.357 56.9965 100.392C56.9271 100.455 57.0382 100.515 57.0104 100.575L57.066 100.985ZM70.8242 50.3755C70.8242 51.4427 70.6997 52.2603 70.0468 53.2277C68.9694 54.8241 67.5351 55.3458 65.7291 55.3564L61.5781 55.3689C61.5781 55.4275 61.5781 55.4845 61.592 55.5403C61.6337 56.3782 61.6198 57.2186 61.6337 58.058C61.6486 58.8267 61.7698 60.0531 61.6337 60.7277C61.243 62.6629 60.0062 64.1862 58.0656 64.7064C57.1433 64.9536 56.0772 64.8816 55.1362 64.889C54.7337 64.893 54.3311 64.9237 53.9285 64.9237L51.3322 64.928C48.5046 64.8423 46.3481 62.5678 46.3481 59.8188L46.2925 55.7789L42.1693 55.8124C39.3051 55.7975 37.0813 53.6201 36.9631 50.7382L37.0048 47.9095L37.0187 45.1466C37.0278 44.4413 37.2291 43.8329 37.4768 43.1936C38.0878 41.7953 39.3233 40.6843 40.8088 40.2996C41.641 40.0883 42.0716 40.1274 42.8775 40.1504L46.7509 40.2661C47.0863 38.7478 46.962 35.9039 47.6255 34.5211C48.0702 33.5939 48.8244 32.8998 49.7912 32.6655L50.4715 32.7114C50.8663 32.7274 50.9079 32.8339 51.4434 32.9609C50.7006 33.1407 51.1332 33.1478 50.6521 33.3233C50.2447 33.4719 50.4152 33.5348 49.9301 33.9632C49.2572 34.5576 49.4421 35.1939 49.3886 35.4115C49.2802 35.8517 49.3648 37.7337 49.4164 38.2274C49.5272 39.3838 49.5144 40.7497 49.5414 41.9439C49.558 42.6811 49.0012 43.2669 48.2086 43.2877L46.862 43.3503C46.189 43.4944 45.7389 43.3623 45.0989 43.4787C45.0573 43.4842 45.0295 43.4886 45.0017 43.4858C44.2208 43.4272 43.3555 43.663 42.4888 43.6504C41.9748 43.6427 41.8374 43.6138 41.3919 43.9179C40.8911 44.2598 40.7393 44.7791 40.7393 45.3398L40.7254 50.3781C40.7176 50.8672 40.8265 51.3136 41.253 51.6577C41.6725 51.9963 42.0334 51.9762 42.5163 51.9755L48.2084 51.9684C49.2194 51.9674 50.048 52.7867 50.0548 53.8336L50.1104 59.1493C50.1104 60.0845 50.0364 60.8651 51.1378 61.2181L52.4844 61.2683C53.484 61.3325 54.4836 61.2321 55.4832 61.2559L56.816 61.2503C57.1443 61.2011 57.3175 61.1671 57.6211 60.892C58.2586 60.3145 58.0583 59.6354 58.0653 58.7549L58.1487 53.7529C58.1765 52.7297 59.0233 51.9128 60.0507 51.9336L66.1317 52.0285C67.0093 52.0341 67.5619 51.4384 67.645 50.5688L67.6589 49.4758L67.6867 45.1725C67.6867 44.3072 66.9874 43.5639 65.9653 43.5568L60.5507 43.5192L59.9259 43.4969C59.1069 43.4622 58.4682 42.7678 58.496 41.9439C58.5063 41.3312 58.4308 40.4307 58.5793 39.9798C58.6541 39.7523 58.7109 36.4365 58.7182 35.8631C58.7263 35.2314 58.6111 34.8781 58.1906 34.3408C57.8482 33.9033 57.2334 33.8244 56.719 33.8473C56.1563 33.8724 56.4154 33.7202 55.8861 33.7009L54.692 33.6606C54.0459 33.7227 52.9579 33.6862 52.318 33.5338C52.0126 33.461 51.7358 33.4301 51.4434 33.301C51.6358 33.2092 52.2816 33.1598 52.5402 33.1336C52.1768 33.0421 52.3543 33.0991 52.5819 32.8785C52.4839 32.7961 51.7671 32.787 52.2488 32.6777C52.9923 32.5088 55.6487 32.3046 56.6081 32.1897C58.6856 31.9412 60.4457 33.2929 60.8841 35.2273C61.0511 35.9633 61.2589 40.1712 61.2589 40.6838L64.7298 40.6351C65.3351 40.628 65.8067 40.5519 66.4095 40.6351C67.0859 40.7284 67.3435 40.6772 68.0895 41.038C69.5548 41.7468 70.485 43.0729 70.7133 44.6795L70.8105 49.6715L70.8242 50.3755ZM74.4895 79.0778L58.9541 79.0387C56.4142 79.0527 53.8661 79.1178 51.3322 79.0902C49.2358 79.0651 47.1396 79.1668 45.0153 79.0998C43.7659 79.062 42.4885 79.0942 41.2252 79.0915L23.4825 79.1221L27.7307 72.2425C29.7875 68.84 30.5907 65.5557 30.5907 61.6074L30.5768 58.3857C30.5907 56.5803 30.6046 54.7777 30.5907 52.9698C30.5629 49.5001 30.6184 46.0261 30.549 42.5576C30.4798 39.0354 30.3725 38.4021 30.9932 35.1454C31.1877 33.9005 31.4514 32.6723 31.979 31.4538L32.3538 30.3998L33.4923 28.0467C34.032 26.7597 36.1282 24.1935 36.9909 23.3265C38.5868 21.722 40.6211 19.9037 42.6274 18.8502L45.4596 17.5259C45.7371 17.4131 46.0149 17.2891 46.2508 17.1704C47.7775 16.3903 48.7299 16.2344 50.3741 15.8474C51.1623 15.662 51.188 15.5263 52.0816 15.4571C52.276 15.4388 52.5675 15.4165 52.6508 15.3775C53.0117 15.2228 53.5532 15.1992 54.1225 15.1251C53.1261 15.0399 52.8933 14.8918 52.4705 14.8561C51.929 14.8102 51.3737 14.7683 51.0683 14.6608L49.2775 14.7054C49.2775 14.6293 49.2221 14.503 49.2913 14.237C49.3348 14.0704 49.4527 14.1642 49.4441 14.0057C49.4358 13.8561 49.3247 13.4785 49.3886 13.3101C49.5535 12.876 49.5681 11.5007 49.6661 11.4183C49.8475 11.2659 49.7298 11.1 49.7495 10.9555L49.7773 9.89187L49.8606 7.82859C49.8722 7.49232 50.15 6.92883 50.4021 6.79848C50.8456 6.56897 50.9251 6.45384 51.4711 6.51115C52.7839 6.64936 53.9088 6.44801 54.4978 6.49873C54.7614 6.51952 55.0392 6.42062 55.3168 6.48478C55.5656 6.54361 56.9819 6.39729 57.441 6.62705C57.932 6.87253 58.2512 7.45859 58.2045 7.99876C58.1863 8.56682 58.2459 10.3539 58.3712 10.9347C58.4268 11.1117 58.5379 11.2846 58.5101 11.4713C58.5025 11.5747 58.5657 11.4396 58.5657 11.7611C58.5657 11.9985 58.7324 11.839 58.7324 12.8136C58.7324 13.2645 58.9331 13.4643 58.899 13.8145C58.825 14.5723 59.191 14.3471 59.2322 14.8629C59.2501 15.0861 59.4542 15.0229 59.4542 15.1946C58.2376 14.975 57.0309 14.8822 55.803 14.9075C54.8392 14.9273 56.3109 15.0747 56.4834 15.1611C56.3861 15.1918 56.3028 15.2225 56.2197 15.256C56.0517 15.2988 55.6605 15.2676 56.3583 15.4079C55.7492 15.401 54.6657 15.3475 54.1232 15.468C54.6783 15.6166 55.2337 15.6305 55.8866 15.7718C56.8978 15.9907 58.1164 16.1365 59.163 16.3853C60.8776 16.7928 61.2273 16.8331 62.8697 17.5214C63.7473 17.8891 63.4081 17.9096 64.3413 18.3118C65.6789 18.8883 67.5357 19.9313 68.659 20.8686C71.1083 22.9119 72.6138 24.6302 74.3372 27.3105C75.2156 28.6766 75.4237 29.195 76.0586 30.6088L76.489 31.7756C76.9792 33.9119 77.2754 34.077 77.6414 36.5253C77.9637 38.6821 77.9255 40.4877 77.919 42.6451L77.8217 62.1298C77.8217 65.6482 78.7991 69.0761 80.5983 72.0861L84.8882 79.1693L74.4895 79.0778ZM62.8275 82.97C62.6384 83.238 62.1838 84.4622 62.036 84.4923C61.8269 84.5349 61.8764 84.6747 61.786 84.8256C61.2278 85.7565 61.4135 85.5001 60.8281 86.228C60.3146 86.8663 59.1377 87.9141 58.3707 88.2187C57.7815 88.4528 57.2693 88.7492 56.5382 88.8809C55.9919 88.9792 54.2202 89.2795 53.8171 89.2225C53.5201 89.1804 53.3734 89.294 53.1231 89.1834C52.9842 89.1233 52.8456 89.1332 52.7066 89.1109C52.1768 89.0419 50.7332 88.5938 50.1798 88.2953C49.5366 87.9484 49.0247 87.5226 48.4723 87.0532C48.389 86.9834 48.2917 86.9388 48.2362 86.8579C47.9725 86.4897 47.8172 86.409 47.653 86.179L46.7229 85.0206C46.6673 84.9412 46.6534 84.8464 46.584 84.7807C46.5203 84.7231 46.2369 84.5261 46.2369 84.4016C46.0814 84.3369 46.1574 84.1513 45.9594 84.0419C45.8288 83.9699 45.6419 83.2167 45.3485 82.7595C46.2647 82.7595 47.1671 82.7567 48.0695 82.7567C48.9163 82.7567 49.7634 82.7248 50.6102 82.722L60.134 82.69C61.0642 82.6733 61.9666 82.6593 62.8967 82.6649L62.8275 82.97ZM88.6227 78.9342L83.8608 71.271C81.7459 67.8832 80.9645 65.542 80.9036 61.5432L80.862 53.1509C80.8342 51.7736 80.8759 50.3864 80.8203 49.0162C80.8064 48.8461 80.8064 48.6538 80.8203 48.4893C80.8771 47.6965 80.8099 46.0552 80.8064 45.1045L80.7786 40.4608C80.7786 35.6275 79.4265 30.6281 76.7802 26.5718C72.8825 20.597 66.9043 16.6201 59.9537 15.2882V15.2854C60.0974 15.242 60.0805 15.1462 60.3424 15.0749C60.6058 15.0031 61.1415 13.7369 61.2309 13.4717C61.4807 12.4956 61.5749 13.285 61.7862 11.3277L61.939 8.50469L61.9807 7.97365C61.9807 6.46297 61.5809 5.2282 60.4118 4.14001C58.5078 2.36761 57.0756 2.78605 54.9142 2.82815C54.8031 2.82815 54.7059 2.86289 54.5811 2.8672L52.7069 2.91741C51.1949 3.11674 50.1089 2.9235 48.6946 3.963C47.2189 5.04764 46.6294 6.7437 46.8481 8.509C46.862 8.69007 46.8203 8.87418 46.8898 9.05398C46.9095 9.15973 46.813 9.20158 46.8759 9.40116C46.957 9.65881 46.8807 11.1999 47.1257 12.0234L48.0836 14.8561C44.9752 15.3671 41.8576 16.5349 39.1982 18.2101C37.6705 19.1725 35.7564 20.6378 34.3946 21.9657C29.9509 26.391 27.166 32.9138 26.9534 39.2324C26.893 41.0223 26.9256 42.9005 26.9256 44.6942C26.9256 44.8727 26.9256 45.0525 26.9117 45.2252C26.8561 46.6679 26.87 48.1236 26.87 49.5747L26.8006 61.7266C26.8006 65.0695 25.9707 67.7668 24.2877 70.5607L21.3166 75.3953L18.4844 79.9846C17.7412 81.0604 18.4564 82.9482 20.1225 82.9428L43.1409 82.7643C43.0106 83.183 43.0974 83.5497 43.002 84.0245C42.8669 84.696 43.2505 85.7416 43.5157 86.3915C43.9258 87.3968 45.0563 89.0213 45.626 89.5894C46.4786 90.44 46.9643 90.8323 48.0278 91.4338C48.9163 91.9362 49.4848 92.1731 50.5268 92.4723L53.1648 92.8585L54.4003 92.8474L55.8163 92.6828L57.6767 92.1434C59.3746 91.5601 60.753 90.7514 61.9527 89.4738C62.1378 89.2767 63.1218 88.2121 63.1882 87.9834C63.2129 87.8533 63.2687 88.0108 63.4243 87.6585C63.7865 86.9533 64.0698 86.6933 64.4239 85.6957C64.7285 84.837 64.7444 83.5665 64.549 82.6733C72.4562 82.5447 80.2344 82.5609 88.1366 82.5338C89.2991 82.5275 90.0481 81.2197 89.4137 80.2015L88.6227 78.9342ZM87.1094 47.8885L87.0816 47.8439C87.0955 47.855 87.1094 47.8702 87.1094 47.8885ZM107.976 74.6821C107.764 73.6703 106.299 71.6118 105.866 70.6799C105.41 69.6984 102.834 66.1227 101.964 64.9531C101.114 63.8089 101.249 64.0224 103.075 61.9322C103.944 60.9379 104.645 60.2869 105.005 58.9517C105.552 56.9237 104.552 54.7503 102.742 53.7715L99.0631 51.6775C96.0463 49.9731 93.0523 48.4086 90.0668 46.6842C89.7893 46.5267 89.4976 46.3968 89.22 46.2421C88.3492 45.7479 87.6655 45.2252 86.6654 45.1869C84.0502 45.0867 82.6521 48.2286 84.2775 50.1666C86.6361 52.9785 88.7561 55.7685 91.0109 58.6702C91.3713 59.1335 91.5061 59.695 91.1359 60.1981L90.6361 60.806L88.9422 62.9124C88.2724 63.7232 87.9105 64.5801 87.9426 65.6921C87.9565 66.4615 88.1785 67.2576 88.6505 67.8611C89.27 68.6843 89.2546 68.6825 90.1777 69.2065L93.8011 71.2096C97.0785 73.0026 99.9874 74.0542 103.394 75.52C105.689 76.5073 104.644 75.8477 104.602 75.7277C104.944 75.6161 104.931 75.7356 104.769 75.5228C104.953 75.6009 105.414 75.8124 105.588 75.8043C105.192 75.1092 104.216 74.5688 103.561 74.2178L102.77 73.7132C102.438 73.508 102.661 73.4575 102.284 73.26C101.835 73.0251 100.924 72.6123 100.548 72.326C99.8432 71.7883 98.5092 70.974 97.7162 70.4704C97.4046 70.2726 96.2196 69.597 96.0779 69.4124C95.8115 69.0647 95.3816 68.9257 94.981 68.6889C94.8005 68.5801 94.634 68.4573 94.4535 68.3501L91.3991 66.5391C90.9904 66.284 90.8104 65.6695 91.0382 65.2635C91.5413 64.3663 93.1149 63.0012 93.9398 61.6766C94.8798 60.1672 94.7305 58.2551 93.7178 56.8266L88.8447 50.1726C88.9697 50.252 89.0947 50.3329 89.2334 50.4222C89.6082 50.6885 90.0386 50.9002 90.4411 51.1373L100.937 57.14C100.937 57.1867 101.852 57.6365 100.937 58.6499C100.666 58.9502 98.8795 61.0023 98.5906 61.4423C97.5167 63.0767 97.5306 64.9856 98.6739 66.5236L100.062 68.2217C100.409 68.5813 100.798 68.9019 101.09 69.3368C101.103 69.3563 101.131 69.3774 101.145 69.3926C101.606 69.8189 101.735 70.145 102.103 70.4214L103.589 72.1989C104.188 72.9947 105.016 73.7266 105.449 74.3403L106.088 75.1683C106.092 75.1713 106.55 75.2654 106.254 75.62C106.061 75.8512 106.177 75.958 105.949 75.9978C105.597 76.0592 106.052 76.1342 105.421 76.1023L105.824 76.5651C105.847 76.5796 106.412 76.8337 106.546 76.8063C107.565 76.629 108.127 75.692 107.976 74.6821ZM18.3733 69.3624C19.6939 68.5479 20.5314 67.3539 20.5809 65.7532C20.617 64.5813 20.2281 63.587 19.4841 62.7253L17.2212 59.9636C16.8827 59.2938 17.3717 58.8913 17.7071 58.4874L20.1089 55.4805C20.66 54.7957 24.348 50.4148 24.6766 49.5934C24.9256 48.9711 24.987 48.7685 24.968 48.0447C24.919 46.1567 22.9789 44.4951 20.8865 45.0601C19.9551 45.3114 17.9771 46.709 17.1242 47.1178L13.6811 49.0987L11.1821 50.5497C10.6545 50.8789 10.113 51.205 9.57153 51.534C8.1595 52.3724 6.53961 53.2409 5.17051 54.1115C3.168 55.3848 2.52272 58.547 4.14312 60.5326L6.58658 63.4614C6.58658 63.5129 6.99042 63.8713 6.69771 64.5222C6.54643 64.8588 5.68825 65.8869 5.53141 66.159C5.28163 66.5967 5.07327 67.0567 4.72626 67.4498C4.69848 67.468 4.68459 67.4929 4.68459 67.5167C4.64368 67.7188 4.18479 68.1434 3.93501 68.7003L2.58839 70.5934C1.92518 71.4308 1.58827 72.1971 0.991736 72.9341C0.660384 73.3434 0.0244504 74.0979 0.00601385 74.6558C-0.0495482 75.4977 0.283572 76.2854 0.852831 76.7941C1.27611 77.1938 1.59307 77.1332 2.21334 77.1844C2.56945 77.2138 2.56086 77.0979 2.85206 76.9448C2.96318 76.8849 3.07405 76.7984 3.18518 76.7203C2.59723 76.8339 2.66996 76.6863 2.4217 76.6158C2.04236 76.508 2.05903 76.2808 1.97746 76.171C1.67742 75.7673 1.57362 75.4034 1.89411 75.0529C1.9219 75.0321 1.96357 75.0138 1.99135 74.9915L3.4352 73.6016C3.82389 73.193 4.19868 72.7776 4.62903 72.4264C5.42054 71.7724 8.66334 67.8713 9.52986 66.7303C10.2734 65.7514 10.4461 64.8928 10.4461 63.6968C10.4461 62.0537 9.51395 61.1963 8.61359 60.0792L7.15584 58.2515C6.90985 57.9949 7.09043 57.3708 7.35031 57.2534C7.3642 57.2478 7.37809 57.2409 7.37809 57.2338L20.4561 49.384L14.8335 56.8101C13.5485 58.4595 13.5682 60.6275 14.9585 62.2051L15.375 62.7014C16.0483 63.4746 16.7853 64.2096 17.402 65.0282C17.7644 65.5699 17.4611 66.3948 17.3464 66.4684C17.0762 66.6413 17.1984 66.6842 16.7633 66.9367L13.223 69.0779C9.99885 71.0506 7.67333 73.0282 4.69874 75.2535C4.59872 75.3283 3.35919 76.2304 3.53244 76.2935C3.65745 76.2963 3.7961 76.1667 3.90723 76.2042C3.90723 76.4596 3.69054 76.5068 4.00446 76.4439C3.84737 76.5702 3.43142 76.8608 3.35186 77.0155C4.66111 77.0155 6.40525 75.4688 6.8505 75.5337C7.16595 75.5796 8.17061 74.6852 8.87751 74.3821L13.6255 71.9552C14.0842 71.8893 14.3782 71.6068 14.8057 71.3712C14.9863 71.2707 15.1805 71.1815 15.3611 71.0798L18.3733 69.3624Z" fill="#FF7510"/>
</svg>
