<svg width="30" height="33" viewBox="0 0 30 33" fill="none" xmlns="http://www.w3.org/2000/svg">
<path d="M18 18H20.25V22.23L23.91 24.345L22.785 26.295L18 23.535V18ZM24 10.5H3V27H10.005C9.36 25.635 9 24.105 9 22.5C9 19.7152 10.1062 17.0445 12.0754 15.0754C14.0445 13.1062 16.7152 12 19.5 12C21.105 12 22.635 12.36 24 13.005V10.5ZM3 30C2.20435 30 1.44129 29.6839 0.87868 29.1213C0.31607 28.5587 0 27.7956 0 27V6C0 4.335 1.335 3 3 3H4.5V0H7.5V3H19.5V0H22.5V3H24C24.7956 3 25.5587 3.31607 26.1213 3.87868C26.6839 4.44129 27 5.20435 27 6V15.15C28.86 17.04 30 19.635 30 22.5C30 25.2848 28.8938 27.9555 26.9246 29.9246C24.9555 31.8938 22.2848 33 19.5 33C16.635 33 14.04 31.86 12.15 30H3ZM19.5 15.225C17.5706 15.225 15.7201 15.9915 14.3558 17.3558C12.9915 18.7201 12.225 20.5706 12.225 22.5C12.225 26.52 15.48 29.775 19.5 29.775C20.4554 29.775 21.4014 29.5868 22.284 29.2212C23.1667 28.8556 23.9687 28.3197 24.6442 27.6442C25.3197 26.9687 25.8556 26.1667 26.2212 25.284C26.5868 24.4014 26.775 23.4554 26.775 22.5C26.775 18.48 23.52 15.225 19.5 15.225Z" fill="#FF7510"/>
</svg>
