<svg width="72" height="71" viewBox="0 0 72 71" fill="none" xmlns="http://www.w3.org/2000/svg">
<path fill-rule="evenodd" clip-rule="evenodd" d="M17.286 10.6235C20.907 4.30737 27.924 0 36 0C44.076 0 51.093 4.30737 54.714 10.6235C65.721 11.366 72 18.6761 72 27.4329C72 36.7547 64.11 44.3754 54.333 44.3754H17.667C7.89 44.3754 0 36.7547 0 27.4329C0 18.6761 6.279 11.366 17.286 10.6235ZM19.161 16.4781C20.346 16.4781 21.417 15.7917 21.9 14.7267C24.255 9.53184 29.691 5.91672 36 5.91672C42.309 5.91672 47.745 9.53184 50.1 14.7267C50.583 15.7917 51.654 16.4781 52.839 16.4781C60.996 16.4781 66 21.2351 66 27.4329C66 33.5448 60.744 38.4587 54.333 38.4587H17.667C11.256 38.4587 6 33.5448 6 27.4329C6 21.2351 11.004 16.4781 19.161 16.4781Z" fill="white"/>
<path fill-rule="evenodd" clip-rule="evenodd" d="M9.21632 52.1531L3.21632 66.9449C2.60132 68.4596 3.34832 70.1843 4.88732 70.7878C6.42332 71.3943 8.17232 70.6577 8.78432 69.14L14.7843 54.3482C15.3993 52.8336 14.6523 51.1088 13.1133 50.5053C11.5773 49.8989 9.82832 50.6355 9.21632 52.1531Z" fill="white"/>
<path fill-rule="evenodd" clip-rule="evenodd" d="M39.2163 52.1531L33.2163 66.9449C32.6013 68.4596 33.3483 70.1843 34.8873 70.7878C36.4233 71.3943 38.1723 70.6577 38.7843 69.14L44.7843 54.3482C45.3993 52.8336 44.6523 51.1088 43.1133 50.5053C41.5773 49.8989 39.8283 50.6355 39.2163 52.1531Z" fill="white"/>
<path fill-rule="evenodd" clip-rule="evenodd" d="M24.2163 52.1531L18.2163 66.9449C17.6013 68.4596 18.3483 70.1843 19.8873 70.7878C21.4233 71.3943 23.1723 70.6577 23.7843 69.14L29.7843 54.3482C30.3993 52.8336 29.6523 51.1088 28.1133 50.5053C26.5773 49.8989 24.8283 50.6355 24.2163 52.1531Z" fill="white"/>
<path fill-rule="evenodd" clip-rule="evenodd" d="M54.2163 52.1531L48.2163 66.9449C47.6013 68.4596 48.3483 70.1843 49.8873 70.7878C51.4233 71.3943 53.1723 70.6577 53.7843 69.14L59.7843 54.3482C60.3993 52.8336 59.6523 51.1088 58.1133 50.5053C56.5773 49.8989 54.8283 50.6355 54.2163 52.1531Z" fill="white"/>
<path fill-rule="evenodd" clip-rule="evenodd" d="M18.7503 16.6345C18.7503 16.6345 24.0003 18.8207 24.0003 23.6665C24.0003 25.2995 25.3443 26.6249 27.0003 26.6249C28.6563 26.6249 30.0003 25.2995 30.0003 23.6665C30.0003 15.2559 21.2043 11.2355 21.2043 11.2355C19.6923 10.5669 17.9163 11.2325 17.2383 12.7236C16.5633 14.2116 17.2383 15.9659 18.7503 16.6345Z" fill="white"/>
<path fill-rule="evenodd" clip-rule="evenodd" d="M50.796 11.2355C50.796 11.2355 42 15.2559 42 23.6665C42 25.2995 43.344 26.6249 45 26.6249C46.656 26.6249 48 25.2995 48 23.6665C48 18.8207 53.25 16.6345 53.25 16.6345C54.762 15.9659 55.437 14.2116 54.762 12.7236C54.084 11.2325 52.308 10.5669 50.796 11.2355Z" fill="white"/>
</svg>
