<svg width="75" height="77" viewBox="0 0 75 77" fill="none" xmlns="http://www.w3.org/2000/svg">
<path fill-rule="evenodd" clip-rule="evenodd" d="M30.4514 33.1362C23.9553 33.1286 14.843 33.9805 7.04177 37.8116C0.310313 41.1204 -1.99906 48.4556 1.88665 54.1832C5.77236 59.9109 14.396 61.8759 21.1275 58.5696C26.3333 56.0113 30.4812 50.9353 33.6279 47.3653V74.4645C33.6279 75.8641 34.9629 77 36.6077 77C38.2526 77 39.5876 75.8641 39.5876 74.4645V47.2106C42.8505 51.2066 47.3858 55.5017 53.2799 58.3972C60.0114 61.7034 68.6321 59.7384 72.5208 54.0108C76.4065 48.2831 74.0971 40.9455 67.3656 37.6392C59.0191 33.5393 49.1767 32.8522 42.636 32.9765C46.0777 28.2554 50.5683 20.441 50.5683 11.9852C50.5683 5.37015 44.257 0 36.4826 0C28.7112 0 22.3999 5.37015 22.3999 11.9852C22.3999 20.5374 26.9918 28.4354 30.4514 33.1362ZM33.6279 38.2883C33.6279 38.2883 26.0025 50.3191 18.1476 54.1781C14.2649 56.0848 9.29155 54.9515 7.04773 51.6477C4.80689 48.344 6.13888 44.1123 10.0216 42.2031C18.2042 38.1843 28.0526 38.0018 33.6279 38.2883ZM40.2223 38.1463C45.6813 37.8218 55.9231 37.875 64.3858 42.0307C68.2685 43.9399 69.6005 48.1716 67.3597 51.4753C65.1159 54.7791 60.1425 55.9124 56.2598 54.0057C47.8 49.8501 42.624 42.3273 40.2223 38.1463ZM36.4856 31.7341C33.4282 27.8725 28.3595 20.2991 28.3595 11.9852C28.3595 8.16932 31.9979 5.07096 36.4826 5.07096C40.9672 5.07096 44.6086 8.16932 44.6086 11.9852C44.6086 20.2991 39.5399 27.8725 36.4856 31.7341Z" fill="white"/>
</svg>
