<svg width="60" height="29" viewBox="0 0 60 29" fill="none" xmlns="http://www.w3.org/2000/svg">
<path d="M1.9679 26.0226C1.96648 26.1022 1.95083 26.17 1.93646 26.2385C1.93646 26.2385 1.93646 26.2386 1.93647 26.2386C1.93445 26.2484 1.93239 26.258 1.93045 26.2672C1.91489 26.3488 1.90672 26.3899 1.88545 26.3885C1.86018 26.4109 2.03926 26.566 2.1492 26.6547C2.17126 26.6726 2.19249 26.685 2.25977 26.7047C2.30238 26.7172 2.36345 26.7322 2.45548 26.7512C2.50467 26.7613 2.56291 26.7725 2.63201 26.7848C2.80557 26.816 3.06612 26.8385 3.34131 26.8536C3.42741 26.8584 3.51941 26.8628 3.60555 26.8665C3.82331 26.8761 4.03295 26.8829 4.18975 26.8911C4.4206 26.9031 4.64606 26.9232 4.88833 26.9438C5.11079 26.9626 5.35142 26.9821 5.62992 26.9953C5.84191 27.0054 6.05079 27.0597 6.26018 27.1195C6.28698 27.1271 6.31399 27.1348 6.34109 27.1425C6.52658 27.1957 6.71668 27.2499 6.92358 27.2817C7.2913 27.3383 7.58545 27.3187 7.9109 27.2964C8.03893 27.2877 8.17023 27.2786 8.31398 27.2734C8.54065 27.2652 8.86635 27.2682 9.19389 27.2715C9.22171 27.2718 9.2496 27.2721 9.27745 27.2723C9.27759 27.2723 9.27773 27.2723 9.27787 27.2723C9.5777 27.2754 9.87161 27.2782 10.0876 27.273C10.4308 27.2647 10.5596 27.2446 10.6673 27.2278C10.7077 27.2215 10.7452 27.2155 10.7898 27.211C10.9509 27.1945 11.1935 27.1975 11.4397 27.2006C11.4406 27.2006 11.4416 27.2006 11.4425 27.2006C11.4834 27.2011 11.5164 27.2576 11.5162 27.3267C11.516 27.3959 11.4827 27.4515 11.4418 27.451C11.3114 27.4494 11.1843 27.4478 11.0702 27.4489C11.0643 27.5083 11.0336 27.5533 10.9969 27.5528C10.905 27.5516 10.6228 27.5964 10.1816 27.6692C10.2118 27.68 10.2371 27.6906 10.2593 27.7006C10.2854 27.7124 10.3055 27.7225 10.3226 27.7312C10.3582 27.7493 10.382 27.7612 10.4242 27.7699C10.522 27.7799 10.6757 27.782 10.8375 27.7841C10.8783 27.7846 10.9114 27.841 10.9112 27.9101C10.911 27.9792 10.8776 28.0349 10.8367 28.0344C10.8359 28.0344 10.8351 28.0344 10.8343 28.0344C10.6741 28.0323 10.5154 28.0302 10.4132 28.0196C10.3872 28.0169 10.3649 28.0137 10.3481 28.0107C10.3347 28.0084 10.3179 28.0053 10.3086 28.0012C10.3074 28.0007 10.305 27.9996 10.3022 27.9979C10.3021 27.9979 10.3021 27.9978 10.302 27.9978C10.3004 27.9969 10.2924 27.9922 10.2838 27.982C10.2821 27.98 10.2783 27.9754 10.2739 27.968C10.2728 27.9674 10.2717 27.9668 10.2705 27.9663C10.2548 27.9584 10.2387 27.9503 10.2214 27.9424C10.1534 27.9118 10.0464 27.8732 9.82261 27.8321C9.61692 27.7943 9.26959 27.777 8.83566 27.7754C8.86497 27.7806 8.89414 27.7857 8.92345 27.7906C8.99712 27.803 9.07155 27.8142 9.14589 27.8249C9.17422 27.829 9.2022 27.833 9.23075 27.837C9.2767 27.8433 9.32286 27.8496 9.36909 27.8557C9.40032 27.8598 9.4317 27.8639 9.46274 27.8679C9.46281 27.8679 9.46288 27.8679 9.46295 27.8679C9.50614 27.8736 9.54951 27.8793 9.59327 27.8851C9.60859 27.8873 9.62374 27.8894 9.63878 27.8914C9.69875 27.8995 9.75738 27.9074 9.8249 27.9225C9.83312 27.925 9.84204 27.9283 9.8487 27.931C9.85587 27.9338 9.86276 27.9367 9.86928 27.9397C9.87503 27.9423 9.88051 27.9449 9.88577 27.9474C9.88647 27.9477 9.88718 27.948 9.88788 27.9484C9.89377 27.9511 9.89939 27.9537 9.9048 27.9561C9.9102 27.9585 9.9154 27.9608 9.92053 27.9628C9.92058 27.9628 9.92062 27.9628 9.92067 27.9628C9.92603 27.9649 9.93009 27.9664 9.93577 27.9682C9.9429 27.9704 9.94903 27.9721 9.95645 27.9738C9.96363 27.9755 9.97113 27.977 9.9787 27.9782C9.98626 27.9795 9.99397 27.9807 10.0018 27.9817C10.0096 27.9827 10.0176 27.9837 10.0256 27.9845C10.0335 27.9854 10.0416 27.9861 10.0498 27.9869C10.0579 27.9876 10.0661 27.9884 10.0744 27.9891C10.0934 27.9907 10.1117 28.0046 10.1251 28.0282C10.1384 28.0517 10.1459 28.0829 10.1458 28.1151C10.1457 28.1473 10.138 28.1783 10.1244 28.2015C10.1109 28.2247 10.0925 28.2382 10.0735 28.2393C10.0683 28.2396 10.0631 28.24 10.0578 28.2403C10.0547 28.2405 10.0516 28.2406 10.0485 28.2408C10.0401 28.2412 10.0316 28.2417 10.0231 28.2421C10.0146 28.2424 10.0059 28.2427 9.99717 28.2428C9.98841 28.2429 9.97953 28.243 9.97052 28.2428C9.96154 28.2426 9.95237 28.2421 9.94304 28.2414C9.93395 28.2407 9.92358 28.2395 9.91431 28.238C9.90754 28.2369 9.89919 28.2351 9.89223 28.2334C9.88496 28.2317 9.87782 28.2298 9.87093 28.2278C9.86403 28.2258 9.85735 28.2236 9.85098 28.2216C9.8503 28.2214 9.84962 28.2212 9.84894 28.221C9.8433 28.2193 9.83787 28.2175 9.83273 28.216C9.82699 28.2143 9.82155 28.2128 9.81639 28.2116C9.8107 28.2102 9.80724 28.2096 9.80301 28.209C9.74706 28.2049 9.67759 28.2057 9.61134 28.2063C9.60303 28.2064 9.59475 28.2065 9.58657 28.2065C9.54311 28.207 9.4998 28.2077 9.45658 28.2084C9.42527 28.2089 9.39351 28.2094 9.3619 28.2098C9.31534 28.2104 9.26873 28.2109 9.22224 28.2112C9.19337 28.2114 9.16506 28.2115 9.13632 28.2115C9.06075 28.2116 8.98506 28.211 8.90957 28.2093C8.83451 28.2076 8.75772 28.2048 8.68178 28.2C8.60608 28.1954 8.52753 28.1884 8.45123 28.1781C8.39526 28.1703 8.33809 28.1569 8.28535 28.1431C8.25706 28.1357 8.22883 28.1282 8.20134 28.1207C8.20124 28.1206 8.20115 28.1206 8.20106 28.1205C8.17688 28.1139 8.15305 28.1074 8.12942 28.1011C8.07872 28.0877 8.02923 28.0757 7.97954 28.0655C7.92958 28.0553 7.87998 28.047 7.83014 28.0405C7.78058 28.034 7.73093 28.0293 7.68071 28.0262C7.63037 28.0231 7.58109 28.0216 7.52947 28.0213C7.46179 28.0211 7.39409 28.0228 7.32454 28.0248C7.2554 28.027 7.18713 28.0298 7.11686 28.0325C7.09241 28.0335 7.06796 28.0344 7.04353 28.0354C7.04344 28.0354 7.04334 28.0354 7.04325 28.0354C6.99805 28.0372 6.95291 28.039 6.9079 28.0407C6.83784 28.0434 6.76718 28.0458 6.69709 28.0476C6.62746 28.0493 6.55553 28.0505 6.48452 28.0503C6.41349 28.0501 6.34063 28.0487 6.26678 28.0435C6.20092 28.0391 6.13631 28.0334 6.071 28.0278C6.05385 28.0263 6.03674 28.0248 6.01965 28.0233C5.93842 28.0162 5.86152 28.0103 5.78304 28.0081C5.70497 28.0057 5.62948 28.0068 5.54994 28.0106C5.4711 28.0145 5.39426 28.0209 5.31306 28.0288C5.23199 28.0368 5.15525 28.0463 5.07281 28.0566C4.99172 28.0669 4.91318 28.0781 4.82995 28.0897C4.78425 28.0962 4.73603 28.1019 4.69084 28.1066C4.64488 28.1113 4.59808 28.1153 4.553 28.1189C4.53465 28.1203 4.51645 28.1216 4.49843 28.123C4.47219 28.125 4.44623 28.127 4.41989 28.129C4.3758 28.1325 4.33313 28.1363 4.29194 28.141C4.2511 28.1458 4.21036 28.1515 4.171 28.1589C4.13037 28.1665 4.09705 28.1746 4.05737 28.1864C3.96006 28.2083 3.8988 28.2135 3.83312 28.2194C3.82038 28.2206 3.80622 28.2218 3.79211 28.2231C3.71045 28.2292 3.63298 28.2328 3.55197 28.2341C3.47221 28.2354 3.39305 28.2347 3.31319 28.232C3.29307 28.2313 3.27304 28.2305 3.25312 28.2296C3.19273 28.2267 3.13342 28.2229 3.07511 28.218C2.99301 28.2112 2.91648 28.2029 2.8338 28.1919C2.75442 28.1812 2.66935 28.1677 2.59134 28.1527C2.54444 28.1439 2.49471 28.1331 2.44979 28.1224C2.41725 28.1146 2.38302 28.1062 2.35116 28.098C2.33805 28.0946 2.32509 28.0913 2.31231 28.0879C2.26846 28.0764 2.22253 28.0645 2.18073 28.054C2.13975 28.0435 2.09502 28.0332 2.05434 28.0247C2.01395 28.0162 1.97072 28.0084 1.92882 28.002C1.88576 27.9955 1.84768 27.9905 1.79896 27.9851C1.76723 27.9816 1.73665 27.9781 1.70383 27.9735C1.65528 27.9667 1.60892 27.9597 1.55762 27.95C1.50765 27.9407 1.45775 27.9302 1.40517 27.9172C1.38846 27.9131 1.37082 27.9086 1.35406 27.9041C1.30055 27.8897 1.24762 27.8737 1.19246 27.8545C1.13664 27.8349 1.08246 27.8139 1.02473 27.788C0.968109 27.7628 0.910405 27.7338 0.852007 27.7005C0.751973 27.6435 0.662763 27.5676 0.592459 27.4932C0.520974 27.4177 0.462465 27.3392 0.412378 27.26C0.402888 27.245 0.394066 27.2306 0.38525 27.2157C0.347368 27.1516 0.315038 27.0874 0.286958 27.0248C0.252132 26.9471 0.22397 26.8724 0.199843 26.8001C0.175791 26.7277 0.155643 26.6571 0.13799 26.5888C0.120189 26.5196 0.105732 26.4569 0.0914119 26.3898C0.0775364 26.3254 0.0632265 26.2578 0.0500463 26.1896C0.0368952 26.1188 0.025494 26.0509 0.0172656 25.979C0.00892681 25.9102 0.00376195 25.8388 0.00143051 25.7725C-2.85506e-05 25.7315 -0.000356913 25.6901 0.000361741 25.6485C0.000680983 25.6241 0.00138372 25.5995 0.0024488 25.575C0.00530225 25.5102 0.0103258 25.448 0.0171212 25.3865C0.0240852 25.3236 0.0326418 25.2633 0.0425045 25.2049C0.0583861 25.111 0.0761466 25.0194 0.0948689 24.9301C0.113705 24.8402 0.133657 24.752 0.154705 24.6635C0.175559 24.5761 0.197447 24.4885 0.219729 24.4031C0.242058 24.3175 0.265281 24.2315 0.288743 24.1471C0.293963 24.1283 0.299224 24.1094 0.304525 24.0905C0.323003 24.0247 0.341567 23.96 0.360628 23.8941C0.360777 23.8937 0.360927 23.8932 0.361077 23.8928C0.38509 23.81 0.409468 23.7271 0.433441 23.6452C0.442201 23.6151 0.450675 23.5862 0.459171 23.5566C0.467643 23.527 0.476036 23.4973 0.484084 23.4683C0.492144 23.4393 0.500004 23.4103 0.507527 23.3815C0.515116 23.3524 0.522317 23.3239 0.529146 23.2949C0.535503 23.2681 0.540964 23.2426 0.547248 23.2139C0.547817 23.2113 0.548387 23.2086 0.548957 23.206C0.5558 23.1748 0.564377 23.1393 0.573907 23.1065C0.599332 23.0199 0.62297 22.9371 0.646827 22.8506C0.670176 22.7659 0.693373 22.6792 0.71604 22.5936C0.724915 22.5601 0.73377 22.5263 0.742762 22.4925C0.756804 22.4396 0.770836 22.3871 0.785186 22.3346C0.808868 22.2478 0.833536 22.161 0.85974 22.0746C0.88604 21.9879 0.913742 21.9023 0.943292 21.8167C0.972975 21.7307 1.00395 21.6466 1.03665 21.5624C1.07295 21.4691 1.10987 21.3771 1.14758 21.2844C1.18499 21.1926 1.22344 21.0995 1.26157 21.0087C1.29997 20.917 1.33877 20.8253 1.37774 20.7343C1.41686 20.6428 1.45611 20.552 1.49578 20.461C1.51957 20.4063 1.54336 20.3522 1.56729 20.2979C1.57104 20.2663 1.57453 20.236 1.57798 20.2069C1.60335 19.992 1.62196 19.8367 1.66412 19.6374C1.66708 19.618 1.66773 19.6017 1.66856 19.5818C1.66872 19.578 1.66895 19.574 1.66913 19.5699C1.67032 19.544 1.67233 19.5144 1.68023 19.4748C1.69602 19.3958 1.7349 19.2798 1.83858 19.1467C1.86476 19.1131 1.93598 19.1091 1.9977 19.1378C2.04099 19.1579 2.06809 19.1888 2.0714 19.217C2.09355 19.1739 2.11601 19.131 2.13839 19.0882C2.14733 19.0711 2.16754 19.0588 2.19492 19.0542C2.2223 19.0497 2.25451 19.0531 2.28484 19.0639C2.31518 19.0747 2.34134 19.0921 2.35796 19.1123C2.37456 19.1326 2.38022 19.154 2.37395 19.172C2.35724 19.2198 2.34057 19.2674 2.32431 19.3151C2.30802 19.3629 2.2922 19.4107 2.27664 19.4586C2.26107 19.5066 2.24588 19.5545 2.23082 19.6028C2.21584 19.6509 2.20102 19.6991 2.18642 19.7475C2.17172 19.7962 2.15755 19.8441 2.14318 19.8928C2.13459 19.922 2.12589 19.9515 2.11747 19.9805C2.11431 19.9913 2.11132 20.0018 2.10827 20.0124C2.10577 20.021 2.10322 20.0296 2.10063 20.0386C2.07345 20.1326 2.04638 20.2275 2.01983 20.3217C1.99304 20.4167 1.96679 20.5107 1.94045 20.6059C1.91419 20.7008 1.88834 20.7954 1.8625 20.8905C1.83681 20.9852 1.81116 21.0804 1.78589 21.1754C1.76086 21.2697 1.73543 21.366 1.71101 21.4607C1.69194 21.5344 1.67332 21.6078 1.65518 21.6809C1.65283 21.7109 1.65006 21.7412 1.6473 21.7707C1.63917 21.8569 1.63666 21.9435 1.63399 22.0303C1.66582 21.8847 1.68369 21.7657 1.70072 21.6526C1.70301 21.6374 1.70526 21.6224 1.70757 21.6073C1.73124 21.4534 1.75683 21.3059 1.81961 21.1167C1.99886 20.5774 2.10652 20.2671 2.18356 20.0763C2.26059 19.8861 2.31001 19.8092 2.37997 19.7454C2.4789 19.655 2.58297 19.4533 2.61842 19.3466C2.63129 19.3078 2.69511 19.2935 2.76091 19.3146C2.82672 19.3358 2.86967 19.3844 2.8568 19.4232C2.81938 19.5358 2.70914 19.7548 2.59147 19.8623C2.5391 19.91 2.49576 19.9707 2.41998 20.1578C2.34419 20.3456 2.23766 20.6527 2.05841 21.192C1.99801 21.3739 1.97333 21.5154 1.94997 21.6674C1.9477 21.6822 1.9455 21.6972 1.94323 21.7123C1.94321 21.7124 1.94318 21.7125 1.94315 21.7126C1.92227 21.8515 1.89962 22.0032 1.85091 22.202C1.73754 22.6603 1.61021 23.2818 1.5962 23.4331C1.59324 23.4628 1.59118 23.4916 1.58904 23.5219C1.5808 23.6391 1.56994 23.7799 1.51239 24.0869C1.50017 24.1529 1.48317 24.2329 1.46461 24.3168C1.46754 24.4522 1.47059 24.5822 1.46616 24.6923C1.462 24.7889 1.47405 24.8776 1.48959 24.9671C1.49415 24.9925 1.49921 25.0179 1.50435 25.043C1.51667 25.1039 1.52921 25.1661 1.53779 25.2229C1.54441 25.2694 1.55382 25.3186 1.56453 25.3686C1.59115 25.4976 1.62425 25.6392 1.63844 25.7954C1.64473 25.866 1.64772 25.9372 1.64589 26.0089C1.63798 26.2618 1.66009 26.4216 1.68 26.488C1.67071 26.4333 1.67397 26.361 1.68268 26.2943C1.6843 26.2818 1.68604 26.2692 1.68784 26.2567C1.70109 26.1695 1.71635 26.0981 1.71773 26.0163C1.71924 25.9409 1.72291 25.8697 1.72664 25.8033C1.74338 25.5356 1.74625 25.3881 1.72381 25.2246C1.71665 25.1716 1.70617 25.109 1.69487 25.0446C1.67301 24.912 1.65005 24.7606 1.65452 24.6002C1.65835 24.4521 1.6555 24.2812 1.6545 24.1009C1.65451 24.1008 1.65453 24.1008 1.65455 24.1007C1.65437 24.0654 1.65433 24.0294 1.65449 23.9929C1.65466 23.7732 1.66049 23.541 1.6861 23.3191C1.68879 23.2955 1.69143 23.267 1.69452 23.2342C1.71219 23.0448 1.74533 22.7115 1.89489 22.3354C1.92794 22.2521 1.97023 22.1703 2.01947 22.0747C2.03441 22.0458 2.04991 22.0162 2.06589 21.9848C2.13502 21.8492 2.2152 21.684 2.30273 21.4582C2.37493 21.272 2.45367 21.0413 2.53595 20.8027C2.57662 20.6847 2.61801 20.5653 2.65999 20.4474C2.78668 20.0918 2.91256 19.7687 3.03835 19.446C3.03837 19.446 3.03839 19.4459 3.03841 19.4458C3.05327 19.4077 3.11843 19.3949 3.18382 19.4172C3.24918 19.4395 3.29016 19.4885 3.27533 19.5266C3.14948 19.8494 3.02395 20.1713 2.89782 20.5253C2.85651 20.6413 2.81551 20.7596 2.77505 20.877C2.69248 21.1164 2.61283 21.3498 2.5401 21.5373C2.45132 21.7662 2.36972 21.9343 2.29988 22.0711C2.28307 22.104 2.2672 22.1344 2.25191 22.1641C2.2034 22.2582 2.16371 22.3345 2.13245 22.4133C1.98815 22.776 1.95644 23.0951 1.93887 23.2839C1.9357 23.3175 1.93295 23.3469 1.93013 23.3717C1.90529 23.5881 1.89997 23.8143 1.89987 24.0326C1.89999 24.0675 1.89985 24.1037 1.90009 24.1384C1.90011 24.1385 1.90014 24.1386 1.90016 24.1387C1.90153 24.3168 1.90444 24.4897 1.90096 24.638C1.89684 24.7911 1.91804 24.9255 1.93933 25.0513C1.95089 25.1182 1.96251 25.1821 1.97076 25.244C1.99489 25.4136 1.99173 25.5671 1.97595 25.8257C1.9725 25.8885 1.96922 25.9547 1.9679 26.0226ZM2.03746 19.2838C1.97775 19.3681 1.94719 19.4424 1.93111 19.5C1.95326 19.4538 1.97568 19.4079 1.99838 19.362C2.0113 19.3359 2.02433 19.3099 2.03746 19.2838ZM1.21834 24.2715C1.21795 24.2552 1.21758 24.2388 1.21723 24.2222C1.20904 24.2655 1.20067 24.3096 1.19249 24.3535C1.18241 24.4077 1.17291 24.4597 1.16301 24.5146C1.18262 24.4291 1.20115 24.3488 1.21834 24.2715ZM1.39561 26.002C1.39765 25.923 1.39463 25.8472 1.38801 25.773C1.37446 25.6261 1.3446 25.4932 1.31903 25.3668C1.30808 25.3124 1.29781 25.2606 1.29067 25.2074C1.28776 25.185 1.28394 25.1642 1.27995 25.1421C1.25493 25.2623 1.23363 25.3735 1.21788 25.4632C1.19743 25.5798 1.18068 25.6744 1.16618 25.7531C1.14668 25.8614 1.13105 25.9424 1.11859 26.0187C1.11231 26.0586 1.10699 26.0933 1.103 26.1328C1.11197 26.1648 1.12138 26.1951 1.13058 26.2276C1.14355 26.2729 1.1577 26.3189 1.17203 26.3623C1.1862 26.4044 1.20166 26.4479 1.21753 26.4874C1.23355 26.5275 1.25046 26.5654 1.26829 26.6001C1.28543 26.6337 1.30326 26.6641 1.3224 26.692C1.32349 26.6936 1.32458 26.6951 1.32567 26.6967C1.34595 26.7257 1.36754 26.7514 1.39005 26.7722C1.41298 26.7933 1.43463 26.8078 1.45696 26.817C1.48457 26.8283 1.51343 26.8387 1.54165 26.8474C1.57039 26.8564 1.59874 26.864 1.62836 26.8713C1.65744 26.8783 1.68769 26.8849 1.71777 26.8906C1.72752 26.8924 1.73788 26.8943 1.74788 26.8961C1.75248 26.8969 1.75713 26.8977 1.76179 26.8985C1.7069 26.8737 1.65599 26.8451 1.61236 26.8126C1.54883 26.7652 1.50367 26.709 1.47071 26.6361C1.41428 26.5146 1.38671 26.3098 1.39561 26.002ZM2.81113 27.0852C2.77738 27.0826 2.73115 27.0801 2.66849 27.0758C2.65373 27.0748 2.63828 27.0738 2.62229 27.0726C2.62266 27.0727 2.62304 27.0727 2.62341 27.0728C2.66201 27.0837 2.69978 27.0933 2.73798 27.1024C2.80806 27.1187 2.87697 27.1329 2.94735 27.1455C3.01939 27.1583 3.0876 27.169 3.1604 27.1786C3.21211 27.1855 3.26519 27.1916 3.3193 27.197C3.33762 27.1988 3.35606 27.2005 3.37458 27.2022C3.44641 27.2085 3.51867 27.2134 3.59015 27.2164C3.61315 27.2174 3.63641 27.2182 3.65984 27.2188C3.60794 27.2098 3.55484 27.2017 3.49986 27.193C3.45448 27.186 3.40738 27.1786 3.3591 27.1702C3.3479 27.1682 3.33534 27.1657 3.32149 27.1629C3.31207 27.161 3.30209 27.1589 3.29156 27.1568C3.18676 27.1349 3.02409 27.101 2.81113 27.0852ZM4.23914 27.176C4.25607 27.175 4.27347 27.1742 4.28954 27.1735C4.33605 27.1718 4.38179 27.1714 4.42704 27.1715C4.45878 27.1715 4.49065 27.1719 4.52079 27.172C4.53365 27.1721 4.54653 27.1722 4.55932 27.1722C4.58074 27.1723 4.6021 27.1723 4.62339 27.1722C4.47554 27.1599 4.33116 27.149 4.17904 27.1411C4.17705 27.141 4.17504 27.141 4.17303 27.1409C4.19545 27.1529 4.21748 27.1646 4.23914 27.176Z" fill="white"/>
<path d="M4.99101 22.7431C5.26722 22.3828 5.57028 22.0601 5.95286 21.7807C6.03953 21.7174 6.08672 21.784 6.12863 21.7642C6.20526 21.7281 6.24917 21.5713 6.26299 21.5589C6.35101 21.4786 6.4119 21.6141 6.42752 21.6075C6.59943 21.5302 6.45348 21.4446 6.57061 21.319C6.72438 21.1542 6.95994 20.9826 7.1698 20.8083C7.24437 20.7469 7.28275 20.8549 7.43225 20.7119C7.53707 20.611 7.79797 20.2256 8.04042 20.1887C8.07313 20.2247 8.08861 20.282 8.11329 20.327C8.20626 19.9811 8.29277 19.9198 8.64719 19.6879C8.70237 19.652 8.6997 19.5469 8.8086 19.4965C8.91682 19.4468 9.00537 19.5379 9.18342 19.3898C9.24632 19.3372 9.2321 19.2335 9.32643 19.152C9.57415 18.9375 10.089 18.6384 10.3645 18.4477C10.3951 18.4266 10.4227 18.4067 10.4466 18.3884C10.9105 18.033 11.0722 17.72 11.5167 17.4448C11.5511 17.4232 11.5391 17.5522 11.5986 17.509C11.6576 17.4661 11.6416 17.32 11.6543 17.3066C11.7924 17.1608 12.2242 17.0446 12.2993 16.9626C12.4805 16.7643 12.2373 16.878 12.5195 16.6372C12.7838 16.4116 13.2738 16.2491 13.5687 16.0707C13.9146 15.8609 13.8825 15.5986 14.2691 15.6154C15.1205 14.9781 15.9848 14.3534 16.8502 13.738C16.8745 13.7778 16.8983 13.8178 16.9221 13.858C16.9725 13.7836 17.0233 13.7091 17.0747 13.635C17.084 13.6705 17.0938 13.7057 17.103 13.741C17.3496 13.4075 17.6017 13.1522 18.0045 12.922C18.0123 12.9175 18.0445 13.0061 18.052 13.0039C18.1473 12.9598 18.2036 12.8367 18.2887 12.7989C18.4954 12.7066 18.9149 12.662 18.6427 12.554C19.0981 12.307 19.5551 11.9058 19.9912 11.6746C20.1793 11.5748 20.3102 11.657 20.3996 11.6079C20.4891 11.5588 20.3795 11.4867 20.407 11.4631C20.5723 11.323 20.8755 11.1326 20.9797 11.2246C20.9868 11.1562 20.9958 11.086 21.0034 11.0171C21.0624 11.1552 21.591 10.7417 21.7412 10.6509C21.7686 10.6342 21.8072 10.686 21.8272 10.6724C22.0503 10.5203 22.0507 10.401 22.2285 10.2494C22.2909 10.1962 22.2448 10.3584 22.3951 10.2062C22.4082 10.193 22.3455 10.1127 22.5565 9.9816C22.8788 9.78061 23.4616 9.37844 23.8889 9.16511C23.9091 9.15497 23.9291 9.14525 23.9486 9.136C23.9836 9.11918 23.9396 9.27227 24.0774 9.15895C24.1275 9.11808 24.0612 9.06875 24.1939 8.98774C24.7082 8.67339 25.3043 8.41895 25.7984 8.04746C25.8219 8.13144 25.6816 8.32364 25.9382 8.1118C25.9792 8.07775 25.907 8.03268 25.926 8.01838C26.0802 7.90336 26.2504 7.86654 26.4151 7.73832C26.4636 7.70033 26.4472 7.64202 26.5064 7.59206C26.5938 7.51822 26.6788 7.56571 26.7746 7.47027C26.9243 7.32084 26.9131 7.2371 27.2103 7.24619C28.4555 6.5312 29.6974 5.81627 31.0052 5.22648C31.3556 5.00218 31.6775 4.79062 32.0594 4.58747C32.1721 4.52775 32.2372 4.60507 32.4056 4.48787C32.4428 4.4617 32.691 4.22748 32.8189 4.38477C32.893 4.33076 32.9442 4.30589 33.0097 4.26344C32.9442 4.26247 32.8769 4.26206 32.8133 4.25989C33.122 4.14855 33.3359 3.97287 33.5857 3.82307C33.7704 3.71273 33.6672 3.8513 33.783 3.78937C33.899 3.72781 33.9458 3.68635 34.1359 3.70967C34.206 3.55292 34.3176 3.5908 34.5355 3.49793C34.5588 3.48788 34.6754 3.38855 34.7924 3.34735C34.8763 3.31783 34.9288 3.3719 35.0534 3.30627C35.0736 3.29551 35.3123 3.09881 35.397 3.05488C35.5285 2.98585 35.7791 2.97866 35.806 2.96866C36.1956 2.82448 36.3105 2.68479 36.638 2.7088C36.6613 2.60764 36.8711 2.47159 37.0603 2.4078C37.2982 2.32699 37.8302 2.31136 37.8308 2.11884C38.1314 2.09488 38.0853 2.05826 38.4087 1.94191C38.7046 1.83383 39.512 1.63499 39.7523 1.55019C39.9916 1.46443 39.8438 1.40883 39.9362 1.36628C40.0874 1.29687 40.0237 1.39182 40.1319 1.35748C40.4378 1.26072 40.7007 1.16934 40.9868 1.05702C41.0163 1.10044 41.047 1.14377 41.077 1.18702C41.0876 1.16683 41.0981 1.14666 41.1087 1.1265C41.1138 1.12512 41.119 1.12371 41.1242 1.12229C41.1838 1.10598 41.2482 1.08749 41.3026 1.07408C40.7469 1.00038 41.7865 0.95758 42.0807 0.893118C42.3296 0.834959 42.72 0.639205 42.9917 0.558996C43.0572 0.539396 43.0227 0.600238 43.0361 0.596115C43.193 0.547314 43.2112 0.506878 43.4298 0.467567C43.5457 0.447025 43.6743 0.487941 43.7878 0.467633C44.6132 0.32013 45.4039 0.140676 46.2405 0.0614348C46.3832 0.0480215 46.511 0.1143 46.6299 0.107662C46.8014 0.0982535 46.9053 0.0306167 47.0652 0.0222415C47.2273 0.0136565 47.4596 0.0798556 47.5677 0.0667787C47.6767 0.0539332 47.4879 -0.0136766 47.6887 0.00271747C47.7806 0.0105547 47.6196 0.0648857 47.7328 0.0651726C48.0824 0.0650449 48.5867 0.0127375 48.958 0.100586C48.9423 0.0841441 48.9203 0.0688586 48.9007 0.052888C49.303 0.0846775 49.6512 0.156247 50.0616 0.221624C50.204 0.24396 50.4708 0.244789 50.6112 0.273188C50.7526 0.301336 50.8065 0.361651 50.9173 0.387584C50.9628 0.398498 50.954 0.352921 50.9849 0.360894C51.3699 0.463698 51.5572 0.592691 51.9523 0.71416C52.955 1.0275 53.9381 1.5318 54.7694 2.23608C55.1345 2.54398 55.4695 2.88499 55.7741 3.24637C55.8142 3.29401 55.8799 3.29543 55.9417 3.36255C56.0369 3.46657 56.0054 3.49958 56.0156 3.51531C56.0809 3.61899 56.0849 3.5549 56.1806 3.68736C56.3949 3.98105 56.6723 4.49075 56.8463 4.80118C57.2516 5.51689 57.5646 6.12895 57.8711 6.87011C57.8931 6.92334 57.828 6.90684 57.8626 6.99999C58.1007 7.65992 58.2002 7.7847 58.4436 8.62157C58.6898 9.45874 59.0577 11.0551 59.2653 12.0448C59.2652 12.0448 59.265 12.0448 59.2649 12.0449C59.4228 12.3358 59.4861 12.7444 59.491 13.0933C58.8621 11.2149 58.5377 9.35047 57.8129 7.36206C57.1453 5.55799 56.063 3.74228 54.5574 2.48143C54.3298 2.28942 54.0938 2.11073 53.8517 1.94392C53.679 1.82611 53.6414 1.7262 53.4811 1.64731C53.4541 1.63425 53.4954 1.71694 53.4134 1.67532C52.2961 1.10537 51.0176 0.627789 49.7758 0.511636C49.4434 0.481818 49.3826 0.538168 49.0921 0.532013C49.1454 0.50682 49.1812 0.479302 49.2282 0.453957C47.8941 0.255549 46.5301 0.374407 45.1804 0.551625C45.1197 0.559516 45.1028 0.497606 45.0385 0.504541C44.91 0.518213 44.797 0.606886 44.6864 0.62727C44.5423 0.653934 44.5086 0.6078 44.3748 0.634194C44.3096 0.64732 44.337 0.692301 44.194 0.709563C44.1821 0.711029 44.1651 0.661302 44.0721 0.68523C43.8162 0.749901 43.2985 0.901436 43.0909 0.96241C42.8241 1.03909 42.5892 1.01347 42.4858 1.03296C42.2059 1.0866 42.2317 1.16527 42 1.22481C41.7345 1.29361 41.4746 1.36174 41.2119 1.43189C39.842 1.79901 38.5041 2.18612 37.1331 2.72138C37.0295 2.76138 36.6899 3.0031 36.4998 3.07693C36.4358 3.10098 36.0973 3.21212 36.0469 3.23105C35.8429 3.30709 35.6481 3.32358 35.5325 3.35886C35.3083 3.42696 35.11 3.61777 34.9983 3.67756C34.8014 3.78233 34.4391 3.93106 34.3528 3.96761C34.1457 4.05487 34.1635 3.91455 34.0285 4.00698C33.9887 4.03445 34.0726 4.09756 33.9203 4.16774C33.7926 4.22637 33.7113 4.18709 33.6191 4.21598C33.5268 4.24494 33.4136 4.41796 33.3585 4.44113C33.0691 4.56132 32.9142 4.55583 32.6053 4.70095C32.3483 4.81855 31.2023 5.44893 31.1191 5.52431C30.7407 5.85159 31.4366 5.43433 31.4792 5.41811C31.7091 5.32733 31.6974 5.38334 31.8787 5.19655C32.1913 5.33312 32.6996 4.62881 33.0121 4.82287C33.1057 4.54953 33.3049 4.56969 33.5156 4.51531C33.8067 4.44076 33.5528 4.4289 33.7475 4.33689C33.8245 4.3007 34.087 4.28045 34.1972 4.21573C34.3075 4.15095 34.3272 4.06465 34.4818 3.99049C34.7572 3.85825 34.9957 3.78847 35.2635 3.76173C35.2917 3.70925 35.3172 3.6581 35.345 3.60604C35.5232 3.57168 35.7024 3.53718 35.8798 3.50395C35.8414 3.48571 35.8029 3.46724 35.7644 3.44901C35.8102 3.4245 35.8563 3.40024 35.9022 3.37614C36.0796 3.35311 36.2486 3.33022 36.4301 3.30821C36.8057 2.95694 36.737 3.15613 36.9924 3.07826C37.2485 3.0009 37.3548 2.84726 37.5465 2.77268C37.8066 2.67178 37.9205 2.6149 38.1863 2.52417C38.3407 2.47143 38.6329 2.47086 38.3671 2.4006C38.8393 2.21405 39.4842 1.94837 39.9368 1.86919C40.0699 1.84545 39.9147 1.94611 39.9383 1.94486C40.0551 1.93687 40.1218 1.83352 40.2374 1.80894C40.4301 1.76746 40.8088 1.71554 40.9605 1.68591C41.0517 1.66793 41.1581 1.62379 41.2533 1.5779C41.3863 1.514 41.4979 1.44683 41.5166 1.43731C41.6973 1.34597 41.7692 1.41203 41.8298 1.38987C42.1729 1.26483 42.241 1.21431 42.3939 1.35222C42.467 1.25656 42.8196 1.04488 42.9413 1.1444C42.9194 1.03462 43.2398 0.981228 43.4328 0.91271C43.4761 0.936362 43.5197 0.959748 43.5627 0.983746C43.933 0.70248 44.7865 0.694963 45.3337 0.645407C45.3475 0.644007 45.3614 0.560664 45.4463 0.567825C45.4517 0.568626 45.4479 0.60555 45.5037 0.603035C45.6862 0.591712 46.3915 0.607747 46.4705 0.604349C46.7623 0.582883 46.813 0.521497 46.9911 0.505022C47.2262 0.484631 47.2651 0.535729 47.488 0.520368C47.592 0.513674 47.6886 0.442079 47.8544 0.450103C47.9527 0.454948 47.9615 0.508858 48.0399 0.513114C48.3166 0.529046 48.5208 0.500823 48.7613 0.581079C48.8326 0.415092 48.9452 0.545912 49.0645 0.566667C49.5499 0.648848 50.1645 0.657936 50.5757 0.755072C51.8558 1.05489 52.9158 1.56691 53.9182 2.3045C54.0797 2.42604 54.1659 2.39495 54.3296 2.53432C54.3626 2.56282 54.3889 2.60032 54.4184 2.64236C54.4541 2.69329 54.4945 2.75073 54.5578 2.80875C54.6509 2.89383 54.8008 2.9985 54.9114 3.11273C54.9408 3.14306 54.9064 3.18089 54.9485 3.22559C55.2676 3.56584 55.5822 3.90237 55.874 4.28325C55.9815 4.42389 55.9858 4.55266 56.0652 4.4653C56.0791 4.53785 56.0942 4.6067 56.1045 4.67479C56.2949 4.84479 56.3338 5.05482 56.5084 5.33662C56.5272 5.36559 56.7146 5.55435 56.7279 5.70585C56.7678 5.69725 56.7879 5.6625 56.8218 5.65023C56.8991 5.77002 56.9525 5.98724 56.988 6.07527C57.0241 6.16362 57.0968 6.20138 57.1091 6.22764C57.1554 6.32777 57.0837 6.33077 57.0862 6.33899C57.232 6.83092 57.2402 6.76615 57.4477 7.01758C57.5005 7.07976 57.6192 7.59664 57.7256 7.67122C57.6978 7.68621 57.662 7.66783 57.631 7.67C57.6771 7.82142 57.7216 7.97342 57.765 8.12578C57.7824 8.0845 57.7976 8.03677 57.816 7.99814C57.8967 8.31325 58.045 8.54812 58.1208 8.80248C58.1639 8.94788 58.0967 8.94893 58.136 9.03023C58.1437 9.04618 58.1769 9.00536 58.1951 9.0541C58.3419 9.4503 58.3482 9.64148 58.4508 10.0515C58.4983 10.2431 58.617 10.3924 58.6381 10.68C58.64 10.7067 58.6431 10.9926 58.7771 11.1373C58.7607 11.1978 58.7567 11.2486 58.7417 11.2944C58.9609 11.5996 58.8039 11.5396 58.8796 12.0049C58.9196 12.2463 59.1228 13.0411 59.1926 13.298C59.2348 13.4507 59.2861 13.4368 59.2941 13.464C59.3415 13.6266 59.2913 13.6373 59.3322 13.788C59.3732 13.9388 59.4701 14.12 59.4979 14.278C59.5192 14.399 59.438 14.3171 59.4968 14.4902C59.5091 14.526 59.5389 14.4101 59.5578 14.6015C59.5608 14.6317 59.5679 14.9425 59.569 15.0063C59.5038 14.8555 59.3644 14.4081 59.3142 14.2396C58.4856 11.3628 57.0391 5.29996 54.6886 3.20945C54.5172 3.03548 54.4258 2.88192 54.3144 2.76269C54.2976 2.74478 54.2804 2.72772 54.2623 2.71162C54.1236 2.58979 54.2027 2.73839 54.0762 2.63068C53.949 2.52431 53.8785 2.41506 53.7517 2.32253C52.8971 1.6996 51.8862 1.26953 50.8419 1.02813C50.5714 0.965603 50.3417 0.983313 50.0917 0.946172C49.9937 0.931886 50.0025 0.857752 49.9327 0.848903C49.1789 0.75487 48.4721 0.799766 47.7177 0.808015C47.4034 0.811599 47.0614 0.763324 46.7478 0.780984C46.4904 0.795081 46.2263 0.86687 45.9978 0.894101C45.8729 0.909149 45.7994 0.856917 45.7531 0.857757C45.5937 0.86172 45.6581 0.928987 45.5778 0.939547C45.3563 0.969253 45.2323 0.895707 45.0258 0.93468C44.9444 0.950322 44.9638 1.00593 44.8465 1.03433C44.6981 1.07061 44.7455 1.00819 44.6382 1.02454C44.6317 1.02543 44.6595 1.06294 44.6032 1.07447C44.2377 1.14888 43.793 1.27168 43.4426 1.34644C42.7196 1.49998 41.9902 1.60382 41.3197 1.77978C41.3168 1.78055 41.3139 1.78131 41.3112 1.78208C41.1532 1.82586 41.2105 1.86714 41.1591 1.88506C40.9071 1.9735 40.7952 1.93531 40.5356 2.04216C40.4925 2.05982 40.3363 2.19339 40.1613 2.22909C40.0664 2.24844 39.9466 2.23481 39.8644 2.24967C39.7823 2.26455 39.7928 2.33958 39.6995 2.3712C39.5294 2.42939 39.5625 2.36291 39.3211 2.45634C39.2236 2.49378 38.9208 2.67644 38.668 2.76391C38.2554 2.90583 37.725 3.03757 37.2455 3.22865C37.0801 3.29428 36.9006 3.45321 36.6468 3.55993C36.3385 3.68876 35.7629 3.91623 35.4483 4.05509C35.2876 4.12579 35.2414 4.05268 35.2208 4.05789C35.088 4.09094 35.1765 4.15654 35.0925 4.19011C34.9771 4.23632 34.8434 4.21887 34.7388 4.26128C34.6721 4.28831 34.691 4.358 34.6771 4.36499C34.1634 4.62649 33.7006 4.83851 33.1895 5.09641C30.4465 6.48065 27.7983 8.10157 25.1633 9.6715C24.9426 9.80326 24.8806 9.7206 24.6967 9.85363C24.6056 9.91939 24.5429 10.0276 24.4683 10.1066C24.3918 10.1875 24.3029 10.2379 24.1575 10.1814C24.1787 10.2271 24.198 10.2571 24.2169 10.299C23.7849 10.4874 23.4287 10.801 23.0502 11.0563C22.7693 11.2456 22.5148 11.4015 22.2495 11.5686C22.0151 11.7161 21.9871 11.6269 21.85 11.8578C20.8152 12.4527 19.8302 13.1441 18.7866 13.7154C18.6732 14.0379 18.3832 14.0874 18.0529 14.2834C18.012 14.3077 18.0955 14.3388 17.9772 14.4148C17.8289 14.5104 17.6905 14.4699 17.4511 14.6477C17.3882 14.694 16.9871 15.1364 16.7755 15.2097C16.5623 15.2834 16.2881 15.4347 16.0699 15.516C16.1245 15.5374 16.1846 15.5521 16.2417 15.5708C16.1561 15.6436 16.0715 15.7156 15.9861 15.7887C15.9381 15.7501 15.89 15.7114 15.8422 15.6721C15.8228 15.7565 15.8032 15.8403 15.7843 15.9256C15.4906 15.7607 15.6663 15.7554 15.4586 16.0046C15.3538 16.1298 15.2228 16.1597 15.1114 16.2811C15.0711 16.3253 15.0949 16.421 15.0503 16.4688C14.9409 16.5853 14.94 16.4295 14.8627 16.4878C14.786 16.5462 14.7538 16.7429 14.5775 16.7982C14.5768 16.4902 14.2018 16.8713 14.2964 17.0418C14.2463 17.0801 14.1995 17.1054 14.1478 17.1514C13.9079 16.7219 13.8499 17.1986 13.787 17.3312C13.7238 17.4635 13.6494 17.3548 13.6279 17.3776C13.5657 17.443 13.6502 17.4474 13.6018 17.4867C13.2847 17.7429 12.9278 17.9159 12.6065 18.1562C12.5596 18.1914 12.6466 18.2192 12.5881 18.2554C12.5297 18.2915 12.4323 18.2722 12.357 18.3376C12.3368 18.3551 12.3708 18.4128 12.3383 18.4384C11.9241 18.7609 11.5127 19.0609 11.1006 19.3696C10.8216 19.5787 10.5446 19.79 10.2666 20.0156C10.2028 20.0675 10.2322 20.2005 10.1099 20.2974C9.98679 20.395 9.73593 20.4625 9.58318 20.581C9.54209 20.6129 9.59692 20.6999 9.54374 20.7418C9.36198 20.885 9.15652 20.9523 8.96633 21.0998C8.64427 21.3498 8.36766 21.6804 8.02181 21.9115C7.9558 21.9559 7.90666 21.8836 7.80714 21.941C7.63359 22.0418 7.77328 22.0858 7.75544 22.125C7.69695 22.2528 7.55392 22.1554 7.49009 22.2727C7.4804 22.2907 7.56796 22.3461 7.55628 22.3589C7.37183 22.5523 7.20297 22.3883 7.07811 22.6742C6.80015 22.745 7.08152 22.4247 7.06465 22.3429C7.02554 22.1424 6.68016 22.18 6.51358 22.2412C6.37059 22.2937 6.44403 22.3743 6.40228 22.412C6.18134 22.6123 5.86199 22.9211 5.65551 23.0263C5.53104 23.0905 5.68898 22.8968 5.61231 22.9143C5.53634 22.9313 5.55587 23.0231 5.44339 22.999C5.33079 22.9752 5.05109 22.8586 4.99101 22.7431ZM25.6821 8.3625C25.4967 8.79466 24.7441 9.27886 24.1655 9.61463C24.0429 9.68563 23.9282 9.74973 23.8284 9.80491C23.3536 10.0675 22.8141 10.0885 23.1172 10.3597C23.5027 10.1187 23.819 9.89391 24.1922 9.65792C24.299 9.59035 24.4106 9.52184 24.5299 9.45181C24.5855 9.41905 24.9318 9.24919 25.0493 9.18535C25.1155 9.14929 25.15 9.20187 25.2372 9.14826C25.2561 9.13638 25.3193 9.0023 25.3592 8.98092C25.4953 8.90723 25.9539 8.7783 26.007 8.74249C26.1543 8.64223 26.0466 8.59413 26.1038 8.53981C26.2967 8.35836 26.3944 8.46846 26.5911 8.29844C26.6262 8.26804 26.6941 8.08305 26.8665 8.00198C26.9366 7.96914 27.0824 7.95907 27.1319 7.92687C27.4017 7.75143 27.6717 7.49995 27.9352 7.36734C28.1512 7.25875 28.1411 7.37335 28.2584 7.32182C28.3755 7.27001 28.4567 7.09915 28.5301 7.0512C28.6474 6.97457 28.8259 6.94661 28.8634 6.92487C29.6017 6.49622 30.2382 6.07566 30.9595 5.67507C30.4427 5.89491 29.9298 6.12197 29.4183 6.34737C29.186 6.58228 29.2815 6.42802 29.084 6.50072C28.9277 6.55839 28.9714 6.72154 28.7732 6.80979C28.7734 6.80971 28.7736 6.80962 28.7737 6.80954C28.6716 6.85491 28.404 6.87167 28.2196 7.02926C28.2132 7.035 28.2366 7.12031 28.083 7.20994C27.7374 7.41102 27.2279 7.75311 26.8299 7.96272C26.713 8.02416 26.6898 7.93083 26.549 7.99943C26.4462 8.04955 26.3755 8.19001 26.2121 8.26376C26.0069 8.35605 25.8384 8.28278 25.8115 8.5387C25.763 8.48174 25.7318 8.41664 25.6821 8.3625ZM15.4576 15.3092C15.4264 15.3204 14.9315 15.3524 15.1983 15.5077C15.7268 15.2748 16.1872 14.8691 16.7116 14.5802C16.3885 14.4733 16.1694 14.7604 15.8419 15.0207C15.8418 15.0208 15.8416 15.0209 15.8415 15.021C15.826 15.0332 15.8508 14.9265 15.7673 15.0024C15.7266 15.0393 15.6241 15.25 15.4576 15.3092Z" fill="white"/>
</svg>
