<svg width="116" height="85" viewBox="0 0 116 85" fill="none" xmlns="http://www.w3.org/2000/svg">
<path d="M115.804 20.7589C113.19 17.1578 102.932 19.0224 98.7296 18.8831C94.4136 19.3958 89.8259 18.534 85.7114 20.1751C85.4233 19.3503 84.5512 18.8105 84.043 18.1174C83.2699 17.4883 81.5735 14.6626 80.3819 14.8162C76.6164 14.8304 72.6681 14.9066 68.9201 15.06C69.0085 14.5411 68.627 14.0505 68.6072 13.5796C68.397 13.3452 68.5104 12.9817 68.3979 12.689C70.3504 11.6998 72.4215 10.4912 74.3436 9.46727C75.3289 8.91167 76.8907 8.52696 76.8038 7.10024C76.7158 5.37073 76.608 3.4274 76.6249 1.67783C76.6881 -1.15864 70.3992 0.50675 68.4805 0.300554C65.3093 0.366367 62.0576 0.735545 59.0362 1.76286C58.9592 1.87867 59.2422 1.8411 59.3206 1.91708C59.3331 1.9473 59.3452 1.97668 59.357 2.00577C59.315 2.08147 59.4448 2.08966 59.4928 2.11452C59.4008 2.15689 59.2162 2.13288 59.1813 2.23315C59.8339 2.56674 60.5489 2.5416 61.2326 2.59951C62.2295 2.79949 63.3434 2.77689 64.3733 2.95597C67.1783 3.37543 70.1038 3.40621 72.9579 3.54603C72.9243 4.31631 72.8645 5.08742 72.8795 5.8577C70.8786 6.86185 68.7932 7.86572 66.8118 8.92495C64.5858 7.90978 62.394 6.5373 60.03 5.93792C59.8387 4.57956 59.396 3.2325 58.9231 1.97442C58.8714 2.0665 58.7992 2.04108 58.6739 2.04504C58.6073 2.13034 58.4781 2.07978 58.37 2.10237C57.6138 3.04692 57.4959 4.36178 57.0664 5.48146C56.2871 8.22162 57.4564 8.56311 59.5972 9.75425C61.3909 10.6626 63.188 11.7476 65.0122 12.608C64.995 12.9305 64.7413 13.2195 64.7103 13.5373C64.6767 13.6757 64.8468 13.9256 64.7847 14.0053C64.7359 14.3674 64.8652 14.7756 64.8598 15.1476C61.1589 15.1987 57.4696 15.8763 53.8481 16.5237C53.6006 16.6508 54.0978 16.6347 54.1649 16.7195C54.1531 16.7582 54.1418 16.7954 54.1305 16.8327C53.9869 16.9079 54.1666 16.9449 54.2448 16.9706C54.0292 17.0282 53.7468 16.9991 53.571 17.1304C62.0241 18.4278 70.8394 17.9872 79.4598 18.371C79.9189 18.908 80.8723 20.0599 81.3243 20.6132C80.9626 21.0374 79.7318 22.4167 79.4101 22.8381C70.9935 22.9285 62.2712 22.7585 53.8548 23.0681C53.0261 22.2071 52.0829 21.4589 51.3061 20.531C52.2812 19.4565 52.8151 18.0722 53.4203 16.7971C53.2205 16.9163 53.1486 16.8833 52.9167 16.8827C52.722 16.9847 52.5518 16.918 52.3741 16.9333C50.9418 17.6634 49.6596 18.7427 48.4703 19.8401C43.6259 17.5454 36.8804 18.8941 31.5989 18.9611C27.1791 19.2786 22.5316 18.612 18.3956 20.5064C18.1973 20.5988 17.6019 20.7095 17.9715 20.9651C17.9597 21.0663 17.8437 21.1742 17.9588 21.2394C17.8437 21.3047 17.7317 21.2846 17.6453 21.4179C17.9413 21.9122 18.4532 21.7834 18.9261 21.8447C19.1944 22.1585 19.5302 21.8382 19.8857 21.9394C23.7593 22.6771 27.8162 22.3851 31.799 22.7924C36.313 22.5057 40.9845 23.0342 45.4153 22.3218C46.1873 22.0795 47.0316 22.0611 47.8405 21.9004C48.1261 21.9326 48.3947 21.8817 48.597 21.6699C49.3284 23.0274 50.2714 24.2482 51.2547 25.4365C51.742 26.0879 52.332 26.8765 53.2634 26.8028C57.1488 26.8926 61.1474 27.0203 65.0387 27.003C65.0206 27.5705 64.7664 28.1069 64.7103 28.6673C64.8048 29.4918 64.7898 30.3369 64.8657 31.1846C62.9752 31.225 61.0314 30.9485 59.1925 31.5323C57.3283 32.0656 55.8404 33.5488 54.3811 34.7447C52.683 36.1313 50.6018 37.9394 48.9587 39.3319C47.7996 40.4027 46.4988 41.4552 44.8315 41.343C37.0249 41.3636 27.8755 41.2879 20.0392 41.3636C18.1614 41.5693 16.7371 40.2403 15.5491 38.9588L12.4645 35.9223C11.6319 35.3447 7.90025 30.7417 6.6751 31.0275C2.37125 30.6022 -0.965896 32.2184 0.254462 37.0688C1.09362 40.8586 1.87239 44.7789 2.71747 48.5755C3.31622 53.8072 6.39773 55.709 11.4372 55.2141C14.6863 55.1935 17.831 55.063 21.0956 54.9845C22.9122 55.0195 24.9122 54.4484 26.5321 55.4308C29.6029 56.8374 32.6756 58.2303 35.7854 59.5259C38.8423 62.3147 42.1318 64.8822 45.5296 67.2456C45.533 68.6746 45.9297 70.0357 46.3871 71.341C47.266 68.9819 47.6512 66.4502 48.2183 64.0074C56.5089 64.3382 64.9828 64.2667 73.2807 64.008C74.3244 64.7989 75.5087 65.8997 76.5541 66.6764C75.9996 67.1758 73.9353 68.9214 73.34 69.4409C64.5446 69.5553 55.6807 69.7858 46.994 71.195C47.0423 71.2455 47.2344 71.2122 47.2429 71.2836C47.1633 71.3588 46.7869 71.411 47.0223 71.4814C46.7059 71.5252 46.454 71.5045 46.1286 71.5997C46.9531 72.092 48.0555 71.846 49.0011 71.9675C50.2031 72.2273 51.5369 72.0003 52.8021 72.2282C55.3007 72.3785 57.9468 72.659 60.4775 72.6604C59.9753 73.6654 59.3565 74.5975 58.7981 75.5686C58.4905 76.4914 58.104 77.3622 57.7713 78.289C57.501 79.009 57.1105 79.6835 57.0583 80.441C57.1579 80.6244 57.1327 80.7433 57.1237 80.9026C51.5843 80.8108 46.0039 81.0062 40.5167 81.4811C39.6516 79.8894 38.6586 78.3966 37.3127 77.2196C37.3658 77.9091 37.0249 78.5717 37.2343 79.2637C37.8 80.7419 37.8274 83.4275 39.2673 84.2224C42.2943 84.8819 45.4359 84.815 48.522 84.857C53.9581 85.0855 59.8062 84.9969 65.2599 84.8887C71.7212 84.7127 78.3625 84.567 84.8367 84.5201C90.1388 84.498 95.5592 84.3212 100.853 84.2057C102.146 84.0661 106.116 84.1599 106.72 83.2665C107.239 81.439 108.165 79.5391 108.436 77.7291C108.329 77.7848 108.297 77.9497 108.174 77.974C108.084 77.8483 108.119 77.6156 107.944 77.8212C108.005 77.5608 108.156 77.3266 108.138 77.0526C107.198 77.6373 106.882 78.7725 106.32 79.6651C105.764 80.1221 105.644 80.882 105.292 81.5051C101.594 81.2413 97.7257 81.1633 93.996 81.119C94.3764 78.842 92.1304 75.6064 91.0895 73.6044C90.2588 72.0245 89.5869 70.3329 88.5359 68.9002C95.0307 68.7644 101.52 69.0869 108.016 69.1087C111.607 69.953 114.789 67.2851 114.363 63.5589C114.339 59.468 115.102 55.6034 110.768 53.3911C100.485 47.1753 90.1645 41.0315 79.9152 34.7577C75.1963 31.9142 74.7059 31.0261 68.9026 31.2233C69.0037 30.3222 68.6916 29.3898 68.5296 28.5543C68.4173 28.0436 68.4879 27.4827 68.3211 26.9691C72.2564 26.9417 76.4926 26.7412 80.4129 26.7169C82.12 26.6398 84.021 23.0554 85.324 21.8382C85.4532 21.806 85.4902 22.0396 85.6067 22.0015C86.0661 21.8569 86.4958 21.9834 86.9464 22.0665C88.3903 22.3032 89.7859 22.406 91.2827 22.426C95.6938 22.6218 100.089 22.9037 104.501 22.6701C107.259 22.5955 110.094 22.8879 112.712 22.115C113.427 22.0481 114.176 21.9605 114.854 21.8176C115.062 21.5298 115.367 21.6526 115.555 21.4205C115.61 21.2733 115.724 21.3462 115.795 21.2699C115.845 21.1374 115.922 21.1098 116 21.0521C115.895 20.9581 115.895 20.9581 115.804 20.7589ZM88.5937 77.3393C89.2706 78.5505 89.6183 79.947 90.4086 81.0754C80.657 80.8113 70.8312 80.7309 61.0802 80.8919C61.7695 79.5547 62.0703 78.0359 62.4462 76.6216C62.7718 75.7994 63.1087 74.95 63.2633 74.0876C63.3988 73.7139 63.6042 73.2001 63.4927 72.7561C65.8366 72.8496 68.2376 72.8403 70.5874 72.9157C72.1001 72.7606 73.878 73.5029 75.2005 72.5536C76.6548 71.3554 78.6401 69.7925 80.1034 68.6031C81.9691 68.8149 83.9301 68.7014 85.8155 68.724C85.6028 68.8683 86.0043 68.972 85.9575 69.1547C85.9154 69.5053 86.0424 69.8261 86.1039 70.1552C85.9414 70.3651 86.1042 70.3973 86.1208 70.5973C86.9797 72.8493 87.506 75.1977 88.5937 77.3393ZM93.6109 47.0101C97.573 49.2977 101.807 51.7995 105.735 54.1001C104.785 54.8334 103.987 55.7582 103.139 56.6064C97.9113 55.7432 92.5477 56.0677 87.2664 55.8646C85.4521 54.2908 82.78 52.1489 80.9347 50.6103C80.2273 49.8084 76.7403 50.3369 75.8007 50.238C72.7313 50.3561 69.5762 50.3835 66.4997 50.4154C65.2977 50.3634 64.0539 50.7357 63.0661 49.814C62.2574 49.1977 59.9335 45.7215 61.6031 45.269C70.496 45.0368 79.4815 45.3865 88.285 43.8821C89.6386 44.6721 92.2991 46.2285 93.6109 47.0101ZM71.1306 34.9168C73.7471 34.4544 77.865 37.9526 80.0794 39.024C80.0791 39.024 85.7131 42.3703 85.7131 42.3703C77.6997 41.8752 69.5956 41.8831 61.5452 41.7486C53.7499 42.5254 58.4606 54.5515 64.5407 54.3498C69.2745 54.2125 74.2099 54.3493 78.9567 54.2512C80.181 55.3037 83.9242 58.3743 85.214 59.4694C87.4913 60.5117 90.9044 59.7126 93.4594 59.8793C96.8687 59.7075 100.248 59.416 103.663 59.2333C105.275 59.0858 106.074 56.0002 106.836 54.7529C109.066 56.109 111.748 56.868 111.295 60.053C111.304 60.56 111.328 64.0114 111.334 64.4331C111.259 67.4998 106.103 65.9327 104.057 66.4211C96.404 66.71 88.765 67.1538 81.12 67.547C82.2851 65.2582 78.7301 63.6998 77.3977 62.3567C74.5002 59.5019 73.6038 60.1064 69.829 60.079C67.7128 60.0725 64.8268 60.1558 62.7058 60.1403C57.4671 60.1821 51.8272 60.0069 46.6554 60.5772C45.7088 60.586 44.8101 61.352 45.1515 62.359C45.3109 63.7609 45.211 65.2291 45.4763 66.6151C43.162 63.2019 40.1028 60.5462 37.269 57.5659C35.5041 56.5174 33.5278 55.6582 31.7939 54.6091C27.0194 52.048 26.4441 51.2241 20.8617 51.4746C17.1358 51.4277 13.1951 51.354 9.4578 51.3648C8.89488 51.3707 8.29331 51.2552 7.83423 50.9354C7.02075 50.4366 6.97842 49.3384 6.78458 48.5099C6.036 44.832 4.75413 38.9096 4.06565 35.1876C4.06734 35.1882 4.06508 35.1859 4.06734 35.1868C4.07044 35.1783 4.11474 35.1359 4.11249 35.1427C4.11277 35.1433 4.11277 35.143 4.11446 35.1439C4.48692 35.1283 5.43019 35.1396 5.81534 35.1337C8.60566 37.6549 12.541 42.1593 15.524 44.2939C17.4388 45.5105 19.7432 45.4845 21.9117 45.4212L27.3944 45.3839C33.1172 45.3105 38.8406 45.2475 44.5655 45.2517C47.4791 45.4435 49.9864 43.7552 52.018 41.8382C61.8779 33.5073 58.2346 35.0622 71.1306 34.9168Z" fill="#FF7510"/>
</svg>
