<svg width="80" height="67" viewBox="0 0 80 67" fill="none" xmlns="http://www.w3.org/2000/svg">
<path fill-rule="evenodd" clip-rule="evenodd" d="M31.8365 12.6132C33.4923 9.44154 35.7718 5.32425 37.5909 2.99047C38.3878 1.9729 39.165 1.22908 39.7888 0.814308C40.4681 0.363591 41.1343 0.14238 41.7058 0.0483653C43.133 -0.181141 45.2525 0.366357 46.745 2.55082C48.1232 4.5666 49.4981 8.57329 50.3864 11.496C54.4327 9.78995 60.8142 7.24602 64.6482 6.44966C66.2354 6.11784 67.545 6.07637 68.4137 6.22015C69.3869 6.38053 70.1119 6.7483 70.6377 7.19348C71.1635 7.63867 71.5979 8.25253 71.7873 9.07654C71.9571 9.81207 71.9082 10.9209 71.5163 12.2647C70.5724 15.5165 67.5613 20.9307 65.5463 24.3567C69.0179 25.1282 73.8023 26.3144 76.1668 27.4647C78.8611 28.7754 79.3967 30.664 79.0276 31.8696C78.8839 32.3396 78.577 32.8927 77.9826 33.4429C77.4601 33.9296 76.5326 34.5324 75.285 35.1407C72.4274 36.5316 67.4601 38.246 63.5868 39.5014C66.0134 41.1853 68.7436 43.2371 70.1283 44.7966C71.7416 46.6161 71.8036 48.336 71.3007 49.3259C70.8729 50.1693 69.4751 51.3196 66.9964 51.9279C63.3582 52.8183 56.4804 53.2552 53.0154 53.4266C51.5621 56.3106 48.4269 62.1865 45.7881 64.8079C43.9593 66.6246 41.9083 67.1693 40.4681 66.9592C39.2793 66.7877 37.5223 65.8255 35.9906 63.8954C32.9273 60.0436 29.152 51.7122 28.1429 49.4227L20.7621 43.1735C18.058 42.319 8.2181 39.1225 3.66881 36.5288C1.38927 35.232 0.252764 33.7443 0.0502832 32.7378C-0.197919 31.5184 0.445447 29.7819 2.59109 28.2334C5.69362 25.9937 12.6498 23.3364 16.0495 22.1086C16.2749 19.2052 16.8301 13.4399 17.8523 10.3485C18.5218 8.31889 19.7562 7.11606 20.6576 6.72064C21.8529 6.1925 23.881 6.13997 26.0495 7.48106C27.7575 8.5401 29.9913 10.6859 31.8365 12.6132ZM42.3035 7.73545L35.6837 19.0808C35.2362 20.021 34.2173 20.6791 33.0318 20.7952C31.8431 20.9113 30.6772 20.4717 29.9848 19.6449C29.9848 19.6449 26.8757 15.912 24.0345 13.3874L23.8124 13.1994C23.685 13.6722 23.5642 14.1672 23.4858 14.6123C22.7314 18.7932 22.4506 24.1189 22.4506 24.1189C22.3918 25.2111 21.5818 26.1706 20.38 26.5688C20.38 26.5688 12.6792 29.1155 8.24423 31.5682C8.00909 31.6981 7.76089 31.8502 7.52575 32.0051C8.05155 32.3148 8.67205 32.6549 9.25337 32.9231C14.7759 35.4836 23.6752 38.1907 23.6752 38.1907C24.1259 38.3289 24.5374 38.5501 24.8771 38.8377L33.2637 45.9386C33.6033 46.2262 33.8646 46.5746 34.0279 46.9562C34.0279 46.9562 37.2251 54.4912 40.2493 59.167C40.5661 59.6564 40.9678 60.1846 41.3335 60.6298C41.5164 60.4307 41.696 60.2205 41.8495 60.0214C44.7463 56.2664 47.7541 49.7462 47.7541 49.7462C48.2277 48.7203 49.3772 48.0318 50.677 47.9931C50.677 47.9931 57.0095 47.8023 61.9441 47.1691C62.4634 47.1027 63.0414 47.0032 63.5934 46.8953C63.3942 46.7101 63.1851 46.5303 62.9859 46.3672C59.7495 43.7486 55.0369 40.8646 55.0369 40.8646C54.0539 40.259 53.5444 39.2414 53.7241 38.2211C53.9004 37.2008 54.7332 36.3519 55.8828 36.0118L69.4849 31.0677C65.3014 29.8704 60.0696 28.9081 60.0696 28.9081C59.0669 28.7256 58.2276 28.1532 57.7965 27.3679C57.3687 26.5799 57.4014 25.6674 57.8847 24.9014C57.8847 24.9014 61.6208 18.9951 63.8742 14.1893C64.1551 13.592 64.4196 12.9063 64.645 12.2675C63.8906 12.4583 63.0806 12.6823 62.3752 12.9201C56.6992 14.828 49.7234 17.9913 49.7234 17.9913C48.8155 18.4034 47.7345 18.4282 46.8005 18.0605C45.8698 17.6927 45.197 16.9738 44.9847 16.1221C44.9847 16.1221 43.7992 11.3301 42.3035 7.73545Z" fill="white"/>
<path fill-rule="evenodd" clip-rule="evenodd" d="M31.3788 36.5238L5.97723 58.031C4.7003 59.1094 4.7003 60.8625 5.97723 61.9409C7.2509 63.0193 9.31817 63.0193 10.5951 61.9409L35.9967 40.4337C37.2703 39.3553 37.2703 37.6022 35.9967 36.5238C34.723 35.4426 32.6525 35.4426 31.3788 36.5238Z" fill="white"/>
<path fill-rule="evenodd" clip-rule="evenodd" d="M42.9243 26.7463L31.3796 36.5238C30.1026 37.6022 30.1026 39.3553 31.3796 40.4337C32.6532 41.5121 34.7238 41.5121 35.9974 40.4337L47.5421 30.6562C48.8191 29.5778 48.8191 27.8247 47.5421 26.7463C46.2685 25.6679 44.2012 25.6679 42.9243 26.7463Z" fill="white"/>
<path fill-rule="evenodd" clip-rule="evenodd" d="M45.8731 37.7208L34.3284 35.7659C32.5616 35.4673 30.8372 36.4378 30.4845 37.9365C30.1318 39.4325 31.2814 40.8897 33.0482 41.1883L44.5929 43.1433C46.3597 43.4447 48.084 42.4713 48.4367 40.9754C48.7894 39.4795 47.6431 38.0195 45.8731 37.7208Z" fill="white"/>
<path fill-rule="evenodd" clip-rule="evenodd" d="M28.1751 29.2421L30.484 39.0196C30.8367 40.5156 32.5611 41.4889 34.3279 41.1875C36.0947 40.8889 37.2443 39.4316 36.8883 37.9357L34.5793 28.1582C34.2266 26.6622 32.5056 25.6889 30.7387 25.9903C28.9687 26.2889 27.8224 27.7462 28.1751 29.2421Z" fill="white"/>
</svg>
