<svg width="506" height="156" viewBox="0 0 506 156" fill="none" xmlns="http://www.w3.org/2000/svg">
<path d="M347.637 0.448551C341.774 1.25435 341.597 1.25199 345.835 2.54623C349.19 3.65186 348.119 4.16801 340.491 4.41982C335.17 4.5256 328.964 4.44277 326.839 4.2376C324.537 4.03007 322.757 4.53672 322.745 5.42062C322.733 6.30451 314.212 7.07483 303.749 7.11198C264.738 7.12171 227.462 9.98357 161.217 17.7631C113.795 23.4953 108.999 24.1385 110.226 25.2157C110.751 25.7532 126.196 24.368 144.49 22.1369C162.964 19.7313 192.087 16.5838 209.133 14.8664C247.486 10.9581 321.464 8.40929 322.315 11.0728C322.658 11.9614 328.142 12.9187 334.347 13.0015C345.516 13.1506 345.694 13.153 345.807 17.9284C346.105 22.1758 346.103 22.3526 346.859 18.8265C347.805 14.4188 352.783 13.4244 352.724 17.8439C352.705 19.2581 351.779 22.2515 350.509 24.3563C347.42 29.973 347.21 32.4455 350.06 31.4227C351.486 30.9113 352.542 31.4558 352.531 32.3397C352.514 33.5772 347.723 33.8668 338.865 33.2182C321.505 31.9256 292.226 33.4797 292.195 35.7778C292.183 36.6617 290.37 39.6433 288.203 42.6202C284.413 47.5203 283.522 47.862 276.622 46.709L269.013 45.5466L268.932 51.5571C268.869 56.3301 269.734 57.933 272.739 58.6803C280.511 60.9058 274.112 62.058 252.475 62.2997C133.286 64.4218 98.3507 64.6627 81.3449 63.3749C62.0367 61.8795 61.3275 61.87 61.3818 57.8041C61.429 54.2685 53.4836 38.4264 47.2144 29.8558C44.9521 26.643 38.7398 27.0905 38.695 30.4493C38.6856 31.1564 43.0164 38.8171 48.2242 47.1967C64.1999 72.517 54.5622 63.9014 36.8348 36.9665C27.7973 23.2315 19.2753 10.741 18.0507 9.48696C16.8286 8.05617 12.2332 6.93396 7.8009 6.8748L0.000102558 6.77068L15.5316 38.8039L31.063 70.837L25.0351 70.7565C21.6666 70.7116 17.7591 71.1899 16.1564 71.6989C11.7006 73.4075 14.6815 75.9227 21.2412 76.0102C32.4106 76.1593 32.7581 76.6944 31.3047 92.5879L30.2247 107.072L35.6901 109.443C43.0915 112.902 45.7791 110.816 52.53 96.5842C62.0111 77.0848 61.6565 77.0801 67.8761 89.363C69.947 93.6341 73.4173 99.3384 75.5071 102.195C78.9962 106.485 79.703 106.671 82.7453 104.59C85.9672 102.335 85.797 101.802 79.8895 92.706C76.4144 87.3553 73.814 82.9003 73.9961 82.5491C74.353 82.3771 85.6902 83.2356 99.1478 84.6529C115.26 86.4593 123.928 87.9895 124.439 89.5876C124.952 91.0089 125.836 91.1975 127.451 89.8046C130.318 87.5443 196.188 94.6119 199.693 97.6644C201.097 98.7441 202.691 98.9421 203.769 97.8957C206.82 95.1074 272.491 103.764 294.75 110.072C305.879 113.227 316.297 116.548 317.883 117.277C321.932 119.452 320.907 129.871 316.455 131.226C313.427 132.246 313.423 132.6 317.12 134.594C320.992 136.767 322.155 142.618 319.439 146.825C318.536 148.05 313.196 149.57 307.334 150.376L296.852 151.828L305.36 152.118C311.031 152.37 313.504 153.111 312.778 154.339C311.875 155.564 327.651 155.952 367.019 155.77C415.434 155.355 423.599 154.757 429.842 152.011C445.892 145.153 459.137 135.959 456.688 133.451C456.165 132.737 448.012 132.451 438.791 132.505C424.958 132.674 422.128 132.106 422.156 129.984C422.175 128.57 423.255 127.347 424.496 127.363C431.234 127.453 468.715 122.472 476.901 120.283C482.061 118.938 486.687 117.762 487.042 117.766C487.574 117.774 490.604 116.576 493.812 115.381C507.896 109.735 509.42 101.799 498.922 91.2266C494.896 87.2831 491.393 84.0537 491.039 84.049C490.507 84.0419 480.673 76.8382 469.087 68.0199C451.71 54.704 446.609 51.6301 439.706 50.6539C434.929 49.8829 429.454 48.2185 427.345 46.7759C424.18 44.7887 423.471 44.7793 422.556 46.8888C421.821 48.8239 418.443 49.486 409.578 49.3677L397.523 49.2068L390.197 40.0917C386.008 35.0851 382.682 31.8581 382.668 32.9188C382.651 34.1563 377.855 34.7995 369.345 34.6859C360.835 34.5723 356.058 33.8013 356.074 32.5638C356.088 31.5032 357.159 30.987 358.57 31.5363C359.804 32.0832 361.939 31.5813 363.017 30.5348C365.711 27.9186 365.562 25.7949 362.712 26.8177C360.038 27.8429 355.372 18.7633 357.525 16.8471C359.679 14.9309 378.67 13.5931 380.422 15.2078C381.299 15.9267 387.128 17.5958 393.494 18.9185C399.86 20.2411 417.873 25.7859 433.581 31.2998C449.466 36.8162 465.366 41.2718 468.912 41.3192C474.765 41.2205 473.181 40.3153 457.13 33.9127C430.671 23.4813 408.776 16.4703 393.919 13.6198C387.021 12.2901 381.542 10.9793 381.901 10.6305C382.263 10.1049 392.539 10.7725 404.58 11.994C418.924 13.4232 437.495 17.0304 459.054 22.6225C477.078 27.2834 492.81 31.0295 494.229 31.0485C500.611 31.1337 492.666 28.5523 465.98 21.8309C428.864 12.6718 420.376 10.9672 396.47 8.52639C372.741 6.08794 366.73 4.77005 368.176 2.66763C368.72 1.79083 367.311 1.06478 365.006 1.03402C362.702 1.00326 359.338 0.604734 357.392 0.225143C355.447 -0.154448 351.012 -0.0368202 347.637 0.448551ZM345.062 7.3098C342.394 7.98142 342.209 8.50939 344.143 9.77287C345.724 10.8548 343.947 11.1847 338.63 10.937C333.312 10.866 332.075 10.4959 335.099 9.82896L339.543 9.00422L335.129 7.53084C331.773 6.60198 332.841 6.26262 339.578 6.35254C344.542 6.4188 346.84 6.9799 345.062 7.3098ZM33.0267 43.2808C40.8562 54.5244 48.3475 64.5257 49.5744 65.603C55.0091 70.2726 93.642 72.0259 174.69 71.1628C219.027 70.6937 258.934 69.9887 263.196 69.5152C273.495 68.415 279.398 64.6039 279.471 59.1238C279.509 56.2953 280.594 54.7185 282.366 54.7422C283.785 54.7611 288.437 51.6406 292.389 47.8035C298.854 41.7015 300.816 40.8436 308.799 40.5965C313.766 40.486 325.117 40.2839 333.809 40.0463C342.678 39.8111 351.722 39.755 354.207 39.6113C356.689 39.6445 364.305 40.2765 371.208 41.2527C382.358 42.816 384.299 43.5492 389.19 49.0956C395.653 56.4311 395.986 58.0268 391.2 57.9629C389.427 57.9393 386.212 59.6645 384.056 61.7574C377.402 68.741 380.352 86.815 388.801 91.5249C393.907 94.2452 404.197 93.8521 406.719 90.88C408.159 89.3079 410.648 88.8107 414.007 89.5628C418.605 90.5082 419.498 89.9897 421.697 84.7147L424.259 78.7374L426.493 84.0715C430.271 93.3161 433.254 95.6544 441.409 95.7633C454.174 95.9337 458.715 87.861 449.942 80.8483C447.314 78.5147 445.928 76.0208 446.652 74.9696C447.557 73.5672 450.363 75.9032 454.895 81.7984C458.732 86.6235 462.578 90.7415 463.464 90.7533C465.414 90.7794 458.351 75.3026 452.786 67.095C450.873 64.2406 449.665 61.7491 450.025 61.4003C450.386 60.8747 455.67 63.5973 461.65 67.2134C472.732 73.9033 476.037 78.7213 468.255 77.2029C465.603 76.6371 463.821 77.3205 463.088 79.0788C462.358 80.6604 462.518 81.9002 463.405 81.912C464.114 81.9215 465.509 83.7082 466.544 85.8438L468.263 89.9333L470.445 85.8958C471.537 83.7887 473.333 82.0446 474.042 82.054C474.929 82.0659 480.378 85.6748 486.346 90.1747C493.192 95.3936 497.038 99.5116 497.008 101.81C496.819 115.952 415.838 125.126 355.826 117.606C336.529 115.227 328.927 113.534 298.201 103.93C279.484 98.0222 271.342 96.8527 203.53 89.2288C162.807 84.6186 118.366 79.6051 104.736 77.8319C85.0825 75.6247 79.057 75.3674 74.2465 77.0713C69.6157 78.6008 67.6655 78.5748 66.0911 76.9625C64.8666 75.7085 61.3255 75.3076 56.3519 75.9484C51.201 76.5869 48.7237 76.2002 48.7426 74.786C48.7567 73.7253 45.5773 72.7988 40.7904 72.7349C30.153 72.593 30.5547 69.0621 41.3718 69.0297C49.1774 68.7803 49.3547 68.7826 43.5182 67.6439C37.6818 66.5051 36.6345 65.2535 28.5213 48.7018C20.0606 31.6151 16.4531 22.9032 18.0487 22.9245C18.4033 22.9293 25.1973 32.0373 33.0267 43.2808ZM426.688 56.1381C426.677 57.022 424.523 58.9382 422.195 60.6752C418.079 63.4492 417.37 63.4397 414.032 61.0967C411.044 59.1119 409.451 58.9138 407.125 60.474C404.624 61.8551 403.208 61.6594 400.752 59.6817C398.121 57.5249 399.192 57.0087 410.905 56.281C418.181 55.8477 424.57 55.4026 425.459 55.2376C426.171 55.0703 426.698 55.431 426.688 56.1381ZM401.802 74.0174C403.681 79.3468 404.672 84.8411 404.126 85.8947C403.206 88.3578 394.689 88.7745 391.349 86.6082C386.955 83.7206 383.803 67.412 387.037 64.2725C387.755 63.5749 390.597 63.2592 393.429 63.6506C397.854 64.2401 398.901 65.4918 401.802 74.0174ZM414.413 72.4176C416.281 78.6309 416.6 81.2873 415.182 81.2684C413.763 81.2494 413.931 81.9589 415.515 82.8641C416.744 83.7646 417.43 85.5418 416.881 86.7722C415.96 89.412 406.991 70.5504 407.05 66.131C407.13 60.1205 411.862 64.2503 414.413 72.4176ZM431.882 65.5784C431.87 66.4623 430.263 67.3248 428.49 67.3012C426.008 67.268 425.287 68.1425 425.961 70.8036C426.798 74.5278 423.944 75.7274 422.037 72.5194C419.956 68.9554 423.218 63.6946 427.651 63.7538C429.955 63.7845 431.896 64.5177 431.882 65.5784ZM440.529 68.6995C441.907 71.7237 442.056 73.8474 440.799 75.0683C439.901 75.9404 439.52 77.8802 440.031 79.4783C440.716 81.2556 440.177 81.7788 438.589 81.2272C434.882 79.94 434.596 74.8087 438.331 73.9745C440.111 73.4678 438.52 73.093 434.977 72.8689C431.253 72.8192 428.254 71.7183 428.265 70.8344C428.289 69.0666 430.246 68.5623 435.383 68.9845C437.156 69.0081 437.336 68.8337 435.749 68.1053C434.693 67.5608 434 66.3139 434.721 65.4394C436.354 62.6323 438.29 63.719 440.529 68.6995ZM55.7658 80.0072C57.5198 81.4451 54.8581 81.5864 46.8918 80.596C40.5187 79.8037 35.0322 79.0233 34.6823 78.665C32.9306 77.0503 53.4822 78.3855 55.7658 80.0072ZM450.739 87.5777C451.238 90.0597 449.99 90.5735 442.366 90.4717C437.402 90.4055 433.336 89.4672 433.348 88.5833C433.362 87.5226 436.74 86.8604 440.995 86.9172C446.669 86.993 447.739 86.4768 445.808 85.0366C443.7 83.5939 443.704 83.2404 446.711 83.8109C448.657 84.1905 450.408 85.8052 450.739 87.5777ZM49.3408 83.1041C50.7261 85.5979 42.7177 101.05 39.881 101.012C37.7535 100.984 37.4202 99.3883 38.3939 92.8593C39.3842 85.0929 41.7362 81.5881 46.3458 81.6496C47.4095 81.6638 48.8208 82.2131 49.3408 83.1041ZM342.453 123.086C353.592 125.533 356.603 125.75 373.087 126.324C381.947 126.795 384.953 127.366 384.928 129.311C384.909 130.725 384.003 132.127 382.935 132.467C381.332 132.976 381.493 134.215 383.056 136.712C384.443 139.029 384.753 142.392 384.006 145.211L382.704 149.791L353.455 149.047L324.209 148.126L324.051 133.449L323.892 118.771L328.31 119.891C330.605 120.629 336.971 121.952 342.453 123.086ZM420.022 130.486C420.53 132.261 417.334 132.572 405.992 132.067C396.069 131.581 391.116 130.631 390.606 129.033C390.097 127.258 393.293 126.947 404.635 127.452C414.559 127.938 419.511 128.888 420.022 130.486ZM435.167 138.291C432.087 143.201 415.526 148.461 403.825 148.305L391.769 148.144L391.84 142.84L391.908 137.714L408.406 137.227C417.273 137.168 427.385 136.773 430.579 136.639C434.482 136.514 436.07 137.066 435.167 138.291ZM443.301 139.991C443.278 141.759 429.17 149.173 421.875 151.021C419.384 151.695 423.142 149.093 429.931 145.294C444.223 137.351 443.332 137.693 443.301 139.991Z" fill="#373737"/>
</svg>
