<svg width="28" height="34" viewBox="0 0 28 34" fill="none" xmlns="http://www.w3.org/2000/svg">
<path d="M17.8116 11.9502C17.8116 13.0111 17.3836 14.0285 16.6217 14.7786C15.8599 15.5288 14.8265 15.9502 13.7491 15.9502C12.6716 15.9502 11.6383 15.5288 10.8764 14.7786C10.1145 14.0285 9.68652 13.0111 9.68652 11.9502C9.68652 10.8893 10.1145 9.87191 10.8764 9.12177C11.6383 8.37162 12.6716 7.9502 13.7491 7.9502C14.8265 7.9502 15.8599 8.37162 16.6217 9.12177C17.3836 9.87191 17.8116 10.8893 17.8116 11.9502Z" stroke="#FF7510" stroke-width="1.5"/>
<path d="M23.8601 24.75C26.127 27.9308 27.2109 29.6252 26.5658 30.99C26.5008 31.1265 26.4249 31.2583 26.3383 31.3852C25.4039 32.75 22.9907 32.75 18.1644 32.75H9.334C4.50768 32.75 2.09614 32.75 1.16175 31.3852C1.0765 31.2589 1.00048 31.1269 0.934247 30.99C0.289112 29.6268 1.373 27.9308 3.63991 24.75" stroke="#FF7510" stroke-width="1.5" stroke-linecap="round" stroke-linejoin="round"/>
<path d="M15.7917 25.5404C15.2428 26.0604 14.5107 26.3508 13.749 26.3508C12.9873 26.3508 12.2552 26.0604 11.7063 25.5404C6.68664 20.7516 -0.039334 15.4028 3.23996 7.6364C5.01612 3.4364 9.27368 0.75 13.749 0.75C18.2243 0.75 22.4835 3.438 24.258 7.6364C27.5341 15.3916 20.8244 20.7676 15.7917 25.5404Z" stroke="#FF7510" stroke-width="1.5"/>
</svg>
