<svg width="30" height="33" viewBox="0 0 30 33" fill="none" xmlns="http://www.w3.org/2000/svg">
<path d="M29.735 7.28136L15.2038 0.0480498C15.075 -0.0160166 14.925 -0.0160166 14.7962 0.0480498L0.264973 7.28136C0.102951 7.36199 0 7.53118 0 7.71668V25.2833C0 25.4688 0.102951 25.638 0.264973 25.7186L14.7962 32.9519C14.8605 32.984 14.9303 33 15 33C15.0697 33 15.1394 32.984 15.2038 32.9519L29.735 25.7186C29.897 25.638 30 25.4688 30 25.2833V7.71674C30 7.53112 29.897 7.36205 29.735 7.28136ZM15 1.0202L28.4529 7.71668L24.5531 9.65787C24.5285 9.63847 24.5024 9.62055 24.4738 9.60631L11.1123 2.9554L15 1.0202ZM10.0535 3.50196L23.4868 10.1887L20.7355 11.5583L7.30779 4.87423L10.0535 3.50196ZM23.8011 11.1057V16.1683L21.2312 17.4475V12.385L23.8011 11.1057ZM29.0624 24.98L15.4688 31.7464V15.2534L18.7113 13.6393C18.9445 13.5233 19.0422 13.2343 18.9296 12.9938C18.8171 12.7535 18.5368 12.6526 18.3036 12.7687L15 14.4132L13.7001 13.7661C13.4669 13.6499 13.1866 13.7508 13.0741 13.9912C12.9615 14.2317 13.0592 14.5207 13.2924 14.6367L14.5312 15.2534V31.7464L0.937625 24.9798V8.48683L11.289 13.6395C11.3547 13.6723 11.4241 13.6877 11.4925 13.6877C11.6667 13.6877 11.8341 13.5871 11.915 13.4144C12.0275 13.174 11.9298 12.885 11.6966 12.7689L1.54714 7.71668L6.20433 5.39843L20.2871 12.4085C20.2891 12.4115 20.2915 12.4141 20.2936 12.417V18.2178C20.2936 18.3841 20.3765 18.5387 20.5132 18.6272C20.5891 18.6763 20.6756 18.7012 20.7625 18.7012C20.832 18.7012 20.9017 18.6852 20.9662 18.6531L24.4738 16.9071C24.6358 16.8265 24.7387 16.6573 24.7387 16.4718V10.6391L29.0624 8.48689V24.98Z" fill="#FF7510"/>
</svg>
