<svg width="41" height="37" viewBox="0 0 41 37" fill="none" xmlns="http://www.w3.org/2000/svg">
<path d="M14.9091 20.35V9.25C11.803 9.25 9.16288 10.3292 6.98864 12.4875C4.81439 14.6458 3.72727 17.2667 3.72727 20.35H14.9091ZM22.3636 27.75V9.25H18.6364V24.05H3.72727V27.75H22.3636ZM26.0909 21.83L37.2727 20.72V18.5H26.0909V21.83ZM22.3636 37H3.72727V33.3H22.3636V37ZM26.0909 31.45H3.72727C2.70227 31.45 1.82512 31.088 1.09582 30.3641C0.366515 29.6401 0.00124242 28.7687 0 27.75V20.35C0 16.2183 1.44432 12.7187 4.33295 9.85125C7.22159 6.98375 10.747 5.55 14.9091 5.55H26.0909V14.8H35.4091L37.2727 11.1H41V24.05L26.0909 25.53V31.45ZM33.5455 3.7H3.72727V0H33.5455V3.7Z" fill="#FF7510"/>
</svg>
