<svg width="44" height="32" viewBox="0 0 44 32" fill="none" xmlns="http://www.w3.org/2000/svg">
<path d="M44 32V26.4C44 25.2667 43.708 24.2253 43.124 23.276C42.54 22.3267 41.7653 21.6014 40.8 21.1C38.7333 20.0667 36.6333 19.292 34.5 18.776C32.3667 18.26 30.2 18.0014 28 18C25.8 17.9987 23.6333 18.2574 21.5 18.776C19.3667 19.2947 17.2667 20.0694 15.2 21.1C14.2333 21.6 13.458 22.3253 12.874 23.276C12.29 24.2267 11.9987 25.268 12 26.4V32H44ZM8 32V26C8 24.5333 8.408 23.1247 9.224 21.774C10.04 20.4234 11.1987 19.2654 12.7 18.3C11 18.5 9.4 18.842 7.9 19.326C6.4 19.81 5 20.4014 3.7 21.1C2.5 21.7667 1.58334 22.508 0.950001 23.324C0.316666 24.14 0 25.032 0 26V32H8ZM28 16C30.2 16 32.0833 15.2167 33.65 13.65C35.2167 12.0834 36 10.2 36 8.00004C36 5.80004 35.2167 3.91671 33.65 2.35005C32.0833 0.783384 30.2 5.12813e-05 28 5.12813e-05C25.8 5.12813e-05 23.9167 0.783384 22.35 2.35005C20.7833 3.91671 20 5.80004 20 8.00004C20 10.2 20.7833 12.0834 22.35 13.65C23.9167 15.2167 25.8 16 28 16ZM8 8.00004C8 10.2 8.78333 12.0834 10.35 13.65C11.9167 15.2167 13.8 16 16 16C16.3667 16 16.8333 15.9587 17.4 15.876C17.9667 15.7934 18.4333 15.7014 18.8 15.6C17.9 14.5334 17.208 13.35 16.724 12.05C16.24 10.75 15.9987 9.40004 16 8.00004C16.0013 6.60004 16.2427 5.25004 16.724 3.95004C17.2053 2.65005 17.8973 1.46672 18.8 0.40005C18.3333 0.233384 17.8667 0.124718 17.4 0.0740515C16.9333 0.0233849 16.4667 -0.00128205 16 5.12813e-05C13.8 5.12813e-05 11.9167 0.783384 10.35 2.35005C8.78333 3.91671 8 5.80004 8 8.00004ZM40 28H16V26.4C16 26.0333 16.0913 25.7 16.274 25.4C16.4567 25.1 16.6987 24.8667 17 24.7C18.8 23.8 20.6167 23.1253 22.45 22.676C24.2833 22.2267 26.1333 22.0014 28 22C29.8667 21.9987 31.7167 22.224 33.55 22.676C35.3833 23.128 37.2 23.8027 39 24.7C39.3 24.8667 39.542 25.1 39.726 25.4C39.91 25.7 40.0013 26.0333 40 26.4V28ZM28 12C26.9 12 25.958 11.6087 25.174 10.826C24.39 10.0434 23.9987 9.10137 24 8.00004C24.0013 6.89871 24.3927 5.95738 25.174 5.17604C25.9553 4.39471 26.8973 4.00271 28 4.00005C29.1027 3.99738 30.044 4.38938 30.824 5.17604C31.604 5.96271 31.996 6.90404 32 8.00004C32.004 9.09604 31.612 10.038 30.824 10.826C30.036 11.614 29.0947 12.0054 28 12Z" fill="#FF7510"/>
</svg>
