<svg width="28" height="29" viewBox="0 0 28 29" fill="none" xmlns="http://www.w3.org/2000/svg">
<path d="M8.53072 0C9.43572 0 10.3036 0.436424 10.9436 1.21326C11.5835 1.9901 11.943 3.04373 11.943 4.14234V16.5694C11.943 23.0521 9.12787 27.325 3.82688 28.9343C3.60895 29.0026 3.38203 29.0178 3.15921 28.9792C2.9364 28.9406 2.72208 28.8488 2.52861 28.7091C2.33513 28.5695 2.16633 28.3848 2.03193 28.1656C1.89752 27.9465 1.80016 27.6972 1.74547 27.4321C1.69077 27.1671 1.67982 26.8915 1.71323 26.6213C1.74665 26.3511 1.82378 26.0916 1.94018 25.8577C2.05658 25.6239 2.20994 25.4203 2.39144 25.2587C2.57294 25.0971 2.77898 24.9807 2.9977 24.9162C6.79728 23.7626 8.53072 21.1322 8.53072 16.5694V14.4982H3.41229C2.55141 14.4985 1.72224 14.1038 1.091 13.3932C0.459756 12.6826 0.0730969 11.7087 0.00853092 10.6665L0 10.3559V4.14234C0 3.04373 0.359508 1.9901 0.999436 1.21326C1.63936 0.436424 2.50729 0 3.41229 0H8.53072ZM23.886 0C24.791 0 25.6589 0.436424 26.2989 1.21326C26.9388 1.9901 27.2983 3.04373 27.2983 4.14234V16.5694C27.2983 23.0521 24.4832 27.325 19.1822 28.9343C18.9642 29.0026 18.7373 29.0178 18.5145 28.9792C18.2917 28.9406 18.0774 28.8488 17.8839 28.7091C17.6904 28.5695 17.5216 28.3848 17.3872 28.1656C17.2528 27.9465 17.1555 27.6972 17.1008 27.4321C17.0461 27.1671 17.0351 26.8915 17.0685 26.6213C17.102 26.3511 17.1791 26.0916 17.2955 25.8577C17.4119 25.6239 17.5652 25.4203 17.7467 25.2587C17.9282 25.0971 18.1343 24.9807 18.353 24.9162C22.1526 23.7626 23.886 21.1322 23.886 16.5694V14.4982H18.7676C17.9067 14.4985 17.0775 14.1038 16.4463 13.3932C15.8151 12.6826 15.4284 11.7087 15.3638 10.6665L15.3553 10.3559V4.14234C15.3553 3.04373 15.7148 1.9901 16.3547 1.21326C16.9947 0.436424 17.8626 0 18.7676 0H23.886Z" fill="#FF7510"/>
</svg>
