<svg width="107" height="101" viewBox="0 0 107 101" fill="none" xmlns="http://www.w3.org/2000/svg">
<path d="M85.3686 43.2888C84.9135 107.71 19.3022 102.429 20.7964 40.2633C21.2001 17.5645 17.2988 27.1372 37.8247 20.4534C43.0386 18.8254 48.0809 16.689 52.8138 14.0509C54.4414 13.2727 55.7705 14.9959 57.1854 15.5254C65.6556 20.2269 75.0425 22.8983 84.2157 25.9614C73.5412 25.8218 63.1898 21.9166 53.788 17.3161C44.9131 22.4451 34.9027 25.574 24.7035 27.2373C23.9329 52.2267 24.4767 78.5757 53.7027 87.9453C83.5526 79.6089 83.2279 50.6779 83.9612 26.1763C84.0022 26.7016 83.9521 27.356 84.0155 27.922C84.0975 27.2847 84.0849 27.7109 84.2702 27.9727C84.6105 23.8719 85.4346 42.3095 85.3686 43.2888ZM75.1288 32.4239C71.7288 32.6931 68.9789 36.3071 66.5929 38.411C63.3573 35.294 58.2741 33.4158 53.7627 34.0512C53.8926 34.1133 54.1113 34.082 54.2092 34.1796C54.0839 34.3172 53.8039 34.3249 54.1523 34.4187C53.8144 34.4498 53.449 34.4287 53.1359 34.5439C57.426 35.402 62.1157 36.6446 64.7258 40.3221C60.9215 44.435 57.2212 48.6937 53.3639 52.7597C53.1137 52.154 45.8763 46.5494 46.0563 47.6936C45.9637 47.746 45.7975 47.7062 45.8598 47.8491C45.714 47.7862 45.6255 47.6668 45.448 47.666C45.4037 48.3073 45.9945 48.6622 46.3512 49.1185C47.5441 50.589 48.8194 52.2131 50.18 53.6223C51.3493 54.6811 52.8287 57.4394 54.6546 55.8119C58.8694 51.8038 62.98 47.7 66.8959 43.4269C72.1119 53.4455 63.9854 64.7873 52.389 64.419C32.3709 62.5888 34.2096 36.5629 53.1359 34.2208C47.1959 31.8745 40.2023 35.9243 37.0277 40.792C30.7084 50.0391 35.5298 63.3619 46.5845 66.7978C62.7696 72.3771 77.8593 55.5012 68.9165 41.3158C70.5297 39.7183 72.0258 38.0265 73.2293 36.159C74.1876 35.0126 75.2974 33.8554 75.5078 32.4149C75.3481 32.4569 75.3481 32.4569 75.1288 32.4239ZM81.0135 90.7846C36.505 116.24 -14.1938 69.1235 10.1105 25.87C11.0105 28.23 11.957 30.5264 13.4953 32.5071C13.7991 32.5543 13.7633 32.7773 14.0063 32.8228C14.1477 32.8153 14.1091 32.9017 14.1939 32.9266C14.3213 32.9179 14.3636 32.9574 14.4322 32.9889C16.6015 31.1652 14.8813 27.8788 14.1219 25.7011C13.2253 24.2743 12.8675 20.752 10.4698 21.4633C7.26916 23.0759 2.89811 23.5409 0.825587 26.6298C1.05314 26.6663 0.885086 26.8568 1.03096 26.9318C0.972768 27.0147 0.895785 27.0232 0.882737 27.1501C2.82661 27.6411 6.30048 26.0958 8.53062 25.6604C-22.7373 68.3754 38.868 123.434 81.6585 91.254C81.4746 91.2938 81.2551 91.4793 81.0891 91.478C81.1458 91.2575 81.4346 91.0615 80.9988 91.2446C81.347 90.9612 81.7765 90.7277 82.0622 90.3987C81.6865 90.4799 81.371 90.6589 81.0135 90.7846ZM106.978 48.8472C107.667 11.5709 56.7673 -15.0334 25.7189 9.46182C25.9028 9.42208 26.122 9.23655 26.2883 9.23779C26.2316 9.45834 25.9428 9.6543 26.3786 9.47125C26.0307 9.75464 25.6012 9.9881 25.3152 10.3172C69.5177 -16.008 122.058 31.3673 97.2672 74.8458C96.3669 72.4858 95.4207 70.1895 93.8823 68.2087C93.5786 68.1616 93.6143 67.9385 93.3714 67.8928C93.2299 67.9003 93.2683 67.8139 93.1837 67.789C93.0564 67.7977 93.0141 67.7582 92.9455 67.7267C90.7761 69.5504 92.4964 72.8368 93.2558 75.0144C94.1521 76.4413 94.5102 79.9636 96.9076 79.2523C100.108 77.6397 104.479 77.1747 106.552 74.0861C106.324 74.0495 106.492 73.8591 106.346 73.784C106.405 73.7011 106.482 73.6926 106.495 73.5657C104.551 73.0747 101.077 74.62 98.8468 75.0552C104.766 67.6022 107.261 58.11 106.978 48.8472ZM42.9971 73.9589C43.2651 74.5284 43.637 74.1499 43.9546 74.4042C50.4454 75.1486 57.7358 75.7561 64.2568 74.3121C64.4004 74.056 64.618 74.163 64.7409 73.9609C64.7767 73.8317 64.8568 73.8953 64.9066 73.8278C64.9411 73.7105 64.9943 73.6862 65.0486 73.6353C63.6407 70.2098 56.2517 71.779 53.1147 71.7172C50.0057 72.236 45.3194 71.2189 43.2223 73.5583C43.2129 73.6432 43.1354 73.7408 43.2135 73.8009C43.1294 73.86 43.0543 73.8437 42.9971 73.9589Z" fill="#373737"/>
</svg>
