<svg width="136" height="110" viewBox="0 0 136 110" fill="none" xmlns="http://www.w3.org/2000/svg">
<path fill-rule="evenodd" clip-rule="evenodd" d="M63.6562 57.3072C63.6616 56.9035 64.0914 55.6989 64.2478 55.2194L64.5245 54.7707C64.6428 54.3307 64.5376 54.4992 64.7924 54.184C64.8355 54.1307 64.7548 54.0608 64.9845 53.8733C65.1785 53.7151 65.0578 53.632 65.2232 53.4763L65.884 52.9413C66.8401 52.3571 66.103 52.4807 67.4664 52.0442C67.6266 51.9928 67.7009 51.6295 68.1928 51.5092C68.4884 51.437 68.3971 51.1985 68.6339 51.1985C68.8362 51.1985 68.5843 51.1625 69.0318 50.8878C68.7577 50.7036 68.7577 50.5341 68.6895 50.5081C68.3527 50.381 68.7136 49.7137 66.3961 49.628C65.6205 49.5995 64.9964 49.8713 64.2568 49.9904C63.486 50.1143 62.3134 50.9443 61.8132 51.4572C60.8001 52.4955 60.2967 53.0985 59.7533 54.4767L59.4506 55.1324C59.1546 55.905 58.9018 57.4257 58.9024 58.221C58.904 60.5229 59.5982 62.5446 61.0781 64.3638C62.6875 66.3419 64.5618 67.2174 66.9601 67.7974C67.736 67.9852 69.8222 68.0044 70.6075 67.7974C71.9477 67.444 71.2686 67.7534 72.7555 67.09C73.3403 66.8291 74.1012 66.3582 74.6146 65.9683C76.4953 64.5406 77.7544 62.8139 78.2569 60.5329C78.4917 59.467 78.4589 59.2805 78.4818 58.2554C78.4934 57.7316 78.3026 56.1457 78.0581 55.7362C77.9674 55.584 78.1231 55.5269 77.8696 55.0978L77.3404 53.9764C76.7648 52.8857 75.9442 51.9088 74.8861 51.2675C73.5047 50.4298 71.7701 50.1541 70.1941 50.3531C70.0773 50.3678 69.2377 50.4612 69.3104 50.6638C69.3657 50.7501 69.4626 50.6984 69.5041 50.8191C69.4748 50.8679 69.3397 51.0659 69.4365 51.0951C69.4468 51.0951 69.4555 51.1125 69.4658 51.1298C69.3429 51.1584 69.1087 51.1959 69.0318 51.3025C69.2766 51.6513 69.7421 51.8982 70.2044 51.8545C70.2144 51.8535 70.6866 51.9559 70.7217 52.1305C70.7716 52.3799 71.4262 52.2175 71.7022 52.5102L73.0582 53.7007C73.1718 53.8932 73.3938 54.0235 73.3764 54.1667C73.3448 54.4299 73.5192 54.4379 73.6582 54.6497C74.4081 55.7936 74.7198 56.7895 74.7011 58.1353C74.6896 58.9608 74.4123 60.1217 73.9075 60.8098C73.194 61.782 72.6667 62.3074 71.5864 62.8287L70.1857 63.3117C69.8068 63.4196 69.0135 63.5245 68.6258 63.4844C68.1301 63.433 68.0043 63.5062 67.7247 63.3464C67.5446 63.2433 66.7706 63.1991 65.6198 62.294C65.0015 61.8074 64.4936 61.2865 64.167 60.5512C63.8437 59.9128 63.6517 59.2227 63.5999 58.498C63.5947 58.36 63.5429 58.2393 63.5619 58.101C63.6079 57.8246 63.6218 57.5659 63.6562 57.3072ZM53.2739 69.1958C53.2652 69.2131 53.2704 69.1958 53.2759 69.1958H53.2739ZM51.5361 66.2106L51.5863 66.1589L51.5448 66.2106C51.5412 66.2106 51.5223 66.2279 51.5361 66.2106ZM55.2267 46.1777C55.2337 46.1604 55.2337 46.1604 55.2267 46.1777V46.1777ZM86.7746 51.9582L86.7607 51.9235C86.7659 51.9409 86.771 51.9408 86.7746 51.9582ZM86.7276 66.0382C86.7312 66.0382 86.7312 66.0382 86.7276 66.0382V66.0382ZM63.1234 78.6169L62.6219 77.1847L61.7536 74.5965C60.5502 74.0747 59.4831 73.4812 58.4121 72.7331L54.2336 73.6648L53.8134 73.7338C52.9876 73.8526 51.8652 73.2835 51.3923 72.4914L49.8391 69.9549C49.8382 69.9529 47.7046 66.4719 47.5113 65.9519C47.0876 64.8128 47.4103 63.8448 48.1512 62.984L50.8161 59.9988C50.6881 58.791 50.6762 57.5659 50.7869 56.3582C50.7466 56.3203 47.9935 53.3312 47.684 52.8036C47.0371 51.7001 47.1951 50.7373 47.7706 49.7323L51.1864 43.9866C51.9421 42.6893 53.1028 42.2367 54.5295 42.6061L58.3951 43.4862C59.4432 42.7442 60.5794 42.1404 61.7588 41.6571L63.2772 37.6884C63.6385 36.7445 64.4595 36.1321 65.4201 36.1183L66.3089 36.222C68.0799 36.4903 69.6585 36.4954 71.5475 36.774C72.5245 36.9181 73.2438 36.8174 73.7611 37.5851C73.884 37.7578 73.9635 38.0338 73.9532 38.0508C74.0674 38.6892 74.1935 39.3449 74.2871 39.9833L74.3875 41.4154C74.2051 41.7563 74.3051 42.0743 74.2543 42.5025C74.199 43.0372 74.2025 43.0372 74.2977 43.5896C74.1108 43.2789 73.9535 42.9338 73.7302 42.7612C73.5913 42.645 73.5112 42.0217 73.1734 41.6568C73.0003 41.4671 72.881 41.1907 72.7738 40.8974C72.5766 40.3623 72.3553 39.862 72.1012 39.3789L68.7078 39.4653C67.9364 39.5343 67.1685 39.5689 66.3852 39.5859L65.8627 41.4667C65.7746 42.2682 65.368 43.0597 65.2988 43.6926C65.2454 44.1827 64.7274 44.8634 64.1107 45.073C63.4033 45.2974 62.8188 45.7114 62.2446 46.1254C61.7829 46.4628 61.2026 46.7529 60.7036 47.1778C59.9756 47.7979 59.596 48.1934 58.4829 47.9889L54.5813 47.2815L52.3709 51.0948L55.0362 54.028C55.5139 54.5566 55.7105 55.2798 55.5931 55.9262C55.3428 57.3034 55.3659 58.9785 55.5982 60.3778C55.7372 61.2155 55.4586 61.7297 55.0414 62.2933L52.4507 65.1749L54.6283 68.9191L58.6373 68.1081C59.2962 68.0044 59.9415 68.2118 60.4067 68.6085C61.3512 69.4307 63.0533 70.3702 64.2755 70.817C65.386 71.223 65.5964 71.9933 65.901 72.8875L66.9369 75.907L71.2087 75.9587L71.9454 73.8362C72.3769 72.5777 72.5477 71.3751 73.8184 70.903C75.499 70.2784 76.4065 69.7296 77.8689 68.6425C78.6902 68.032 79.3095 68.2172 80.0964 68.4008L83.583 69.1945C84.3612 67.8488 85.1706 66.52 85.9558 65.1742L83.2095 62.051C82.8099 61.585 82.6648 60.9812 82.7597 60.4289C83.0206 58.9611 83.0692 57.3358 82.8012 55.8562C82.7044 55.2522 82.9032 54.6658 83.2767 54.2514L84.5236 52.871L85.7101 51.5942C85.8848 51.3699 86.0681 51.1629 86.2602 50.9902L85.6184 49.8341L83.7731 46.3832L81.0251 47.0562C80.2785 47.2375 80.6265 46.9827 79.9339 47.1079C78.4718 47.3723 78.7192 47.1904 77.7978 46.5038C77.0692 45.9608 76.125 45.4781 75.1811 44.761L74.4946 44.278L73.9931 43.881L75.6292 44.433C75.4336 44.3027 75.3497 44.1544 75.617 44.2433C75.6826 44.209 75.7467 44.1917 75.8158 44.1743C75.7582 44.054 74.9176 43.5889 75.534 43.7773C76.281 43.95 77.0232 44.2777 77.7338 44.64C78.2286 44.9161 78.7108 45.2094 79.1815 45.5201C80.3451 45.1488 83.3456 44.1268 84.1418 43.95C85.0947 43.7382 85.4714 44.3929 85.9179 45.0197C86.4793 45.8077 89.4164 49.9853 89.6918 50.6448C90.0691 51.5493 89.6757 52.2445 89.1243 52.888L86.3847 56.0286C86.5626 57.3092 86.5832 58.9335 86.4522 60.2389L89.7072 63.7588C90.5809 65.0494 89.8134 66.0357 89.2333 67.0544C88.7241 67.9486 86.5452 72.0292 86.0787 72.5931C85.6091 73.1612 84.7308 73.4507 83.9671 73.3005L79.5968 72.4205C78.4599 73.253 77.4478 73.8539 76.1414 74.422L74.7076 78.8219C74.3412 79.5486 73.8609 80.0072 73.0109 80.185C72.5223 80.2871 69.0974 80.281 68.6905 80.2887C68.2707 80.2967 65.6028 80.4392 65.209 80.3577C64.3906 80.1886 63.8077 79.9299 63.3377 79.1153C63.2171 78.9102 63.1096 78.5652 63.1234 78.6169ZM91.897 33.4435C91.316 33.4261 90.7505 33.3918 90.1952 33.4091C88.9573 33.4284 85.0229 32.3814 83.5402 31.977C81.0702 31.3033 78.604 30.3209 76.3145 29.1645C75.7196 28.8641 74.9868 28.432 74.393 28.1981C73.5585 27.8694 72.252 26.9669 71.3455 26.4726C71.2901 26.4379 71.2277 26.4036 71.1795 26.3689L69.1319 24.9885L68.0767 25.7822C64.5 28.616 60.157 30.8485 55.9132 32.3391C51.7626 33.7968 46.7678 34.7597 42.4249 34.9446L42.43 37.9988L42.4992 60.4128C42.4963 62.8855 42.4082 63.8532 42.8087 66.4349C43.1864 68.87 44.6311 71.6598 46.2415 73.4405C47.7873 75.1492 48.9123 75.8794 50.7071 77.1157C56.885 81.3716 62.914 85.71 69.0553 90.005L74.6313 86.2608L85.4147 78.9275C86.0652 78.4788 86.7189 78.0301 87.3726 77.5814C89.0133 76.4311 90.3014 75.6692 91.6548 74.1995C94.3738 71.2464 95.6406 68.2387 95.9697 64.1054C96.0737 62.802 95.8858 61.524 96.1203 60.4302C96.221 59.9596 96.2345 56.7382 96.257 55.9095C96.322 53.5261 96.4005 50.3746 96.5803 48.0239C96.6672 46.89 96.5009 43.2163 96.7013 42.5888C96.8014 42.2752 96.8863 40.0886 96.8724 39.6383C96.8277 38.1824 97.014 34.8326 97.3135 33.3401L97.4364 35.2383C97.4451 35.1693 97.4554 35.1176 97.4589 35.0656C97.4982 34.5963 97.5081 34.8393 97.566 34.9619C97.6008 35.0136 97.6371 35.0483 97.6716 35.0999C97.7562 34.8239 97.7182 34.4269 97.7787 34.1165C97.9035 33.758 98.0409 36.9708 98.0711 37.5504C98.4803 45.4415 99.236 53.0802 99.42 61.0515C99.5268 65.6842 99.2103 69.1172 96.8377 73.2681C96.3535 74.1151 95.5914 75.3091 94.93 75.96C94.8142 76.0806 94.6949 76.2187 94.5961 76.357C93.6493 77.6142 91.6647 79.1503 90.2618 80.1359C83.564 84.8425 76.8421 89.626 70.0976 94.2503C69.4404 94.7164 68.593 94.699 67.9702 94.2677L59.2344 88.2629L56.96 86.7101C55.6194 85.8647 54.3259 84.9326 53.0063 84.0529C52.0412 83.3972 51.0642 82.7761 50.0939 82.1374C49.8034 81.9477 49.5042 81.7577 49.2292 81.5507C46.8672 79.7729 45.6805 79.4334 43.3488 76.9264C39.7728 73.081 38.0514 68.4268 37.9616 63.2087C37.7863 53.0154 37.7567 42.9261 37.7023 32.7364C37.6956 31.425 38.7453 30.3379 40.0546 30.3035C42.008 30.2779 43.409 30.1774 45.3331 29.9929C48.8171 29.6587 53.6635 28.4388 57.0832 26.956C59.5178 25.9003 60.9153 25.2328 63.1209 23.8674C64.8651 22.7874 65.9464 21.9474 67.6263 20.6925C68.5148 20.0288 69.6369 20.04 70.4367 20.6925C71.1856 21.3136 71.9239 21.9349 72.7108 22.5043C75.645 24.655 78.2006 26.0749 81.3723 27.7327C82.4956 28.3197 83.7065 28.8945 84.9158 29.3028C86.4429 29.8183 87.8127 30.3376 89.3778 30.8039L95.2218 32.2707C95.7027 32.5868 95.8353 32.5737 96.4256 32.7367C96.8992 32.8674 96.7824 32.9944 97.6104 33.0471C97.1018 33.1334 96.6643 33.2024 96.3722 33.3578C96.2165 33.4528 95.4261 33.3642 94.9384 33.4785C94.1682 33.6588 92.8261 33.4711 91.897 33.4435ZM135.991 52.1652C135.984 52.3722 135.996 52.5792 135.991 52.7862C135.921 54.5249 135.192 56.32 134.081 57.6693C132.98 59.0077 132.105 59.6422 130.465 60.2575C129.792 60.5098 129.608 60.5104 128.914 60.6372C128.677 60.6888 128.44 60.7579 128.196 60.7579C127.226 60.729 126.876 60.9241 125.687 60.6372C124.841 60.433 124.565 60.3701 123.81 59.9641C122.498 59.2593 121.363 58.1783 120.579 56.9099C120.111 56.1531 119.551 54.6247 119.424 53.7177L118.336 53.8903C118.2 53.9853 118.204 53.8383 118.163 53.8903L116.894 54.063L116.005 54.132L114.972 54.1667C114.858 54.2357 114.741 54.201 114.623 54.2184L114.289 54.3047L113.251 54.4084L112.151 54.5637C111.477 54.6122 110.715 54.7213 110.041 54.6844L109.184 54.5807C109.087 54.5807 108.992 54.5981 108.895 54.529L108.452 54.5117C108.158 54.4761 107.359 54.2732 107.228 54.0113C107.221 54.0113 107.215 54.0113 107.214 53.994C107.345 57.2652 107.59 62.4756 107.318 65.9346C107.088 68.8562 106.285 72.0035 105.094 74.6829C104.544 75.9182 103.31 78.1858 102.598 79.1866L100.605 81.7057C99.7427 82.6978 98.045 84.2689 97.015 85.105L94.3532 87.0375L95.1282 86.9168L97.6809 86.8825L101.916 86.8308C102.19 86.8308 102.463 86.7961 102.738 86.7791H105.716L107.358 86.7618C107.564 86.7444 107.769 86.7101 107.973 86.7101C109.589 86.6713 110.037 86.7274 111.69 86.8481C111.98 86.8654 112.269 86.8828 112.562 86.8828C113.312 86.9011 113.577 86.9739 114.229 87.0555C114.577 87.0901 114.878 87.2625 115.09 87.5215L117.577 89.868L120.07 92.2665C120.248 92.4389 120.443 92.4703 120.429 92.7325C120.422 92.8721 121.632 93.9666 121.929 94.5097C122.121 94.8614 122.76 94.9513 122.673 95.1997C122.654 95.2514 122.662 95.2861 122.678 95.3204C123.143 95.0056 123.743 94.6673 124.3 94.5784C124.68 94.5177 125.294 93.9377 125.507 94.147C125.659 94.2953 126.51 94.0199 126.804 94.0263C127.029 94.0311 127.432 94.2597 127.559 94.4404C127.486 94.5578 127.285 94.5931 127.138 94.6647C127.306 94.6647 127.136 94.9105 127.144 94.9754C127.155 95.081 127.755 95.09 126.678 95.5448C125.976 95.8413 124.75 97.1242 124.43 97.7706C124.152 98.3326 123.776 98.6003 123.467 99.4097L123.266 99.9791C123.253 100.267 123.15 100.19 123.171 100.272C123.201 100.394 122.996 101.322 123.2 102.033C123.356 102.575 123.49 103.082 123.81 103.568C124.338 104.37 124.779 104.894 125.666 105.225C125.927 105.322 125.956 105.39 126.377 105.414C126.653 105.431 126.509 105.525 126.897 105.501C127.098 105.488 127.495 105.563 127.947 105.501L128.779 105.276C129.208 105.073 129.373 105.01 129.781 104.638C130.751 103.752 131.239 102.781 131.332 101.481C131.392 100.632 131.186 100.242 131.209 100.066L130.517 98.72L129.784 97.6502C129.709 97.3871 128.994 96.7098 128.727 96.4251C128.646 96.3378 128.052 95.8173 128.032 95.6831C128.001 95.4799 127.692 94.9747 127.558 94.8547C127.981 94.5783 127.764 94.5787 127.951 94.5787C128.227 94.5787 128.108 94.3245 128.451 94.3543C128.845 94.3887 129.238 94.0966 129.431 94.1473C129.649 94.199 129.874 94.2163 130.076 94.32C130.624 94.5819 130.845 94.2805 132.287 95.2174L132.71 95.4761C132.849 95.4934 132.954 95.5797 133.049 95.6658C133.16 95.7521 133.25 95.8728 133.4 95.9074C133.414 95.9248 133.43 95.9248 133.438 95.9421C133.658 96.3048 133.921 96.1315 134.478 96.9255C135.403 98.2447 135.566 98.452 135.906 100.152C136.003 100.635 136.011 101.468 135.991 101.981C135.922 103.726 135.192 105.517 134.082 106.864C133.275 107.843 132.963 108.138 131.896 108.797C131.461 109.065 130.132 109.681 129.628 109.711C129.213 109.736 128.5 109.962 128.196 109.953C127.751 109.94 126.967 110.051 126.448 109.97C124.663 109.69 123.821 109.328 122.424 108.227C121.67 107.634 120.598 106.34 120.239 105.466C119.98 104.836 119.751 104.394 119.608 103.706C119.491 103.143 119.444 103.194 119.364 102.43C119.159 100.469 119.753 98.4574 120.883 96.8562L121.164 96.5285C120.036 96.1164 118.811 95.6391 117.871 94.8894L116.294 93.6469C115.948 93.4672 116.103 93.3937 115.981 93.3709L112.941 91.0071L109.561 91.0934L108.748 91.1797C108.551 91.1451 108.361 91.1624 108.165 91.1971L106.623 91.2317C106.486 91.2317 106.35 91.2834 106.213 91.2834C105.824 91.2834 105.435 91.2834 105.048 91.3007L103.522 91.4214C102.929 91.4561 102.336 91.4731 101.742 91.5078L98.3645 91.5421C97.6207 91.5078 96.2757 91.4908 95.5577 91.3868C95.5265 91.3823 93.7909 91.3787 93.3836 91.2831C93.0735 91.2106 92.0173 91.1907 91.4775 90.8861C90.8628 90.5394 90.6578 90.6569 89.8259 90.196L70.7719 103.5L70.0992 103.965C69.442 104.431 68.5946 104.414 67.9702 103.983L54.5649 94.7514C54.2985 94.5787 54.0306 94.3717 53.7555 94.1993C52.0399 93.0949 50.3657 91.9218 48.6726 90.7657C48.5378 90.6794 48.4011 90.593 48.2644 90.4897C48.0907 90.5979 47.5164 90.4727 47.0831 90.6104C46.376 90.8354 45.4778 90.7153 45.2774 90.8521C45.0252 91.0241 44.7411 90.9034 44.6392 91.0074C44.6289 91.0247 44.615 91.0247 44.6047 91.0247C44.366 90.9731 44.1412 91.1284 43.9111 91.1974L43.3231 91.2321C42.4921 91.4449 40.8 91.4205 39.9056 91.3701C39.7499 91.3701 39.5942 91.4047 39.4385 91.4047L35.4536 91.4221C35.1667 91.4221 34.8794 91.4737 34.5924 91.4737H31.462C31.1004 91.3874 30.7459 91.5084 30.3862 91.4911L27.9599 91.5601C26.8706 91.5601 26.1211 91.4429 25.1875 91.4047L23.1933 91.3011L20.7667 93.3372C20.4691 93.5789 20.1699 93.8203 19.8724 94.0619L18.6808 95.0627C18.4617 95.3576 18.3536 95.1907 18.1966 95.287C17.7359 95.5695 16.8284 96.3645 16.2597 96.6155C15.8315 96.8042 15.7131 97.4195 15.4503 97.2885C15.3624 97.2449 15.291 97.3254 15.163 97.4092C15.6867 98.1156 15.8472 98.7309 15.9672 98.9103C16.1931 99.2486 16.0409 99.3093 16.1229 99.445C16.3481 99.8183 16.5019 101.093 16.4948 101.55C16.4768 102.7 16.4186 103.555 15.9569 104.673C15.3586 106.122 14.1869 107.457 12.875 108.297C12.378 108.615 12.3446 108.692 11.7179 108.97C10.8072 109.373 10.8914 109.367 9.91572 109.574L8.98182 109.694C7.68601 109.78 6.86406 109.651 5.67152 109.263C3.64126 108.602 2.20197 107.482 1.10401 105.639C0.116387 103.982 -0.0846771 102.539 0.059445 100.687L0.477979 98.9103L1.0313 97.7196C1.57498 96.4999 3.40095 94.7218 4.5906 94.631C5.11272 94.5912 5.84331 94.3242 6.4066 94.4066C6.92036 94.4821 7.58339 94.5402 8.00803 94.8897C8.08492 94.9532 8.03184 95.0412 8.31429 95.3384C8.38442 95.4122 8.37767 95.5534 8.58742 95.7354C8.2374 96.0146 8.45166 95.9992 8.27955 96.0461C8.0357 96.1122 8.2033 96.2563 7.94562 96.3394C7.31412 96.5429 7.86809 96.7525 7.01012 96.9778C6.68262 97.0639 6.5919 97.3553 6.23707 97.5645C6.13123 97.6271 5.69854 97.9689 5.69404 98.0996C5.68535 98.3531 5.46273 98.3088 5.483 98.5136C5.48461 98.5309 5.483 98.5309 5.47432 98.5309C5.33245 98.6346 5.33245 98.8243 5.31347 98.997C5.29899 99.1231 5.17449 99.1202 5.05063 99.5664L4.73923 100.86C4.71671 101.033 4.70449 101.223 4.66492 101.412C4.64594 101.516 4.69419 101.62 4.69773 101.706C4.73891 102.426 5.11884 103.426 5.60396 103.932L6.65367 104.743C7.03038 104.99 7.631 105.138 7.65834 105.157C7.97168 105.368 9.04745 105.221 9.40518 105.105C10.4163 104.777 11.1482 104.605 11.8816 103.656C12.4642 102.901 12.4568 102.819 12.6582 101.947C12.7956 101.353 12.6788 100.264 12.4211 99.6867L11.8955 98.7896C11.6944 98.6792 11.8443 98.5104 11.79 98.4273C11.4821 97.9548 10.7705 97.4249 10.5984 97.2022C10.4089 96.957 9.88162 97.1694 9.86489 96.9088C9.85685 96.7821 9.52131 96.6652 9.47917 96.6845C9.24047 96.7936 8.76146 96.4669 8.58677 96.1498C8.66591 96.0134 8.77111 96.0503 8.92906 95.9601C8.79137 95.9601 8.96156 95.702 8.96188 95.6494C8.9622 95.5984 8.38957 95.3897 9.52228 95.1834C11.015 94.9115 12.6708 95.1416 13.9222 96.0461C13.9672 96.0808 14.0068 96.1151 14.0486 96.1498C14.6605 94.9597 15.4934 93.3712 16.4697 92.4572L17.964 90.9734C18.2169 90.6319 18.2384 90.7811 18.2996 90.68C18.4678 90.4021 19.5104 89.4796 19.8077 89.1789L21.2554 87.7468C21.6408 87.3729 22.0998 87.2638 22.594 87.2638L26.5216 87.2294L28.2752 87.0741L32.1649 86.9534L35.6396 86.7464L39.185 86.712L42.1357 86.8674H42.9036C41.4135 85.8962 39.5891 84.4608 38.3203 83.2268C35.2902 80.2794 32.5503 75.8868 31.2622 71.7349C29.8171 67.0778 29.9593 63.5033 29.9011 58.7246L29.8438 54.1519C29.7537 54.1519 29.664 54.2556 29.5723 54.3416L29.3162 54.3589C28.9492 54.5759 28.428 54.5043 28.2215 54.5316C28.0867 54.5489 27.9567 54.5316 27.8219 54.5143L25.8747 54.566C25.6015 54.5769 24.2887 54.6818 24.1278 54.6006C23.9705 54.5316 23.8129 54.6523 23.6575 54.618C23.4773 54.5817 23.2306 54.687 23.0919 54.687C22.4473 54.687 22.5933 54.728 21.9348 54.6353C20.924 54.4928 19.9242 54.3076 18.9011 54.3076L17.9084 54.2039C17.6304 54.1898 17.5699 54.2395 17.3116 54.1696C17.2267 54.1465 17.1334 54.2909 17.0504 54.0659C17.0192 53.9815 16.5695 53.9266 16.407 53.8932C16.1638 55.0236 15.8534 55.9586 15.1617 56.8955C14.4176 57.9036 13.9157 58.4194 12.8734 59.087C12.6392 59.2368 12.5057 59.3986 12.2371 59.5183C10.9445 60.0944 11.2913 60.0893 9.91443 60.381C8.82515 60.6118 7.1063 60.5675 6.05595 60.1914C5.20119 59.8852 4.6083 59.7494 3.72812 59.1906C1.66055 57.8779 0.241528 55.585 0.0321007 53.1342C-0.0560454 52.1013 0.0456117 51.5323 0.236059 50.5803C0.401413 49.7529 0.690945 49.2708 1.03002 48.5098C1.55342 47.3351 3.31506 45.5939 4.58932 45.4213C5.98678 45.2319 5.5393 45.1038 6.97087 45.2832C7.23756 45.3166 7.98583 45.5583 8.05339 45.7663C8.12127 45.9755 8.30046 46.0959 8.35418 46.215C8.46839 46.4393 8.46646 46.4393 8.58581 46.543C8.2358 46.8222 8.45005 46.8068 8.27794 46.8537C8.02122 46.9233 8.19333 47.0668 7.94401 47.147C7.31252 47.3505 7.86648 47.5601 7.00851 47.7854C6.65013 47.8795 6.58 48.169 6.23546 48.3721C5.58562 48.755 5.72042 49.0002 5.59914 49.1142C5.54026 49.1659 5.46949 49.2005 5.48171 49.3212C5.48171 49.3212 5.48171 49.3385 5.47303 49.3385C5.33116 49.4249 5.33116 49.6319 5.31218 49.8046L5.11851 50.1323L4.73794 51.6507C4.71542 51.8404 4.7032 52.0304 4.66363 52.2201C4.64465 52.3238 4.6929 52.4098 4.69644 52.5134C4.74952 53.501 5.22017 54.4851 6.00737 55.0843C7.22662 56.0122 7.4383 55.8167 7.65738 55.9644C7.88965 56.1207 8.79009 56.0664 9.07383 55.9817L9.72752 55.8264C11.0613 55.3902 11.272 55.135 12.1071 54.1872C12.4549 53.7924 12.7132 52.7744 12.7126 52.2547C12.7107 51.1285 12.5636 50.6769 11.9846 49.6839C11.9128 49.5606 11.7365 49.5738 11.7996 49.3215C11.8601 49.0798 10.7766 48.2421 10.5977 48.0101C10.414 47.7723 9.88033 47.9684 9.86425 47.7167C9.85331 47.5479 9.50716 47.4815 9.47853 47.4924C9.39682 47.5242 9.0304 47.4763 8.83673 47.2507C8.76918 47.1817 8.6984 47.1127 8.62731 47.0264C8.61347 47.0264 8.60479 46.992 8.58581 46.9574L8.9281 46.7677C8.91941 46.7503 8.91266 46.7503 8.90397 46.733C8.7991 46.733 8.9593 46.5253 8.96123 46.457C8.96477 46.3264 8.48479 46.3142 9.1861 46.0429L10.5212 45.8703C11.3418 45.791 12.6614 46.1158 13.4441 46.5433C14.5682 47.1573 15.3499 48.3304 15.8534 49.4765C15.9769 49.758 16.1181 49.906 16.0937 50.1323L16.277 50.65L16.3703 51.1471C17.1556 50.5351 17.9673 50.7613 18.1899 50.6294C18.3498 50.5347 18.3317 50.6827 18.3835 50.6294L19.8087 50.4567L20.8082 50.3877L21.967 50.3534C22.0966 50.2844 22.2298 50.3191 22.3614 50.3017L22.7332 50.2154L23.3162 50.1637H23.7106C23.773 50.1464 23.837 50.112 23.9007 50.112C24.631 50.112 25.2972 49.9082 26.3807 49.8707C27.0769 49.8466 26.7619 49.8026 27.5083 49.8533L28.7967 49.9914L29.295 50.0087L29.812 50.112L29.6997 24.7475C29.6942 23.4081 30.7941 22.3146 32.133 22.3146L40.0369 22.3319C42.4394 22.33 43.2475 22.1984 45.5316 21.9349L44.9589 21.4862C44.6887 21.4336 44.5311 21.1239 44.3467 21.1239C44.1981 20.9168 43.9349 20.8478 43.7085 20.7272L43.2552 20.3131C42.487 19.8246 41.897 19.1519 41.287 18.605C41.0467 18.3806 40.8338 18.1563 40.6246 17.9149L37.3092 14.671L35.6557 13.1009L34.3293 11.7551C34.1182 11.4274 33.7689 11.2548 33.525 10.9787L32.2694 9.82266L29.5906 9.66731C28.0523 9.59125 26.6586 9.47763 25.1042 9.47763L20.6351 9.33961C20.1661 9.39322 20.2915 9.19358 20.1095 9.18427C19.9399 9.16694 19.7704 9.16694 19.6044 9.11527L18.48 9.02893C18.2101 8.97726 17.9422 8.97726 17.6774 8.89092C17.2859 8.75483 16.6891 9.11944 16.5672 8.85626C16.5344 8.78725 16.4877 8.78725 16.4408 8.76992C16.3957 9.45131 15.9743 10.7772 15.5986 11.3754C14.7988 12.6484 14.2165 13.3981 12.8747 14.257C12.3851 14.5706 12.3674 14.6421 11.7176 14.93C10.6344 15.4099 11.061 15.2706 9.9154 15.5511C8.80103 15.8242 7.16196 15.6833 6.05692 15.3614C3.82849 14.7121 2.29848 13.6112 1.10369 11.5998C0.122177 9.94783 -0.0930411 8.49678 0.0591234 6.64775L0.477656 4.87061L1.03098 3.67986C1.45402 2.76738 2.52174 1.6267 3.33629 1.109C3.56952 0.960718 4.29367 0.606382 4.59028 0.591297C5.64803 0.537377 5.22017 0.233751 6.97183 0.453286C7.21697 0.484098 7.96299 0.707482 8.05436 0.919314L8.5871 1.69571C8.21038 1.99645 8.47868 1.98008 8.27923 2.00639C8.09489 2.03079 8.16727 2.21726 7.9453 2.31708C7.17225 2.665 7.96975 2.64221 7.00979 2.95546C6.61732 3.08353 6.72573 3.20292 6.23675 3.52484C5.55699 3.97258 5.73554 4.1629 5.60042 4.26689C5.4177 4.40715 5.5097 4.49863 5.47399 4.50857C5.33212 4.59491 5.33212 4.80193 5.31314 4.9746L5.11948 5.30262C5.07508 5.58667 4.75467 6.50525 4.73891 6.82107C4.71639 7.01075 4.70416 7.20076 4.66459 7.39045C4.64561 7.47678 4.69387 7.58013 4.69741 7.66647C4.73891 8.396 5.10597 9.37107 5.60364 9.90963C5.86615 10.1937 6.72509 10.8003 7.12046 10.9447L7.65834 11.1344C7.81276 11.2384 8.54141 11.2615 8.69422 11.2207C9.35564 11.0449 9.40035 11.1427 10.23 10.8067C11.1552 10.4318 11.475 10.1237 12.1081 9.35727C12.4629 8.92783 12.7187 7.94795 12.7136 7.40746C12.7042 6.44427 12.5382 5.68167 11.9855 4.8536C11.881 4.69698 11.732 4.70179 11.8006 4.47391C11.8646 4.26144 10.6939 3.30338 10.5987 3.17981C10.3983 2.92016 9.88162 3.11626 9.86521 2.88646C9.85331 2.71732 9.47949 2.64478 9.47949 2.64478C9.08798 2.69164 8.75406 2.4307 8.5871 2.12707C8.63696 2.02405 8.83448 1.96435 8.92938 1.93739C8.86794 1.81446 8.82547 1.93258 8.91394 1.76471C9.0719 1.46462 8.63792 1.52239 8.86215 1.36769C9.42673 0.979013 11.0352 1.01303 11.6658 1.109C13.4541 1.38149 14.6576 2.36747 15.5207 3.93888L15.9669 4.87061C16.1886 5.22495 16.0425 5.26314 16.1226 5.40565C16.3098 5.73784 16.4298 6.60314 16.4649 7.01043C17.2135 6.68563 18.5875 6.3207 19.4033 6.09603C20.2983 5.84921 22.7587 5.84472 22.9247 5.80267C23.3545 5.69419 23.2563 5.8643 23.3934 5.80267L26.7902 5.61299L29.1769 5.56131L31.9407 5.52665L33.3085 5.42298C33.9548 5.33921 34.4184 5.7234 34.9395 6.16503C35.2191 6.4019 35.1088 6.39612 35.5517 6.75174L36.7781 7.90783C36.8871 8.0115 37.0219 8.09751 37.1274 8.20118L39.3134 10.1853C40.8061 11.5417 42.9489 13.5133 44.2805 14.9994C44.367 15.103 44.4413 15.2237 44.5295 15.3101L45.4704 16.3625L46.2972 17.2079C46.7929 17.7596 48.1183 19.3015 48.2724 19.8824C48.3937 20.3398 48.7138 20.6533 48.9297 21.2628C51.1681 20.6976 52.3497 20.2977 54.4623 19.382C56.3484 18.5646 58.8017 17.265 60.5328 15.9828L62.5322 14.4643L67.6723 10.3233C68.4971 9.6503 69.6578 9.68497 70.4376 10.358L76.318 15.293C79.0782 17.6164 83.7792 20.2753 87.1136 21.5392C87.251 21.1483 87.0126 21.1264 87.629 20.6074C87.9443 20.342 87.9816 19.9745 88.4226 19.5377C89.197 18.7706 89.0905 18.5726 89.2613 18.3989C89.3427 18.3126 89.4396 18.2436 89.4621 18.1056C89.4621 18.1056 89.4688 18.0883 89.481 18.0709C89.6834 17.9329 89.749 17.6739 89.8581 17.4499L90.2679 17.0012C90.7247 16.3034 92.0038 14.967 92.6495 14.413L94.7836 12.2388C95.1382 11.8765 95.4997 11.5141 95.8527 11.1517C96.0585 10.9447 96.2419 10.703 96.4443 10.496L98.7254 8.21851C99.0436 8.0115 99.2167 7.66647 99.4969 7.42479C100.383 6.68595 101.167 5.00927 102.814 5.00927L103.269 4.99194L107.913 5.26796L111.653 5.38864L113.988 5.47497L115.597 5.50932C115.941 5.44416 115.985 5.68199 116.114 5.68199C116.28 5.68199 116.448 5.68199 116.614 5.73367C116.716 5.76833 116.823 5.73367 116.927 5.73367L118.513 5.97535C118.787 6.05495 119.451 5.86462 119.514 5.90634C119.687 4.97974 120.367 3.4844 120.883 2.81777C121.004 2.66083 121.145 2.58027 121.268 2.33473C121.439 1.99548 121.691 2.09947 121.816 1.97237L122.577 1.35132C123.068 1.03197 123.725 0.633341 124.3 0.540264C124.772 0.464197 125.295 -0.106462 125.507 0.1089C125.621 0.223802 126.194 0.0915678 126.194 0.0915678C126.666 -0.138237 127.348 0.101516 127.559 0.402252L127.138 0.626603C127.223 0.731877 127.255 0.630776 127.18 0.799278C127.032 1.12922 127.502 0.991531 127.278 1.17897C126.775 1.60135 125.982 1.53876 124.624 3.43947L123.896 4.56089C123.742 4.83081 123.281 5.6101 123.266 5.94133C123.253 6.23243 123.144 6.15091 123.171 6.25201C123.199 6.35697 122.991 7.28293 123.2 8.01214C123.391 8.67588 123.621 9.3531 124.046 9.91028C124.217 10.1346 125.053 11.0307 125.379 11.0837C125.609 11.1209 125.83 11.3446 126.377 11.377C126.683 11.395 126.438 11.492 126.898 11.4634L127.361 11.4981C127.783 11.5321 128.542 11.3555 128.958 11.17C129.908 10.7464 130.993 9.45548 131.187 8.32314L131.332 7.46041C131.392 6.61213 131.189 6.20515 131.21 6.04531L130.518 4.68221L129.785 3.62979C129.663 3.18398 128.081 1.88154 128.033 1.66265C127.968 1.36801 127.94 1.41102 127.801 1.17961C127.697 0.938252 127.694 0.93825 127.559 0.834581C127.964 0.569471 127.768 0.55856 127.951 0.55856C128.187 0.55856 128.149 0.306608 128.451 0.316878C129.024 0.336457 129.249 0.0620396 129.432 0.109862C129.65 0.161536 129.874 0.178868 130.077 0.282538C130.402 0.452645 131.148 0.462272 131.581 0.765577L132.711 1.4383C132.966 1.46976 133.289 1.90433 133.439 1.90433C133.612 2.16302 133.909 2.28402 134.148 2.47371L135.166 3.88849C135.741 4.81477 136.02 6.287 135.991 7.33941C135.984 7.54643 135.996 7.75345 135.991 7.96046C135.924 9.64934 135.173 11.5378 134.082 12.8435C132.972 14.1716 132.11 14.8151 130.466 15.4317C129.528 15.7835 129.701 15.6105 128.915 15.8114C128.174 16.0004 126.425 16.0149 125.687 15.8114C124.736 15.5488 124.33 15.4718 123.444 14.9313C122.193 14.1681 120.81 12.7822 120.239 11.4284C119.965 10.7791 119.756 10.3994 119.608 9.66828C119.498 9.12137 119.455 9.21156 119.364 8.40884C119.35 8.27083 119.349 8.11549 119.344 7.97748C118.367 8.36936 116.893 8.79174 115.852 8.92655L113.337 9.06456C112.954 9.13581 112.98 9.02925 112.877 9.04722C112.157 9.17432 111.424 9.11976 110.694 9.1679L108.491 9.28858L104.451 9.34026C104.037 9.44553 103.878 9.27318 103.719 9.47827L102.568 10.669C102.467 10.7897 102.391 10.9104 102.287 11.014C101.405 11.8871 101.085 12.3473 100.335 13.1709C99.1144 14.5093 97.7887 15.9468 96.4777 17.1912L95.5612 18.0539C95.4679 18.1402 95.3553 18.2093 95.2604 18.2953C94.987 18.5569 94.5298 19.0392 94.2261 19.227L93.3891 20.0381C92.8698 20.5051 91.2787 21.8515 90.7463 21.9705C90.3773 22.0534 90.0591 22.3255 89.8452 22.4019C93.1163 23.3112 94.717 23.5731 97.9669 23.8857C98.6257 23.9374 99.2762 23.9894 99.9093 24.041L102.576 24.4207C102.888 24.6602 103.784 24.6711 104.21 24.8348C104.836 25.0074 104.831 25.0074 105.618 25.0591C104.927 25.1281 104.276 25.1628 103.785 25.3008C103.467 25.3884 102.487 25.3432 101.803 25.5251C100.951 25.7517 98.3706 25.814 97.2266 25.9218C95.3051 26.1032 94.9323 26.0467 93.0983 25.8528C91.6011 25.6946 88.8476 25.1371 87.4135 24.8004C83.7924 23.9499 79.9735 22.2604 76.7822 20.2278C75.5897 19.4684 75.1454 19.3355 73.9284 18.3986C73.6119 18.1573 73.2921 17.8983 72.972 17.6566L71.8599 16.8282C70.9604 16.0518 70.0336 15.3787 69.108 14.7057C67.6433 15.8634 66.2587 17.1578 64.7567 18.3636C64.4125 18.6397 64.0824 18.9503 63.726 19.192C60.3706 21.8149 56.4897 23.73 52.4565 25.0761C48.689 26.3224 43.9855 27.0259 39.9005 27.0259H34.4197L34.4335 41.52C34.4509 43.4872 34.4663 45.454 34.4837 47.4041L34.4908 62.8299C34.4908 64.6812 34.6655 66.3884 35.0061 68.2134C35.7563 72.2314 37.9076 76.3223 40.7842 79.2912C43.3717 81.9612 44.9229 82.8188 48.164 85.0716L68.759 99.514L69.0511 99.7211L81.7438 91.1281L92.9786 83.4152C94.1464 82.6076 95.2376 81.8267 96.2715 80.8443C97.8324 79.3608 98.4478 78.6669 99.6838 76.9963C100.481 75.9189 101.614 73.8529 102.097 72.648C103.284 69.6798 103.555 68.2406 103.914 65.1765C104.115 63.4642 103.873 61.8289 104.123 60.3798C104.222 59.8085 104.241 55.5484 104.262 54.513C104.294 52.8049 104.324 51.1137 104.386 49.4056C104.45 47.6972 104.479 46.0064 104.582 44.2809C104.669 42.8321 104.504 38.0149 104.701 37.241C104.8 36.8514 104.891 33.9843 104.877 33.4277C104.83 31.5694 105.013 27.2676 105.32 25.3525L105.443 27.8373C105.552 26.9685 105.455 27.3142 105.676 27.7336C105.734 27.499 105.778 25.7312 105.86 26.7502C105.969 28.0787 106.017 29.5284 106.078 30.9776C106.344 37.5286 106.756 44.1349 107.069 50.7174C107.221 50.5909 107.607 50.6612 107.672 50.5277C107.753 50.3624 107.848 50.5206 107.92 50.3723C108.102 50.3723 108.054 50.3004 108.203 50.1826L108.433 50.1653C108.696 50.0026 109.468 49.9471 109.763 50.01L110.92 49.9756H111.496L112.344 49.9066L113.049 49.924C113.191 49.993 113.328 49.8723 113.472 49.9066L113.975 49.8376C114.761 49.7583 115.76 50.0543 116.565 50.131L116.922 50.1826L119.193 50.3553C119.376 50.3014 119.31 50.4994 119.386 50.5107C119.443 50.528 119.499 50.528 119.554 50.5623C119.848 49.4897 120.219 48.6035 120.882 47.6635C121.018 47.4715 121.116 47.4516 121.268 47.1804C121.489 46.786 121.664 46.9548 121.816 46.8007L123.186 45.8L124.3 45.3686C124.795 45.2887 125.267 44.719 125.507 44.9546C125.707 45.1513 126.665 44.614 127.197 44.9719L127.558 45.2306C127.483 45.3519 127.262 45.4248 127.138 45.455C127.241 45.584 127.259 45.4492 127.18 45.6276C126.985 46.0622 127.934 45.7092 126.678 46.3524C125.542 46.9339 124.893 47.8763 124.234 48.8889C123.944 49.335 123.282 50.3223 123.266 50.787C123.256 51.0691 123.15 50.9992 123.171 51.0804C123.199 51.1927 122.998 52.1398 123.2 52.8405C123.38 53.468 123.261 53.2577 123.608 53.9792C123.981 54.7547 124.53 55.4486 125.294 55.8774C125.574 56.034 126.06 56.2038 126.377 56.2224C126.677 56.2401 126.438 56.3088 126.897 56.3088C127.787 56.3088 127.595 56.4131 128.594 56.1361C129.721 55.8235 130.973 54.4016 131.187 53.1509L131.335 51.9084C131.366 51.3721 131.184 51.064 131.209 50.873L130.517 49.5273L129.784 48.4575C129.669 48.0371 128.078 46.6955 128.032 46.4904L127.8 46.0073C127.697 45.7656 127.693 45.7656 127.558 45.6623C127.981 45.3859 127.764 45.3863 127.951 45.3863C128.209 45.3863 128.135 45.134 128.451 45.1449C129.017 45.1642 129.206 44.9113 129.431 44.9379C129.649 44.9896 129.874 45.0242 130.076 45.1276C130.532 45.3452 130.825 45.0753 132.287 46.0247L132.71 46.2833C133.063 46.345 133.189 46.6794 133.4 46.7147C133.414 46.7147 133.43 46.732 133.438 46.7494C133.611 46.9911 133.909 47.1117 134.147 47.3014L135.316 48.9752C135.777 49.8582 136.012 51.1988 135.991 52.1652Z" fill="#FF7510"/>
</svg>
