<svg width="99" height="109" viewBox="0 0 99 109" fill="none" xmlns="http://www.w3.org/2000/svg">
<path d="M40.5159 68.7426C41.0695 69.3051 41.8563 69.6994 42.6364 69.5801C43.8511 69.3943 44.5449 68.1317 45.072 67.0215C50.845 54.8599 58.6037 43.6435 67.9473 33.9515C68.4975 33.3808 68.2394 32.2563 67.6407 31.7367C67.042 31.217 66.1465 31.1601 65.3898 31.3969C60.0547 33.0674 46.5035 51.0424 43.6946 54.3308C40.6779 52.416 34.9048 51.817 31.8577 49.9509C31.299 49.6088 30.7299 49.2622 30.0957 49.0984C29.4615 48.9347 28.7409 48.9781 28.2146 49.3681C27.6883 49.7582 27.3311 50.8245 27.7944 51.2876C36.5543 60.0438 39.0662 67.2699 40.5159 68.7426Z" fill="#FF7510"/>
<path d="M46.5165 97.1689C46.7649 97.2533 47.0287 97.2586 47.2732 97.1878C56.6446 94.4923 65.4509 87.6894 71.4347 78.5236C82.5287 61.5319 83.2164 39.4155 81.0829 19.2379C81.0207 18.6613 80.5735 18.2002 79.9985 18.1232C43.7522 13.3071 46.0605 13.5508 45.7236 13.6038C38.8578 14.6475 13.9501 18.4655 13.3342 18.5237C12.6708 18.5237 12.122 19.0381 12.0794 19.6991C11.4111 29.8182 10.7198 40.2822 11.8403 50.6085C14.2725 72.9938 24.9671 89.7576 46.5165 97.1689ZM14.5201 20.9088L45.9251 16.1182L78.6815 20.4861C80.6348 39.8355 79.8565 61.0217 69.3282 77.1477C63.7522 85.691 55.6159 92.0532 46.9587 94.6578C26.6675 87.5085 16.6629 71.7277 14.3432 50.3366C13.2834 40.5803 13.8829 30.5946 14.5201 20.9088Z" fill="#FF7510"/>
<path d="M88.9667 48.2075C90.2984 36.8967 90.2231 25.0534 88.7292 10.9349C88.6669 10.3575 88.2197 9.89723 87.6448 9.82025C43.1805 3.90776 45.8908 4.20524 45.5547 4.25819C2.5449 10.8078 5.28153 10.3467 4.99445 10.5302C4.99813 10.45 5.00018 10.3702 5.00387 10.29C4.87272 10.4268 3.95745 10.8178 3.8435 10.9725C3.50504 11.4322 2.92593 11.7724 2.51022 12.1859C1.55716 13.1343 1.62634 14.1289 1.3131 17.0546C0.58725 23.8526 0.0323995 30.6604 0.00111239 37.5239C-0.138266 69.7899 12.811 98.7961 43.907 108.149C50.0042 109.982 55.5868 105.604 60.8659 102.03C67.1361 97.7847 72.6133 92.373 76.9386 86.1581C84.6632 75.058 87.3421 62.0013 88.9667 48.2075ZM6.84556 12.7073L45.7562 6.77263L86.3294 12.184C88.7659 36.1073 87.8419 62.3355 74.7974 82.3145C67.8799 92.9119 57.7747 100.798 47.024 104.005C21.8957 95.194 9.48817 75.6713 6.61296 49.1985C5.29759 37.0932 6.05438 24.7119 6.84556 12.7073Z" fill="#FF7510"/>
<path d="M94.7375 13.4196C95.4222 13.3025 95.8825 12.653 95.7662 11.9683C95.0111 7.53735 92.0511 3.52081 88.0428 1.48552C87.4203 1.17183 86.6668 1.41836 86.3506 2.03836C86.0361 2.65755 86.2835 3.41516 86.9027 3.72967C90.2165 5.41114 92.6621 8.72986 93.2862 12.3909C93.4032 13.0755 94.0529 13.5363 94.7375 13.4196Z" fill="#FF7510"/>
<path d="M98.982 7.69041C98.4398 4.49782 96.3071 1.60418 93.4175 0.137291C92.7918 -0.179675 92.0399 0.0717681 91.7254 0.690138C91.4109 1.30933 91.6582 2.06693 92.2774 2.38144C94.4708 3.49369 96.0892 5.69033 96.502 8.11303C96.6199 8.80277 97.2724 9.25781 97.9533 9.14174C98.638 9.02543 99.0983 8.37594 98.982 7.69041Z" fill="#FF7510"/>
</svg>
