<svg width="66" height="75" viewBox="0 0 66 75" fill="none" xmlns="http://www.w3.org/2000/svg">
<path d="M31.1769 1.477C31.1439 0.690001 31.8649 -0.0239995 32.6479 0.00200047C33.4439 -0.0429995 34.1889 0.678001 34.1539 1.478C34.1529 3.708 34.1519 5.938 34.1539 8.169C35.8539 7.163 37.5699 6.185 39.2829 5.201C39.8879 4.837 40.7449 4.973 41.1879 5.531C41.7709 6.182 41.5959 7.327 40.8329 7.761C38.8679 8.9 36.8979 10.029 34.9339 11.166C34.6879 11.328 34.4269 11.467 34.1489 11.565C34.1519 11.831 34.1529 12.097 34.1549 12.363C37.8659 12.603 41.5279 13.646 44.7829 15.451C48.3509 17.385 51.3779 20.251 53.6429 23.608C53.8189 23.512 53.9949 23.413 54.1689 23.311C54.1309 20.768 54.1649 18.223 54.1509 15.679C54.1049 14.869 54.8499 14.132 55.6569 14.176C56.4519 14.149 57.1749 14.883 57.1289 15.679C57.1219 17.646 57.1369 19.613 57.1209 21.58C57.4569 21.466 57.7379 21.246 58.0419 21.07C59.4749 20.281 60.8689 19.421 62.3009 18.631C62.7869 18.353 63.2589 17.934 63.8569 17.976C64.6439 17.964 65.3479 18.694 65.3079 19.481C65.3219 20.011 65.0069 20.518 64.5469 20.772C62.6679 21.899 60.7429 22.95 58.8639 24.077C60.5179 25.054 62.1959 25.991 63.8519 26.965C64.4289 27.311 64.6739 28.068 64.4619 28.698C64.2679 29.287 63.6749 29.731 63.0479 29.711C62.6859 29.731 62.3559 29.567 62.0549 29.388C59.9959 28.181 57.9129 27.014 55.8589 25.797C55.6209 25.939 55.3789 26.073 55.1349 26.204C56.6349 29.181 57.5609 32.46 57.7599 35.791C58.1099 40.237 57.1749 44.752 55.2209 48.752C55.3689 48.834 55.5189 48.916 55.6689 48.997C57.5179 47.862 59.4249 46.828 61.2879 45.718C61.8549 45.447 62.3819 44.963 63.0519 45.029C63.7929 45.057 64.4419 45.734 64.4329 46.477C64.4659 47.018 64.1589 47.55 63.6889 47.813C61.9979 48.768 60.3159 49.741 58.6479 50.736C60.5159 51.777 62.3539 52.874 64.2159 53.927C64.7439 54.202 65.2679 54.643 65.3019 55.284C65.4219 56.121 64.6979 56.953 63.8499 56.936C63.3159 56.983 62.8969 56.616 62.4619 56.372C60.7029 55.376 58.9649 54.343 57.2019 53.355C57.2029 55.262 57.2029 57.17 57.2029 59.077C57.2109 59.843 56.5119 60.524 55.7499 60.511C54.9649 60.561 54.2199 59.869 54.2279 59.081C54.2259 56.595 54.2319 54.109 54.2249 51.623C54.0539 51.529 53.8839 51.434 53.7159 51.338C52.8269 52.749 51.7649 54.041 50.5969 55.229C49.8199 56.09 48.8909 56.79 47.9899 57.514C47.1419 58.184 46.2589 58.814 45.3099 59.336C44.3069 59.999 43.1749 60.421 42.0819 60.905C39.5689 61.977 36.8549 62.466 34.1499 62.729C34.1749 62.929 34.0639 63.224 34.3159 63.312C35.7079 64.076 37.0629 64.907 38.4459 65.687C39.1759 66.081 39.8779 66.524 40.5989 66.935C41.0719 67.205 41.3939 67.736 41.3579 68.288C41.3639 68.874 40.9599 69.418 40.4259 69.636C39.9749 69.811 39.4449 69.76 39.0399 69.495C37.4169 68.546 35.7819 67.617 34.1539 66.677C34.1509 68.946 34.1539 71.215 34.1529 73.484C34.1589 74.262 33.4309 74.949 32.6549 74.911C31.8879 74.937 31.1729 74.258 31.1779 73.487C31.1799 71.143 31.1749 68.798 31.1809 66.454C29.5519 67.371 27.9429 68.324 26.3189 69.247C25.7219 69.728 24.7619 69.653 24.2679 69.059C23.7919 68.545 23.7679 67.68 24.2149 67.141C24.3789 66.938 24.5959 66.786 24.8159 66.647C26.9389 65.446 29.0419 64.205 31.1659 63.007C31.1729 62.935 31.1869 62.792 31.1939 62.721C29.1389 62.568 27.0839 62.242 25.1179 61.613C21.7619 60.597 18.6589 58.814 16.0039 56.532C14.8549 55.477 13.7299 54.382 12.7859 53.135C12.3559 52.566 11.9299 51.994 11.5349 51.4C11.3549 51.498 11.1769 51.599 11.0009 51.704C11.0059 54.197 11.0009 56.691 11.0029 59.184C11.0219 59.954 10.3219 60.645 9.55486 60.636C8.75886 60.689 8.00386 59.981 8.02786 59.179C8.02986 57.257 8.02486 55.335 8.03086 53.413C6.07286 54.539 4.11386 55.663 2.16386 56.803C1.58386 57.079 0.82986 56.927 0.41486 56.431C-0.0641401 55.914 -0.0781394 55.044 0.371861 54.506C0.621861 54.205 0.97886 54.027 1.30886 53.83C3.16486 52.773 5.00186 51.681 6.86486 50.636C5.10086 49.608 3.32786 48.596 1.56586 47.565C0.829861 47.121 0.67086 46.005 1.23686 45.365C1.67086 44.81 2.51186 44.664 3.11986 45.009C4.98786 46.072 6.83486 47.175 8.70786 48.23C9.07386 48.457 9.46486 48.657 9.76886 48.969C9.82686 48.886 10.0689 48.859 10.0119 48.737C7.52786 43.737 6.76386 37.896 7.92686 32.431C8.31586 30.235 9.19486 28.167 10.1109 26.147C9.90686 26.034 9.70386 25.92 9.50286 25.803C7.36486 27.086 5.19286 28.311 3.03686 29.562C2.40686 29.972 1.48286 29.81 1.04286 29.195C0.57986 28.604 0.663861 27.658 1.24686 27.174C1.58586 26.902 1.98886 26.727 2.35086 26.488C3.73886 25.694 5.12186 24.89 6.50486 24.087C4.60686 22.956 2.67286 21.889 0.77786 20.754C0.0638604 20.367 -0.17114 19.363 0.26186 18.685C0.60486 18.101 1.36286 17.83 2.00386 18.043C2.39586 18.184 2.72686 18.446 3.08686 18.65C4.80886 19.62 6.50586 20.635 8.22686 21.607C8.22986 19.566 8.22686 17.524 8.22786 15.483C8.20286 14.682 8.95686 13.974 9.75286 14.026C10.5219 14.015 11.2239 14.71 11.2039 15.483C11.2019 17.616 11.2029 19.749 11.2029 21.882C11.1979 22.349 11.2449 22.824 11.1089 23.279C11.2839 23.373 11.4599 23.466 11.6359 23.56C12.4869 22.216 13.5469 21.025 14.6439 19.879C15.8049 18.63 17.1569 17.575 18.5569 16.61C20.9589 14.991 23.6459 13.817 26.4429 13.075C27.9979 12.701 29.5819 12.463 31.1779 12.356C31.1769 12.127 31.1769 11.898 31.1759 11.669C29.3119 10.646 27.4859 9.553 25.6379 8.502C25.0709 8.101 24.2999 7.913 23.9579 7.257C23.5749 6.546 23.8859 5.58 24.6129 5.229C25.0859 4.99 25.6759 5.033 26.1219 5.314C27.8119 6.279 29.4959 7.254 31.1779 8.234C31.1779 5.982 31.1789 3.729 31.1769 1.477ZM23.2569 17.394C22.0369 17.951 20.9149 18.692 19.7859 19.409C18.7639 20.142 17.7729 20.929 16.9099 21.847C15.9469 22.859 14.9879 23.887 14.2339 25.069C15.0079 25.544 15.8079 25.974 16.5859 26.442C21.4579 29.24 26.3199 32.052 31.1809 34.869C31.1739 28.368 31.1809 21.867 31.1779 15.366C28.4399 15.542 25.7479 16.252 23.2569 17.394ZM34.1529 15.372C34.1529 21.875 34.1519 28.377 34.1539 34.88C35.1649 34.243 36.2279 33.696 37.2509 33.079C39.0959 32.03 40.9259 30.953 42.7649 29.896C45.5219 28.294 48.2979 26.728 51.0419 25.105C50.4329 24.253 49.7889 23.425 49.1009 22.636C47.8019 21.257 46.3919 19.969 44.7909 18.947C41.6259 16.875 37.9279 15.631 34.1529 15.372ZM11.7089 30.066C10.9209 32.074 10.5779 34.228 10.4179 36.37C10.2229 40.114 10.9969 43.902 12.6279 47.278C18.3219 44.031 23.9889 40.728 29.6709 37.454C26.6389 35.683 23.5849 33.948 20.5509 32.18C17.9509 30.66 15.3139 29.202 12.7339 27.649C12.3399 28.431 12.0259 29.251 11.7089 30.066ZM35.6609 37.455C37.1409 38.272 38.5829 39.155 40.0589 39.978C44.2299 42.418 48.4389 44.795 52.6029 47.247C55.5969 41.19 55.5719 33.749 52.5359 27.712C46.9139 30.964 41.2859 34.21 35.6609 37.455ZM14.1359 49.9C16.9369 54.098 21.2139 57.294 26.0449 58.761C27.7059 59.295 29.4429 59.563 31.1779 59.717C31.1869 53.153 31.1609 46.588 31.1909 40.024C25.5189 43.339 19.8049 46.581 14.1359 49.9ZM34.1529 40.034C34.1529 46.597 34.1519 53.16 34.1539 59.722C34.9919 59.634 35.8249 59.502 36.6569 59.367C38.3919 59.08 40.0819 58.546 41.6799 57.814C43.3919 57.114 44.9669 56.111 46.4009 54.949C47.0849 54.393 47.7949 53.861 48.3859 53.203C49.4029 52.172 50.3369 51.059 51.1189 49.839C45.4689 46.561 39.8099 43.302 34.1529 40.034Z" fill="white"/>
<path d="M36.3898 2.03768C37.2248 1.85668 38.1088 2.52268 38.1588 3.37668C38.2578 4.18868 37.5748 4.98268 36.7578 5.00868C35.9528 5.08168 35.1858 4.39368 35.1698 3.58768C35.1148 2.85968 35.6728 2.15868 36.3898 2.03768Z" fill="white"/>
<path d="M28.273 2.21144C29.099 1.91944 30.075 2.50743 30.206 3.37143C30.375 4.17443 29.765 5.02543 28.951 5.12343C28.168 5.26143 27.359 4.66844 27.25 3.88344C27.118 3.17244 27.582 2.41844 28.273 2.21144Z" fill="white"/>
<path d="M59.4036 15.7504C60.2496 15.5304 61.1746 16.1964 61.2306 17.0684C61.3336 17.8774 60.6616 18.6734 59.8476 18.7084C59.0726 18.7864 58.3196 18.1604 58.2496 17.3864C58.1466 16.6504 58.6776 15.9034 59.4036 15.7504Z" fill="white"/>
<path d="M5.48686 15.843C6.31386 15.523 7.31986 16.103 7.45786 16.978C7.63986 17.798 6.99886 18.671 6.16386 18.746C5.35386 18.869 4.53986 18.208 4.49186 17.391C4.41886 16.725 4.85486 16.055 5.48686 15.843Z" fill="white"/>
<path d="M1.07875 22.4099C1.90075 22.1419 2.85475 22.7329 2.97975 23.5869C3.15175 24.4119 2.49675 25.2769 1.65975 25.3399C0.888752 25.4409 0.117751 24.8449 0.0197508 24.0749C-0.105249 23.3559 0.37675 22.6029 1.07875 22.4099Z" fill="white"/>
<path d="M63.6899 22.8343C64.5379 22.5623 65.5129 23.2083 65.5909 24.0943C65.7209 24.9343 65.0049 25.7723 64.1569 25.7743C63.3759 25.8253 62.6409 25.1633 62.6079 24.3823C62.5429 23.6943 63.0249 23.0143 63.6899 22.8343Z" fill="white"/>
<path d="M36.4028 28.5504C37.2498 28.3294 38.1768 28.9974 38.2308 29.8704C38.3318 30.6764 37.6648 31.4684 36.8548 31.5074C36.0788 31.5894 35.3198 30.9634 35.2498 30.1864C35.1458 29.4504 35.6768 28.7034 36.4028 28.5504Z" fill="white"/>
<path d="M27.6908 28.7316C28.5108 28.4366 29.4868 29.0106 29.6298 29.8696C29.8238 30.7186 29.1308 31.6226 28.2608 31.6526C27.4748 31.7306 26.7148 31.0816 26.6648 30.2946C26.5878 29.6166 27.0418 28.9346 27.6908 28.7316Z" fill="white"/>
<path d="M23.1929 35.7338C23.9449 35.4948 24.8759 35.8248 25.1699 36.5918C25.5369 37.4018 25.0089 38.4398 24.1419 38.6248C23.4159 38.8138 22.5569 38.4858 22.2639 37.7678C21.8899 36.9868 22.3639 35.9688 23.1929 35.7338Z" fill="white"/>
<path d="M40.6876 35.9306C41.4916 35.6096 42.4816 36.1406 42.6596 36.9856C42.8836 37.8026 42.2786 38.7116 41.4396 38.8206C40.6866 38.9596 39.8956 38.4246 39.7406 37.6766C39.5606 36.9626 39.9926 36.1696 40.6876 35.9306Z" fill="white"/>
<path d="M36.6687 43.0927C37.5177 42.8307 38.4827 43.4827 38.5557 44.3667C38.6757 45.1907 37.9887 46.0117 37.1567 46.0357C36.3777 46.1047 35.6297 45.4647 35.5747 44.6857C35.4887 43.9797 35.9817 43.2697 36.6687 43.0927Z" fill="white"/>
<path d="M27.9846 43.2337C28.7906 43.0037 29.7626 43.4407 29.9686 44.2877C30.2486 45.1887 29.4986 46.1997 28.5556 46.1857C27.7966 46.2727 27.0246 45.7337 26.8936 44.9737C26.7296 44.2217 27.2386 43.4137 27.9846 43.2337Z" fill="white"/>
<path d="M1.4996 49.1581C2.2956 48.9141 3.2096 49.4621 3.3666 50.2791C3.5696 51.0821 2.9776 51.9631 2.1586 52.0811C1.3766 52.2391 0.549598 51.6591 0.427598 50.8721C0.274598 50.1341 0.772599 49.3461 1.4996 49.1581Z" fill="white"/>
<path d="M63.7008 49.4471C64.4128 49.1441 65.3138 49.5021 65.6198 50.2131C65.9618 50.9111 65.6438 51.8341 64.9448 52.1731C64.2148 52.5761 63.2028 52.2201 62.8868 51.4481C62.5308 50.7051 62.9298 49.7321 63.7008 49.4471Z" fill="white"/>
<path d="M5.00662 56.1538C5.84562 55.8808 6.81362 56.5028 6.91362 57.3778C7.05862 58.2008 6.38962 59.0428 5.55462 59.0878C4.77962 59.1748 4.01862 58.5548 3.94262 57.7808C3.83762 57.0708 4.31862 56.3448 5.00662 56.1538Z" fill="white"/>
<path d="M59.2889 56.7345C60.0609 56.4235 61.0179 56.8935 61.2439 57.6935C61.5029 58.4565 61.0269 59.3575 60.2519 59.5745C59.5149 59.8195 58.6469 59.3835 58.3999 58.6485C58.1129 57.9045 58.5369 56.9945 59.2889 56.7345Z" fill="white"/>
<path d="M28.197 69.9536C29.04 69.6596 30.031 70.2816 30.132 71.1676C30.279 71.9966 29.6 72.8436 28.759 72.8796C27.998 72.9566 27.254 72.3556 27.164 71.5976C27.047 70.8916 27.514 70.1576 28.197 69.9536Z" fill="white"/>
<path d="M36.0917 69.9468C36.7657 69.6958 37.6317 69.8628 38.0397 70.4928C38.4937 71.1218 38.3367 72.0848 37.7067 72.5368C37.0257 73.0418 35.9187 72.9348 35.4237 72.2168C34.8517 71.4718 35.2047 70.2618 36.0917 69.9468Z" fill="white"/>
</svg>
